%TF.GenerationSoftware,KiCad,Pcbnew,10.0.5*%
%TF.CreationDate,2026-10-10T13:59:52+00:00*%
%TF.ProjectId,mono_panel_20x20,6d6f6e6f-5f70-4616-9e65-6c5f32307832,rev?*%
%TF.SameCoordinates,Original*%
%TF.FileFunction,Paste,Bot*%
%TF.FilePolarity,Positive*%
%FSLAX46Y46*%
G04 Gerber Fmt 4.6, Leading zero omitted, Abs format (unit mm)*
G04 Created by KiCad (PCBNEW 10.0.5) date 2026-10-10 13:59:52*
%MOMM*%
%LPD*%
G01*
G04 APERTURE LIST*
%ADD10R,0.300000X1.300000*%
%ADD11R,1.800000X2.200000*%
%ADD12R,1.300000X0.300000*%
%ADD13R,2.200000X1.800000*%
G04 APERTURE END LIST*
D10*
%TO.C,J_COL*%
X58400000Y-129850000D03*
X58900000Y-129850000D03*
X59400000Y-129850000D03*
X59900000Y-129850000D03*
X60400000Y-129850000D03*
X60900000Y-129850000D03*
X61400000Y-129850000D03*
X61900000Y-129850000D03*
X62400000Y-129850000D03*
X62900000Y-129850000D03*
X63400000Y-129850000D03*
X63900000Y-129850000D03*
X64400000Y-129850000D03*
X64900000Y-129850000D03*
X65400000Y-129850000D03*
X65900000Y-129850000D03*
X66400000Y-129850000D03*
X66900000Y-129850000D03*
X67400000Y-129850000D03*
X67900000Y-129850000D03*
X68400000Y-129850000D03*
X68900000Y-129850000D03*
X69400000Y-129850000D03*
X69900000Y-129850000D03*
X70400000Y-129850000D03*
X70900000Y-129850000D03*
X71400000Y-129850000D03*
X71900000Y-129850000D03*
X72400000Y-129850000D03*
X72900000Y-129850000D03*
X73400000Y-129850000D03*
X73900000Y-129850000D03*
X74400000Y-129850000D03*
X74900000Y-129850000D03*
X75400000Y-129850000D03*
X75900000Y-129850000D03*
X76400000Y-129850000D03*
X76900000Y-129850000D03*
X77400000Y-129850000D03*
X77900000Y-129850000D03*
D11*
X56500000Y-126600000D03*
X79800000Y-126600000D03*
%TD*%
D12*
%TO.C,J_ROW*%
X6150000Y-58400000D03*
X6150000Y-58900000D03*
X6150000Y-59400000D03*
X6150000Y-59900000D03*
X6150000Y-60400000D03*
X6150000Y-60900000D03*
X6150000Y-61400000D03*
X6150000Y-61900000D03*
X6150000Y-62400000D03*
X6150000Y-62900000D03*
X6150000Y-63400000D03*
X6150000Y-63900000D03*
X6150000Y-64400000D03*
X6150000Y-64900000D03*
X6150000Y-65400000D03*
X6150000Y-65900000D03*
X6150000Y-66400000D03*
X6150000Y-66900000D03*
X6150000Y-67400000D03*
X6150000Y-67900000D03*
X6150000Y-68400000D03*
X6150000Y-68900000D03*
X6150000Y-69400000D03*
X6150000Y-69900000D03*
X6150000Y-70400000D03*
X6150000Y-70900000D03*
X6150000Y-71400000D03*
X6150000Y-71900000D03*
X6150000Y-72400000D03*
X6150000Y-72900000D03*
X6150000Y-73400000D03*
X6150000Y-73900000D03*
X6150000Y-74400000D03*
X6150000Y-74900000D03*
X6150000Y-75400000D03*
X6150000Y-75900000D03*
X6150000Y-76400000D03*
X6150000Y-76900000D03*
X6150000Y-77400000D03*
X6150000Y-77900000D03*
D13*
X9400000Y-56500000D03*
X9400000Y-79800000D03*
%TD*%
M02*
