%TF.GenerationSoftware,KiCad,Pcbnew,10.0.5*%
%TF.CreationDate,2026-10-10T13:59:52+00:00*%
%TF.ProjectId,mono_panel_20x20,6d6f6e6f-5f70-4616-9e65-6c5f32307832,rev?*%
%TF.SameCoordinates,Original*%
%TF.FileFunction,Paste,Top*%
%TF.FilePolarity,Positive*%
%FSLAX46Y46*%
G04 Gerber Fmt 4.6, Leading zero omitted, Abs format (unit mm)*
G04 Created by KiCad (PCBNEW 10.0.5) date 2026-10-10 13:59:52*
%MOMM*%
%LPD*%
G01*
G04 APERTURE LIST*
G04 Aperture macros list*
%AMRoundRect*
0 Rectangle with rounded corners*
0 $1 Rounding radius*
0 $2 $3 $4 $5 $6 $7 $8 $9 X,Y pos of 4 corners*
0 Add a 4 corners polygon primitive as box body*
4,1,4,$2,$3,$4,$5,$6,$7,$8,$9,$2,$3,0*
0 Add four circle primitives for the rounded corners*
1,1,$1+$1,$2,$3*
1,1,$1+$1,$4,$5*
1,1,$1+$1,$6,$7*
1,1,$1+$1,$8,$9*
0 Add four rect primitives between the rounded corners*
20,1,$1+$1,$2,$3,$4,$5,0*
20,1,$1+$1,$4,$5,$6,$7,0*
20,1,$1+$1,$6,$7,$8,$9,0*
20,1,$1+$1,$8,$9,$2,$3,0*%
G04 Aperture macros list end*
%ADD10R,0.750000X0.800000*%
%ADD11RoundRect,0.112500X0.262500X0.287500X-0.262500X0.287500X-0.262500X-0.287500X0.262500X-0.287500X0*%
G04 APERTURE END LIST*
D10*
%TO.C,D135*%
X80355000Y-59260000D03*
D11*
X78805000Y-59260000D03*
%TD*%
D10*
%TO.C,D360*%
X93055000Y-87200000D03*
D11*
X91505000Y-87200000D03*
%TD*%
D10*
%TO.C,D315*%
X80355000Y-82120000D03*
D11*
X78805000Y-82120000D03*
%TD*%
D10*
%TO.C,D231*%
X70195000Y-71960000D03*
D11*
X68645000Y-71960000D03*
%TD*%
D10*
%TO.C,D144*%
X52415000Y-61800000D03*
D11*
X50865000Y-61800000D03*
%TD*%
D10*
%TO.C,D17*%
X85435000Y-44020000D03*
D11*
X83885000Y-44020000D03*
%TD*%
D10*
%TO.C,D318*%
X87975000Y-82120000D03*
D11*
X86425000Y-82120000D03*
%TD*%
D10*
%TO.C,D25*%
X54955000Y-46560000D03*
D11*
X53405000Y-46560000D03*
%TD*%
D10*
%TO.C,D23*%
X49875000Y-46560000D03*
D11*
X48325000Y-46560000D03*
%TD*%
D10*
%TO.C,D387*%
X60035000Y-92280000D03*
D11*
X58485000Y-92280000D03*
%TD*%
D10*
%TO.C,D218*%
X87975000Y-69420000D03*
D11*
X86425000Y-69420000D03*
%TD*%
D10*
%TO.C,D76*%
X82895000Y-51640000D03*
D11*
X81345000Y-51640000D03*
%TD*%
D10*
%TO.C,D20*%
X93055000Y-44020000D03*
D11*
X91505000Y-44020000D03*
%TD*%
D10*
%TO.C,D57*%
X85435000Y-49100000D03*
D11*
X83885000Y-49100000D03*
%TD*%
D10*
%TO.C,D234*%
X77815000Y-71960000D03*
D11*
X76265000Y-71960000D03*
%TD*%
D10*
%TO.C,D11*%
X70195000Y-44020000D03*
D11*
X68645000Y-44020000D03*
%TD*%
D10*
%TO.C,D381*%
X44795000Y-92280000D03*
D11*
X43245000Y-92280000D03*
%TD*%
D10*
%TO.C,D205*%
X54955000Y-69420000D03*
D11*
X53405000Y-69420000D03*
%TD*%
D10*
%TO.C,D359*%
X90515000Y-87200000D03*
D11*
X88965000Y-87200000D03*
%TD*%
D10*
%TO.C,D92*%
X72735000Y-54180000D03*
D11*
X71185000Y-54180000D03*
%TD*%
D10*
%TO.C,D290*%
X67655000Y-79580000D03*
D11*
X66105000Y-79580000D03*
%TD*%
D10*
%TO.C,D46*%
X57495000Y-49100000D03*
D11*
X55945000Y-49100000D03*
%TD*%
D10*
%TO.C,D355*%
X80355000Y-87200000D03*
D11*
X78805000Y-87200000D03*
%TD*%
D10*
%TO.C,D264*%
X52415000Y-77040000D03*
D11*
X50865000Y-77040000D03*
%TD*%
D10*
%TO.C,D127*%
X60035000Y-59260000D03*
D11*
X58485000Y-59260000D03*
%TD*%
D10*
%TO.C,D294*%
X77815000Y-79580000D03*
D11*
X76265000Y-79580000D03*
%TD*%
D10*
%TO.C,D70*%
X67655000Y-51640000D03*
D11*
X66105000Y-51640000D03*
%TD*%
D10*
%TO.C,D327*%
X60035000Y-84660000D03*
D11*
X58485000Y-84660000D03*
%TD*%
D10*
%TO.C,D273*%
X75275000Y-77040000D03*
D11*
X73725000Y-77040000D03*
%TD*%
D10*
%TO.C,D33*%
X75275000Y-46560000D03*
D11*
X73725000Y-46560000D03*
%TD*%
D10*
%TO.C,D313*%
X75275000Y-82120000D03*
D11*
X73725000Y-82120000D03*
%TD*%
D10*
%TO.C,D298*%
X87975000Y-79580000D03*
D11*
X86425000Y-79580000D03*
%TD*%
D10*
%TO.C,D206*%
X57495000Y-69420000D03*
D11*
X55945000Y-69420000D03*
%TD*%
D10*
%TO.C,D366*%
X57495000Y-89740000D03*
D11*
X55945000Y-89740000D03*
%TD*%
D10*
%TO.C,D29*%
X65115000Y-46560000D03*
D11*
X63565000Y-46560000D03*
%TD*%
D10*
%TO.C,D350*%
X67655000Y-87200000D03*
D11*
X66105000Y-87200000D03*
%TD*%
D10*
%TO.C,D21*%
X44795000Y-46560000D03*
D11*
X43245000Y-46560000D03*
%TD*%
D10*
%TO.C,D338*%
X87975000Y-84660000D03*
D11*
X86425000Y-84660000D03*
%TD*%
D10*
%TO.C,D277*%
X85435000Y-77040000D03*
D11*
X83885000Y-77040000D03*
%TD*%
D10*
%TO.C,D153*%
X75275000Y-61800000D03*
D11*
X73725000Y-61800000D03*
%TD*%
D10*
%TO.C,D103*%
X49875000Y-56720000D03*
D11*
X48325000Y-56720000D03*
%TD*%
D10*
%TO.C,D310*%
X67655000Y-82120000D03*
D11*
X66105000Y-82120000D03*
%TD*%
D10*
%TO.C,D329*%
X65115000Y-84660000D03*
D11*
X63565000Y-84660000D03*
%TD*%
D10*
%TO.C,D186*%
X57495000Y-66880000D03*
D11*
X55945000Y-66880000D03*
%TD*%
D10*
%TO.C,D314*%
X77815000Y-82120000D03*
D11*
X76265000Y-82120000D03*
%TD*%
D10*
%TO.C,D83*%
X49875000Y-54180000D03*
D11*
X48325000Y-54180000D03*
%TD*%
D10*
%TO.C,D114*%
X77815000Y-56720000D03*
D11*
X76265000Y-56720000D03*
%TD*%
D10*
%TO.C,D222*%
X47335000Y-71960000D03*
D11*
X45785000Y-71960000D03*
%TD*%
D10*
%TO.C,D345*%
X54955000Y-87200000D03*
D11*
X53405000Y-87200000D03*
%TD*%
D10*
%TO.C,D123*%
X49875000Y-59260000D03*
D11*
X48325000Y-59260000D03*
%TD*%
D10*
%TO.C,D239*%
X90515000Y-71960000D03*
D11*
X88965000Y-71960000D03*
%TD*%
D10*
%TO.C,D34*%
X77815000Y-46560000D03*
D11*
X76265000Y-46560000D03*
%TD*%
D10*
%TO.C,D192*%
X72735000Y-66880000D03*
D11*
X71185000Y-66880000D03*
%TD*%
D10*
%TO.C,D166*%
X57495000Y-64340000D03*
D11*
X55945000Y-64340000D03*
%TD*%
D10*
%TO.C,D151*%
X70195000Y-61800000D03*
D11*
X68645000Y-61800000D03*
%TD*%
D10*
%TO.C,D119*%
X90515000Y-56720000D03*
D11*
X88965000Y-56720000D03*
%TD*%
D10*
%TO.C,D371*%
X70195000Y-89740000D03*
D11*
X68645000Y-89740000D03*
%TD*%
D10*
%TO.C,D161*%
X44795000Y-64340000D03*
D11*
X43245000Y-64340000D03*
%TD*%
D10*
%TO.C,D262*%
X47335000Y-77040000D03*
D11*
X45785000Y-77040000D03*
%TD*%
D10*
%TO.C,D40*%
X93055000Y-46560000D03*
D11*
X91505000Y-46560000D03*
%TD*%
D10*
%TO.C,D52*%
X72735000Y-49100000D03*
D11*
X71185000Y-49100000D03*
%TD*%
D10*
%TO.C,D201*%
X44795000Y-69420000D03*
D11*
X43245000Y-69420000D03*
%TD*%
D10*
%TO.C,D175*%
X80355000Y-64340000D03*
D11*
X78805000Y-64340000D03*
%TD*%
D10*
%TO.C,D238*%
X87975000Y-71960000D03*
D11*
X86425000Y-71960000D03*
%TD*%
D10*
%TO.C,D283*%
X49875000Y-79580000D03*
D11*
X48325000Y-79580000D03*
%TD*%
D10*
%TO.C,D49*%
X65115000Y-49100000D03*
D11*
X63565000Y-49100000D03*
%TD*%
D10*
%TO.C,D41*%
X44795000Y-49100000D03*
D11*
X43245000Y-49100000D03*
%TD*%
D10*
%TO.C,D341*%
X44795000Y-87200000D03*
D11*
X43245000Y-87200000D03*
%TD*%
D10*
%TO.C,D150*%
X67655000Y-61800000D03*
D11*
X66105000Y-61800000D03*
%TD*%
D10*
%TO.C,D141*%
X44795000Y-61800000D03*
D11*
X43245000Y-61800000D03*
%TD*%
D10*
%TO.C,D253*%
X75275000Y-74500000D03*
D11*
X73725000Y-74500000D03*
%TD*%
D10*
%TO.C,D91*%
X70195000Y-54180000D03*
D11*
X68645000Y-54180000D03*
%TD*%
D10*
%TO.C,D142*%
X47335000Y-61800000D03*
D11*
X45785000Y-61800000D03*
%TD*%
D10*
%TO.C,D58*%
X87975000Y-49100000D03*
D11*
X86425000Y-49100000D03*
%TD*%
D10*
%TO.C,D15*%
X80355000Y-44020000D03*
D11*
X78805000Y-44020000D03*
%TD*%
D10*
%TO.C,D131*%
X70195000Y-59260000D03*
D11*
X68645000Y-59260000D03*
%TD*%
D10*
%TO.C,D249*%
X65115000Y-74500000D03*
D11*
X63565000Y-74500000D03*
%TD*%
D10*
%TO.C,D296*%
X82895000Y-79580000D03*
D11*
X81345000Y-79580000D03*
%TD*%
D10*
%TO.C,D122*%
X47335000Y-59260000D03*
D11*
X45785000Y-59260000D03*
%TD*%
D10*
%TO.C,D311*%
X70195000Y-82120000D03*
D11*
X68645000Y-82120000D03*
%TD*%
D10*
%TO.C,D267*%
X60035000Y-77040000D03*
D11*
X58485000Y-77040000D03*
%TD*%
D10*
%TO.C,D258*%
X87975000Y-74500000D03*
D11*
X86425000Y-74500000D03*
%TD*%
D10*
%TO.C,D163*%
X49875000Y-64340000D03*
D11*
X48325000Y-64340000D03*
%TD*%
D10*
%TO.C,D157*%
X85435000Y-61800000D03*
D11*
X83885000Y-61800000D03*
%TD*%
D10*
%TO.C,D389*%
X65115000Y-92280000D03*
D11*
X63565000Y-92280000D03*
%TD*%
D10*
%TO.C,D211*%
X70195000Y-69420000D03*
D11*
X68645000Y-69420000D03*
%TD*%
D10*
%TO.C,D104*%
X52415000Y-56720000D03*
D11*
X50865000Y-56720000D03*
%TD*%
D10*
%TO.C,D256*%
X82895000Y-74500000D03*
D11*
X81345000Y-74500000D03*
%TD*%
D10*
%TO.C,D64*%
X52415000Y-51640000D03*
D11*
X50865000Y-51640000D03*
%TD*%
D10*
%TO.C,D53*%
X75275000Y-49100000D03*
D11*
X73725000Y-49100000D03*
%TD*%
D10*
%TO.C,D8*%
X62575000Y-44020000D03*
D11*
X61025000Y-44020000D03*
%TD*%
D10*
%TO.C,D297*%
X85435000Y-79580000D03*
D11*
X83885000Y-79580000D03*
%TD*%
D10*
%TO.C,D1*%
X44795000Y-44020000D03*
D11*
X43245000Y-44020000D03*
%TD*%
D10*
%TO.C,D379*%
X90515000Y-89740000D03*
D11*
X88965000Y-89740000D03*
%TD*%
D10*
%TO.C,D48*%
X62575000Y-49100000D03*
D11*
X61025000Y-49100000D03*
%TD*%
D10*
%TO.C,D356*%
X82895000Y-87200000D03*
D11*
X81345000Y-87200000D03*
%TD*%
D10*
%TO.C,D67*%
X60035000Y-51640000D03*
D11*
X58485000Y-51640000D03*
%TD*%
D10*
%TO.C,D80*%
X93055000Y-51640000D03*
D11*
X91505000Y-51640000D03*
%TD*%
D10*
%TO.C,D24*%
X52415000Y-46560000D03*
D11*
X50865000Y-46560000D03*
%TD*%
D10*
%TO.C,D138*%
X87975000Y-59260000D03*
D11*
X86425000Y-59260000D03*
%TD*%
D10*
%TO.C,D300*%
X93055000Y-79580000D03*
D11*
X91505000Y-79580000D03*
%TD*%
D10*
%TO.C,D95*%
X80355000Y-54180000D03*
D11*
X78805000Y-54180000D03*
%TD*%
D10*
%TO.C,D190*%
X67655000Y-66880000D03*
D11*
X66105000Y-66880000D03*
%TD*%
D10*
%TO.C,D380*%
X93055000Y-89740000D03*
D11*
X91505000Y-89740000D03*
%TD*%
D10*
%TO.C,D173*%
X75275000Y-64340000D03*
D11*
X73725000Y-64340000D03*
%TD*%
D10*
%TO.C,D386*%
X57495000Y-92280000D03*
D11*
X55945000Y-92280000D03*
%TD*%
D10*
%TO.C,D105*%
X54955000Y-56720000D03*
D11*
X53405000Y-56720000D03*
%TD*%
D10*
%TO.C,D13*%
X75275000Y-44020000D03*
D11*
X73725000Y-44020000D03*
%TD*%
D10*
%TO.C,D214*%
X77815000Y-69420000D03*
D11*
X76265000Y-69420000D03*
%TD*%
D10*
%TO.C,D321*%
X44795000Y-84660000D03*
D11*
X43245000Y-84660000D03*
%TD*%
D10*
%TO.C,D374*%
X77815000Y-89740000D03*
D11*
X76265000Y-89740000D03*
%TD*%
D10*
%TO.C,D145*%
X54955000Y-61800000D03*
D11*
X53405000Y-61800000D03*
%TD*%
D10*
%TO.C,D30*%
X67655000Y-46560000D03*
D11*
X66105000Y-46560000D03*
%TD*%
D10*
%TO.C,D217*%
X85435000Y-69420000D03*
D11*
X83885000Y-69420000D03*
%TD*%
D10*
%TO.C,D388*%
X62575000Y-92280000D03*
D11*
X61025000Y-92280000D03*
%TD*%
D10*
%TO.C,D336*%
X82895000Y-84660000D03*
D11*
X81345000Y-84660000D03*
%TD*%
D10*
%TO.C,D254*%
X77815000Y-74500000D03*
D11*
X76265000Y-74500000D03*
%TD*%
D10*
%TO.C,D36*%
X82895000Y-46560000D03*
D11*
X81345000Y-46560000D03*
%TD*%
D10*
%TO.C,D304*%
X52415000Y-82120000D03*
D11*
X50865000Y-82120000D03*
%TD*%
D10*
%TO.C,D177*%
X85435000Y-64340000D03*
D11*
X83885000Y-64340000D03*
%TD*%
D10*
%TO.C,D148*%
X62575000Y-61800000D03*
D11*
X61025000Y-61800000D03*
%TD*%
D10*
%TO.C,D269*%
X65115000Y-77040000D03*
D11*
X63565000Y-77040000D03*
%TD*%
D10*
%TO.C,D107*%
X60035000Y-56720000D03*
D11*
X58485000Y-56720000D03*
%TD*%
D10*
%TO.C,D90*%
X67655000Y-54180000D03*
D11*
X66105000Y-54180000D03*
%TD*%
D10*
%TO.C,D270*%
X67655000Y-77040000D03*
D11*
X66105000Y-77040000D03*
%TD*%
D10*
%TO.C,D54*%
X77815000Y-49100000D03*
D11*
X76265000Y-49100000D03*
%TD*%
D10*
%TO.C,D126*%
X57495000Y-59260000D03*
D11*
X55945000Y-59260000D03*
%TD*%
D10*
%TO.C,D124*%
X52415000Y-59260000D03*
D11*
X50865000Y-59260000D03*
%TD*%
D10*
%TO.C,D235*%
X80355000Y-71960000D03*
D11*
X78805000Y-71960000D03*
%TD*%
D10*
%TO.C,D61*%
X44795000Y-51640000D03*
D11*
X43245000Y-51640000D03*
%TD*%
D10*
%TO.C,D286*%
X57495000Y-79580000D03*
D11*
X55945000Y-79580000D03*
%TD*%
D10*
%TO.C,D197*%
X85435000Y-66880000D03*
D11*
X83885000Y-66880000D03*
%TD*%
D10*
%TO.C,D227*%
X60035000Y-71960000D03*
D11*
X58485000Y-71960000D03*
%TD*%
D10*
%TO.C,D263*%
X49875000Y-77040000D03*
D11*
X48325000Y-77040000D03*
%TD*%
D10*
%TO.C,D22*%
X47335000Y-46560000D03*
D11*
X45785000Y-46560000D03*
%TD*%
D10*
%TO.C,D295*%
X80355000Y-79580000D03*
D11*
X78805000Y-79580000D03*
%TD*%
D10*
%TO.C,D88*%
X62575000Y-54180000D03*
D11*
X61025000Y-54180000D03*
%TD*%
D10*
%TO.C,D5*%
X54955000Y-44020000D03*
D11*
X53405000Y-44020000D03*
%TD*%
D10*
%TO.C,D372*%
X72735000Y-89740000D03*
D11*
X71185000Y-89740000D03*
%TD*%
D10*
%TO.C,D47*%
X60035000Y-49100000D03*
D11*
X58485000Y-49100000D03*
%TD*%
D10*
%TO.C,D101*%
X44795000Y-56720000D03*
D11*
X43245000Y-56720000D03*
%TD*%
D10*
%TO.C,D233*%
X75275000Y-71960000D03*
D11*
X73725000Y-71960000D03*
%TD*%
D10*
%TO.C,D208*%
X62575000Y-69420000D03*
D11*
X61025000Y-69420000D03*
%TD*%
D10*
%TO.C,D287*%
X60035000Y-79580000D03*
D11*
X58485000Y-79580000D03*
%TD*%
D10*
%TO.C,D50*%
X67655000Y-49100000D03*
D11*
X66105000Y-49100000D03*
%TD*%
D10*
%TO.C,D200*%
X93055000Y-66880000D03*
D11*
X91505000Y-66880000D03*
%TD*%
D10*
%TO.C,D324*%
X52415000Y-84660000D03*
D11*
X50865000Y-84660000D03*
%TD*%
D10*
%TO.C,D115*%
X80355000Y-56720000D03*
D11*
X78805000Y-56720000D03*
%TD*%
D10*
%TO.C,D289*%
X65115000Y-79580000D03*
D11*
X63565000Y-79580000D03*
%TD*%
D10*
%TO.C,D391*%
X70195000Y-92280000D03*
D11*
X68645000Y-92280000D03*
%TD*%
D10*
%TO.C,D89*%
X65115000Y-54180000D03*
D11*
X63565000Y-54180000D03*
%TD*%
D10*
%TO.C,D358*%
X87975000Y-87200000D03*
D11*
X86425000Y-87200000D03*
%TD*%
D10*
%TO.C,D160*%
X93055000Y-61800000D03*
D11*
X91505000Y-61800000D03*
%TD*%
D10*
%TO.C,D274*%
X77815000Y-77040000D03*
D11*
X76265000Y-77040000D03*
%TD*%
D10*
%TO.C,D14*%
X77815000Y-44020000D03*
D11*
X76265000Y-44020000D03*
%TD*%
D10*
%TO.C,D181*%
X44795000Y-66880000D03*
D11*
X43245000Y-66880000D03*
%TD*%
D10*
%TO.C,D229*%
X65115000Y-71960000D03*
D11*
X63565000Y-71960000D03*
%TD*%
D10*
%TO.C,D397*%
X85435000Y-92280000D03*
D11*
X83885000Y-92280000D03*
%TD*%
D10*
%TO.C,D172*%
X72735000Y-64340000D03*
D11*
X71185000Y-64340000D03*
%TD*%
D10*
%TO.C,D38*%
X87975000Y-46560000D03*
D11*
X86425000Y-46560000D03*
%TD*%
D10*
%TO.C,D305*%
X54955000Y-82120000D03*
D11*
X53405000Y-82120000D03*
%TD*%
D10*
%TO.C,D312*%
X72735000Y-82120000D03*
D11*
X71185000Y-82120000D03*
%TD*%
D10*
%TO.C,D159*%
X90515000Y-61800000D03*
D11*
X88965000Y-61800000D03*
%TD*%
D10*
%TO.C,D268*%
X62575000Y-77040000D03*
D11*
X61025000Y-77040000D03*
%TD*%
D10*
%TO.C,D121*%
X44795000Y-59260000D03*
D11*
X43245000Y-59260000D03*
%TD*%
D10*
%TO.C,D94*%
X77815000Y-54180000D03*
D11*
X76265000Y-54180000D03*
%TD*%
D10*
%TO.C,D99*%
X90515000Y-54180000D03*
D11*
X88965000Y-54180000D03*
%TD*%
D10*
%TO.C,D203*%
X49875000Y-69420000D03*
D11*
X48325000Y-69420000D03*
%TD*%
D10*
%TO.C,D346*%
X57495000Y-87200000D03*
D11*
X55945000Y-87200000D03*
%TD*%
D10*
%TO.C,D156*%
X82895000Y-61800000D03*
D11*
X81345000Y-61800000D03*
%TD*%
D10*
%TO.C,D2*%
X47335000Y-44020000D03*
D11*
X45785000Y-44020000D03*
%TD*%
D10*
%TO.C,D335*%
X80355000Y-84660000D03*
D11*
X78805000Y-84660000D03*
%TD*%
D10*
%TO.C,D113*%
X75275000Y-56720000D03*
D11*
X73725000Y-56720000D03*
%TD*%
D10*
%TO.C,D363*%
X49875000Y-89740000D03*
D11*
X48325000Y-89740000D03*
%TD*%
D10*
%TO.C,D77*%
X85435000Y-51640000D03*
D11*
X83885000Y-51640000D03*
%TD*%
D10*
%TO.C,D288*%
X62575000Y-79580000D03*
D11*
X61025000Y-79580000D03*
%TD*%
D10*
%TO.C,D169*%
X65115000Y-64340000D03*
D11*
X63565000Y-64340000D03*
%TD*%
D10*
%TO.C,D71*%
X70195000Y-51640000D03*
D11*
X68645000Y-51640000D03*
%TD*%
D10*
%TO.C,D120*%
X93055000Y-56720000D03*
D11*
X91505000Y-56720000D03*
%TD*%
D10*
%TO.C,D266*%
X57495000Y-77040000D03*
D11*
X55945000Y-77040000D03*
%TD*%
D10*
%TO.C,D230*%
X67655000Y-71960000D03*
D11*
X66105000Y-71960000D03*
%TD*%
D10*
%TO.C,D43*%
X49875000Y-49100000D03*
D11*
X48325000Y-49100000D03*
%TD*%
D10*
%TO.C,D93*%
X75275000Y-54180000D03*
D11*
X73725000Y-54180000D03*
%TD*%
D10*
%TO.C,D368*%
X62575000Y-89740000D03*
D11*
X61025000Y-89740000D03*
%TD*%
D10*
%TO.C,D293*%
X75275000Y-79580000D03*
D11*
X73725000Y-79580000D03*
%TD*%
D10*
%TO.C,D109*%
X65115000Y-56720000D03*
D11*
X63565000Y-56720000D03*
%TD*%
D10*
%TO.C,D98*%
X87975000Y-54180000D03*
D11*
X86425000Y-54180000D03*
%TD*%
D10*
%TO.C,D185*%
X54955000Y-66880000D03*
D11*
X53405000Y-66880000D03*
%TD*%
D10*
%TO.C,D396*%
X82895000Y-92280000D03*
D11*
X81345000Y-92280000D03*
%TD*%
D10*
%TO.C,D291*%
X70195000Y-79580000D03*
D11*
X68645000Y-79580000D03*
%TD*%
D10*
%TO.C,D75*%
X80355000Y-51640000D03*
D11*
X78805000Y-51640000D03*
%TD*%
D10*
%TO.C,D149*%
X65115000Y-61800000D03*
D11*
X63565000Y-61800000D03*
%TD*%
D10*
%TO.C,D328*%
X62575000Y-84660000D03*
D11*
X61025000Y-84660000D03*
%TD*%
D10*
%TO.C,D343*%
X49875000Y-87200000D03*
D11*
X48325000Y-87200000D03*
%TD*%
D10*
%TO.C,D400*%
X93055000Y-92280000D03*
D11*
X91505000Y-92280000D03*
%TD*%
D10*
%TO.C,D137*%
X85435000Y-59260000D03*
D11*
X83885000Y-59260000D03*
%TD*%
D10*
%TO.C,D257*%
X85435000Y-74500000D03*
D11*
X83885000Y-74500000D03*
%TD*%
D10*
%TO.C,D35*%
X80355000Y-46560000D03*
D11*
X78805000Y-46560000D03*
%TD*%
D10*
%TO.C,D31*%
X70195000Y-46560000D03*
D11*
X68645000Y-46560000D03*
%TD*%
D10*
%TO.C,D325*%
X54955000Y-84660000D03*
D11*
X53405000Y-84660000D03*
%TD*%
D10*
%TO.C,D117*%
X85435000Y-56720000D03*
D11*
X83885000Y-56720000D03*
%TD*%
D10*
%TO.C,D307*%
X60035000Y-82120000D03*
D11*
X58485000Y-82120000D03*
%TD*%
D10*
%TO.C,D65*%
X54955000Y-51640000D03*
D11*
X53405000Y-51640000D03*
%TD*%
D10*
%TO.C,D12*%
X72735000Y-44020000D03*
D11*
X71185000Y-44020000D03*
%TD*%
D10*
%TO.C,D340*%
X93055000Y-84660000D03*
D11*
X91505000Y-84660000D03*
%TD*%
D10*
%TO.C,D392*%
X72735000Y-92280000D03*
D11*
X71185000Y-92280000D03*
%TD*%
D10*
%TO.C,D63*%
X49875000Y-51640000D03*
D11*
X48325000Y-51640000D03*
%TD*%
D10*
%TO.C,D198*%
X87975000Y-66880000D03*
D11*
X86425000Y-66880000D03*
%TD*%
D10*
%TO.C,D73*%
X75275000Y-51640000D03*
D11*
X73725000Y-51640000D03*
%TD*%
D10*
%TO.C,D154*%
X77815000Y-61800000D03*
D11*
X76265000Y-61800000D03*
%TD*%
D10*
%TO.C,D241*%
X44795000Y-74500000D03*
D11*
X43245000Y-74500000D03*
%TD*%
D10*
%TO.C,D272*%
X72735000Y-77040000D03*
D11*
X71185000Y-77040000D03*
%TD*%
D10*
%TO.C,D365*%
X54955000Y-89740000D03*
D11*
X53405000Y-89740000D03*
%TD*%
D10*
%TO.C,D245*%
X54955000Y-74500000D03*
D11*
X53405000Y-74500000D03*
%TD*%
D10*
%TO.C,D284*%
X52415000Y-79580000D03*
D11*
X50865000Y-79580000D03*
%TD*%
D10*
%TO.C,D370*%
X67655000Y-89740000D03*
D11*
X66105000Y-89740000D03*
%TD*%
D10*
%TO.C,D140*%
X93055000Y-59260000D03*
D11*
X91505000Y-59260000D03*
%TD*%
D10*
%TO.C,D196*%
X82895000Y-66880000D03*
D11*
X81345000Y-66880000D03*
%TD*%
D10*
%TO.C,D285*%
X54955000Y-79580000D03*
D11*
X53405000Y-79580000D03*
%TD*%
D10*
%TO.C,D28*%
X62575000Y-46560000D03*
D11*
X61025000Y-46560000D03*
%TD*%
D10*
%TO.C,D16*%
X82895000Y-44020000D03*
D11*
X81345000Y-44020000D03*
%TD*%
D10*
%TO.C,D32*%
X72735000Y-46560000D03*
D11*
X71185000Y-46560000D03*
%TD*%
D10*
%TO.C,D334*%
X77815000Y-84660000D03*
D11*
X76265000Y-84660000D03*
%TD*%
D10*
%TO.C,D168*%
X62575000Y-64340000D03*
D11*
X61025000Y-64340000D03*
%TD*%
D10*
%TO.C,D128*%
X62575000Y-59260000D03*
D11*
X61025000Y-59260000D03*
%TD*%
D10*
%TO.C,D82*%
X47335000Y-54180000D03*
D11*
X45785000Y-54180000D03*
%TD*%
D10*
%TO.C,D248*%
X62575000Y-74500000D03*
D11*
X61025000Y-74500000D03*
%TD*%
D10*
%TO.C,D339*%
X90515000Y-84660000D03*
D11*
X88965000Y-84660000D03*
%TD*%
D10*
%TO.C,D193*%
X75275000Y-66880000D03*
D11*
X73725000Y-66880000D03*
%TD*%
D10*
%TO.C,D3*%
X49875000Y-44020000D03*
D11*
X48325000Y-44020000D03*
%TD*%
D10*
%TO.C,D383*%
X49875000Y-92280000D03*
D11*
X48325000Y-92280000D03*
%TD*%
D10*
%TO.C,D10*%
X67655000Y-44020000D03*
D11*
X66105000Y-44020000D03*
%TD*%
D10*
%TO.C,D349*%
X65115000Y-87200000D03*
D11*
X63565000Y-87200000D03*
%TD*%
D10*
%TO.C,D344*%
X52415000Y-87200000D03*
D11*
X50865000Y-87200000D03*
%TD*%
D10*
%TO.C,D194*%
X77815000Y-66880000D03*
D11*
X76265000Y-66880000D03*
%TD*%
D10*
%TO.C,D4*%
X52415000Y-44020000D03*
D11*
X50865000Y-44020000D03*
%TD*%
D10*
%TO.C,D42*%
X47335000Y-49100000D03*
D11*
X45785000Y-49100000D03*
%TD*%
D10*
%TO.C,D18*%
X87975000Y-44020000D03*
D11*
X86425000Y-44020000D03*
%TD*%
D10*
%TO.C,D398*%
X87975000Y-92280000D03*
D11*
X86425000Y-92280000D03*
%TD*%
D10*
%TO.C,D81*%
X44795000Y-54180000D03*
D11*
X43245000Y-54180000D03*
%TD*%
D10*
%TO.C,D85*%
X54955000Y-54180000D03*
D11*
X53405000Y-54180000D03*
%TD*%
D10*
%TO.C,D373*%
X75275000Y-89740000D03*
D11*
X73725000Y-89740000D03*
%TD*%
D10*
%TO.C,D252*%
X72735000Y-74500000D03*
D11*
X71185000Y-74500000D03*
%TD*%
D10*
%TO.C,D112*%
X72735000Y-56720000D03*
D11*
X71185000Y-56720000D03*
%TD*%
D10*
%TO.C,D215*%
X80355000Y-69420000D03*
D11*
X78805000Y-69420000D03*
%TD*%
D10*
%TO.C,D86*%
X57495000Y-54180000D03*
D11*
X55945000Y-54180000D03*
%TD*%
D10*
%TO.C,D84*%
X52415000Y-54180000D03*
D11*
X50865000Y-54180000D03*
%TD*%
D10*
%TO.C,D188*%
X62575000Y-66880000D03*
D11*
X61025000Y-66880000D03*
%TD*%
D10*
%TO.C,D191*%
X70195000Y-66880000D03*
D11*
X68645000Y-66880000D03*
%TD*%
D10*
%TO.C,D246*%
X57495000Y-74500000D03*
D11*
X55945000Y-74500000D03*
%TD*%
D10*
%TO.C,D280*%
X93055000Y-77040000D03*
D11*
X91505000Y-77040000D03*
%TD*%
D10*
%TO.C,D361*%
X44795000Y-89740000D03*
D11*
X43245000Y-89740000D03*
%TD*%
D10*
%TO.C,D158*%
X87975000Y-61800000D03*
D11*
X86425000Y-61800000D03*
%TD*%
D10*
%TO.C,D376*%
X82895000Y-89740000D03*
D11*
X81345000Y-89740000D03*
%TD*%
D10*
%TO.C,D78*%
X87975000Y-51640000D03*
D11*
X86425000Y-51640000D03*
%TD*%
D10*
%TO.C,D6*%
X57495000Y-44020000D03*
D11*
X55945000Y-44020000D03*
%TD*%
D10*
%TO.C,D301*%
X44795000Y-82120000D03*
D11*
X43245000Y-82120000D03*
%TD*%
D10*
%TO.C,D184*%
X52415000Y-66880000D03*
D11*
X50865000Y-66880000D03*
%TD*%
D10*
%TO.C,D394*%
X77815000Y-92280000D03*
D11*
X76265000Y-92280000D03*
%TD*%
D10*
%TO.C,D255*%
X80355000Y-74500000D03*
D11*
X78805000Y-74500000D03*
%TD*%
D10*
%TO.C,D306*%
X57495000Y-82120000D03*
D11*
X55945000Y-82120000D03*
%TD*%
D10*
%TO.C,D282*%
X47335000Y-79580000D03*
D11*
X45785000Y-79580000D03*
%TD*%
D10*
%TO.C,D265*%
X54955000Y-77040000D03*
D11*
X53405000Y-77040000D03*
%TD*%
D10*
%TO.C,D223*%
X49875000Y-71960000D03*
D11*
X48325000Y-71960000D03*
%TD*%
D10*
%TO.C,D26*%
X57495000Y-46560000D03*
D11*
X55945000Y-46560000D03*
%TD*%
D10*
%TO.C,D395*%
X80355000Y-92280000D03*
D11*
X78805000Y-92280000D03*
%TD*%
D10*
%TO.C,D189*%
X65115000Y-66880000D03*
D11*
X63565000Y-66880000D03*
%TD*%
D10*
%TO.C,D378*%
X87975000Y-89740000D03*
D11*
X86425000Y-89740000D03*
%TD*%
D10*
%TO.C,D353*%
X75275000Y-87200000D03*
D11*
X73725000Y-87200000D03*
%TD*%
D10*
%TO.C,D178*%
X87975000Y-64340000D03*
D11*
X86425000Y-64340000D03*
%TD*%
D10*
%TO.C,D116*%
X82895000Y-56720000D03*
D11*
X81345000Y-56720000D03*
%TD*%
D10*
%TO.C,D225*%
X54955000Y-71960000D03*
D11*
X53405000Y-71960000D03*
%TD*%
D10*
%TO.C,D342*%
X47335000Y-87200000D03*
D11*
X45785000Y-87200000D03*
%TD*%
D10*
%TO.C,D364*%
X52415000Y-89740000D03*
D11*
X50865000Y-89740000D03*
%TD*%
D10*
%TO.C,D393*%
X75275000Y-92280000D03*
D11*
X73725000Y-92280000D03*
%TD*%
D10*
%TO.C,D299*%
X90515000Y-79580000D03*
D11*
X88965000Y-79580000D03*
%TD*%
D10*
%TO.C,D68*%
X62575000Y-51640000D03*
D11*
X61025000Y-51640000D03*
%TD*%
D10*
%TO.C,D9*%
X65115000Y-44020000D03*
D11*
X63565000Y-44020000D03*
%TD*%
D10*
%TO.C,D237*%
X85435000Y-71960000D03*
D11*
X83885000Y-71960000D03*
%TD*%
D10*
%TO.C,D59*%
X90515000Y-49100000D03*
D11*
X88965000Y-49100000D03*
%TD*%
D10*
%TO.C,D170*%
X67655000Y-64340000D03*
D11*
X66105000Y-64340000D03*
%TD*%
D10*
%TO.C,D333*%
X75275000Y-84660000D03*
D11*
X73725000Y-84660000D03*
%TD*%
D10*
%TO.C,D281*%
X44795000Y-79580000D03*
D11*
X43245000Y-79580000D03*
%TD*%
D10*
%TO.C,D354*%
X77815000Y-87200000D03*
D11*
X76265000Y-87200000D03*
%TD*%
D10*
%TO.C,D182*%
X47335000Y-66880000D03*
D11*
X45785000Y-66880000D03*
%TD*%
D10*
%TO.C,D110*%
X67655000Y-56720000D03*
D11*
X66105000Y-56720000D03*
%TD*%
D10*
%TO.C,D174*%
X77815000Y-64340000D03*
D11*
X76265000Y-64340000D03*
%TD*%
D10*
%TO.C,D100*%
X93055000Y-54180000D03*
D11*
X91505000Y-54180000D03*
%TD*%
D10*
%TO.C,D226*%
X57495000Y-71960000D03*
D11*
X55945000Y-71960000D03*
%TD*%
D10*
%TO.C,D326*%
X57495000Y-84660000D03*
D11*
X55945000Y-84660000D03*
%TD*%
D10*
%TO.C,D357*%
X85435000Y-87200000D03*
D11*
X83885000Y-87200000D03*
%TD*%
D10*
%TO.C,D224*%
X52415000Y-71960000D03*
D11*
X50865000Y-71960000D03*
%TD*%
D10*
%TO.C,D171*%
X70195000Y-64340000D03*
D11*
X68645000Y-64340000D03*
%TD*%
D10*
%TO.C,D183*%
X49875000Y-66880000D03*
D11*
X48325000Y-66880000D03*
%TD*%
D10*
%TO.C,D213*%
X75275000Y-69420000D03*
D11*
X73725000Y-69420000D03*
%TD*%
D10*
%TO.C,D348*%
X62575000Y-87200000D03*
D11*
X61025000Y-87200000D03*
%TD*%
D10*
%TO.C,D164*%
X52415000Y-64340000D03*
D11*
X50865000Y-64340000D03*
%TD*%
D10*
%TO.C,D74*%
X77815000Y-51640000D03*
D11*
X76265000Y-51640000D03*
%TD*%
D10*
%TO.C,D96*%
X82895000Y-54180000D03*
D11*
X81345000Y-54180000D03*
%TD*%
D10*
%TO.C,D118*%
X87975000Y-56720000D03*
D11*
X86425000Y-56720000D03*
%TD*%
D10*
%TO.C,D66*%
X57495000Y-51640000D03*
D11*
X55945000Y-51640000D03*
%TD*%
D10*
%TO.C,D132*%
X72735000Y-59260000D03*
D11*
X71185000Y-59260000D03*
%TD*%
D10*
%TO.C,D382*%
X47335000Y-92280000D03*
D11*
X45785000Y-92280000D03*
%TD*%
D10*
%TO.C,D276*%
X82895000Y-77040000D03*
D11*
X81345000Y-77040000D03*
%TD*%
D10*
%TO.C,D39*%
X90515000Y-46560000D03*
D11*
X88965000Y-46560000D03*
%TD*%
D10*
%TO.C,D202*%
X47335000Y-69420000D03*
D11*
X45785000Y-69420000D03*
%TD*%
D10*
%TO.C,D319*%
X90515000Y-82120000D03*
D11*
X88965000Y-82120000D03*
%TD*%
D10*
%TO.C,D102*%
X47335000Y-56720000D03*
D11*
X45785000Y-56720000D03*
%TD*%
D10*
%TO.C,D134*%
X77815000Y-59260000D03*
D11*
X76265000Y-59260000D03*
%TD*%
D10*
%TO.C,D155*%
X80355000Y-61800000D03*
D11*
X78805000Y-61800000D03*
%TD*%
D10*
%TO.C,D108*%
X62575000Y-56720000D03*
D11*
X61025000Y-56720000D03*
%TD*%
D10*
%TO.C,D236*%
X82895000Y-71960000D03*
D11*
X81345000Y-71960000D03*
%TD*%
D10*
%TO.C,D139*%
X90515000Y-59260000D03*
D11*
X88965000Y-59260000D03*
%TD*%
D10*
%TO.C,D187*%
X60035000Y-66880000D03*
D11*
X58485000Y-66880000D03*
%TD*%
D10*
%TO.C,D228*%
X62575000Y-71960000D03*
D11*
X61025000Y-71960000D03*
%TD*%
D10*
%TO.C,D69*%
X65115000Y-51640000D03*
D11*
X63565000Y-51640000D03*
%TD*%
D10*
%TO.C,D242*%
X47335000Y-74500000D03*
D11*
X45785000Y-74500000D03*
%TD*%
D10*
%TO.C,D147*%
X60035000Y-61800000D03*
D11*
X58485000Y-61800000D03*
%TD*%
D10*
%TO.C,D221*%
X44795000Y-71960000D03*
D11*
X43245000Y-71960000D03*
%TD*%
D10*
%TO.C,D377*%
X85435000Y-89740000D03*
D11*
X83885000Y-89740000D03*
%TD*%
D10*
%TO.C,D320*%
X93055000Y-82120000D03*
D11*
X91505000Y-82120000D03*
%TD*%
D10*
%TO.C,D44*%
X52415000Y-49100000D03*
D11*
X50865000Y-49100000D03*
%TD*%
D10*
%TO.C,D72*%
X72735000Y-51640000D03*
D11*
X71185000Y-51640000D03*
%TD*%
D10*
%TO.C,D243*%
X49875000Y-74500000D03*
D11*
X48325000Y-74500000D03*
%TD*%
D10*
%TO.C,D275*%
X80355000Y-77040000D03*
D11*
X78805000Y-77040000D03*
%TD*%
D10*
%TO.C,D330*%
X67655000Y-84660000D03*
D11*
X66105000Y-84660000D03*
%TD*%
D10*
%TO.C,D55*%
X80355000Y-49100000D03*
D11*
X78805000Y-49100000D03*
%TD*%
D10*
%TO.C,D133*%
X75275000Y-59260000D03*
D11*
X73725000Y-59260000D03*
%TD*%
D10*
%TO.C,D143*%
X49875000Y-61800000D03*
D11*
X48325000Y-61800000D03*
%TD*%
D10*
%TO.C,D204*%
X52415000Y-69420000D03*
D11*
X50865000Y-69420000D03*
%TD*%
D10*
%TO.C,D220*%
X93055000Y-69420000D03*
D11*
X91505000Y-69420000D03*
%TD*%
D10*
%TO.C,D247*%
X60035000Y-74500000D03*
D11*
X58485000Y-74500000D03*
%TD*%
D10*
%TO.C,D362*%
X47335000Y-89740000D03*
D11*
X45785000Y-89740000D03*
%TD*%
D10*
%TO.C,D209*%
X65115000Y-69420000D03*
D11*
X63565000Y-69420000D03*
%TD*%
D10*
%TO.C,D251*%
X70195000Y-74500000D03*
D11*
X68645000Y-74500000D03*
%TD*%
D10*
%TO.C,D292*%
X72735000Y-79580000D03*
D11*
X71185000Y-79580000D03*
%TD*%
D10*
%TO.C,D244*%
X52415000Y-74500000D03*
D11*
X50865000Y-74500000D03*
%TD*%
D10*
%TO.C,D111*%
X70195000Y-56720000D03*
D11*
X68645000Y-56720000D03*
%TD*%
D10*
%TO.C,D316*%
X82895000Y-82120000D03*
D11*
X81345000Y-82120000D03*
%TD*%
D10*
%TO.C,D385*%
X54955000Y-92280000D03*
D11*
X53405000Y-92280000D03*
%TD*%
D10*
%TO.C,D240*%
X93055000Y-71960000D03*
D11*
X91505000Y-71960000D03*
%TD*%
D10*
%TO.C,D308*%
X62575000Y-82120000D03*
D11*
X61025000Y-82120000D03*
%TD*%
D10*
%TO.C,D309*%
X65115000Y-82120000D03*
D11*
X63565000Y-82120000D03*
%TD*%
D10*
%TO.C,D56*%
X82895000Y-49100000D03*
D11*
X81345000Y-49100000D03*
%TD*%
D10*
%TO.C,D384*%
X52415000Y-92280000D03*
D11*
X50865000Y-92280000D03*
%TD*%
D10*
%TO.C,D337*%
X85435000Y-84660000D03*
D11*
X83885000Y-84660000D03*
%TD*%
D10*
%TO.C,D207*%
X60035000Y-69420000D03*
D11*
X58485000Y-69420000D03*
%TD*%
D10*
%TO.C,D87*%
X60035000Y-54180000D03*
D11*
X58485000Y-54180000D03*
%TD*%
D10*
%TO.C,D278*%
X87975000Y-77040000D03*
D11*
X86425000Y-77040000D03*
%TD*%
D10*
%TO.C,D146*%
X57495000Y-61800000D03*
D11*
X55945000Y-61800000D03*
%TD*%
D10*
%TO.C,D97*%
X85435000Y-54180000D03*
D11*
X83885000Y-54180000D03*
%TD*%
D10*
%TO.C,D332*%
X72735000Y-84660000D03*
D11*
X71185000Y-84660000D03*
%TD*%
D10*
%TO.C,D7*%
X60035000Y-44020000D03*
D11*
X58485000Y-44020000D03*
%TD*%
D10*
%TO.C,D136*%
X82895000Y-59260000D03*
D11*
X81345000Y-59260000D03*
%TD*%
D10*
%TO.C,D79*%
X90515000Y-51640000D03*
D11*
X88965000Y-51640000D03*
%TD*%
D10*
%TO.C,D152*%
X72735000Y-61800000D03*
D11*
X71185000Y-61800000D03*
%TD*%
D10*
%TO.C,D216*%
X82895000Y-69420000D03*
D11*
X81345000Y-69420000D03*
%TD*%
D10*
%TO.C,D369*%
X65115000Y-89740000D03*
D11*
X63565000Y-89740000D03*
%TD*%
D10*
%TO.C,D210*%
X67655000Y-69420000D03*
D11*
X66105000Y-69420000D03*
%TD*%
D10*
%TO.C,D390*%
X67655000Y-92280000D03*
D11*
X66105000Y-92280000D03*
%TD*%
D10*
%TO.C,D180*%
X93055000Y-64340000D03*
D11*
X91505000Y-64340000D03*
%TD*%
D10*
%TO.C,D347*%
X60035000Y-87200000D03*
D11*
X58485000Y-87200000D03*
%TD*%
D10*
%TO.C,D331*%
X70195000Y-84660000D03*
D11*
X68645000Y-84660000D03*
%TD*%
D10*
%TO.C,D322*%
X47335000Y-84660000D03*
D11*
X45785000Y-84660000D03*
%TD*%
D10*
%TO.C,D367*%
X60035000Y-89740000D03*
D11*
X58485000Y-89740000D03*
%TD*%
D10*
%TO.C,D165*%
X54955000Y-64340000D03*
D11*
X53405000Y-64340000D03*
%TD*%
D10*
%TO.C,D317*%
X85435000Y-82120000D03*
D11*
X83885000Y-82120000D03*
%TD*%
D10*
%TO.C,D62*%
X47335000Y-51640000D03*
D11*
X45785000Y-51640000D03*
%TD*%
D10*
%TO.C,D259*%
X90515000Y-74500000D03*
D11*
X88965000Y-74500000D03*
%TD*%
D10*
%TO.C,D212*%
X72735000Y-69420000D03*
D11*
X71185000Y-69420000D03*
%TD*%
D10*
%TO.C,D27*%
X60035000Y-46560000D03*
D11*
X58485000Y-46560000D03*
%TD*%
D10*
%TO.C,D399*%
X90515000Y-92280000D03*
D11*
X88965000Y-92280000D03*
%TD*%
D10*
%TO.C,D19*%
X90515000Y-44020000D03*
D11*
X88965000Y-44020000D03*
%TD*%
D10*
%TO.C,D219*%
X90515000Y-69420000D03*
D11*
X88965000Y-69420000D03*
%TD*%
D10*
%TO.C,D125*%
X54955000Y-59260000D03*
D11*
X53405000Y-59260000D03*
%TD*%
D10*
%TO.C,D232*%
X72735000Y-71960000D03*
D11*
X71185000Y-71960000D03*
%TD*%
D10*
%TO.C,D323*%
X49875000Y-84660000D03*
D11*
X48325000Y-84660000D03*
%TD*%
D10*
%TO.C,D167*%
X60035000Y-64340000D03*
D11*
X58485000Y-64340000D03*
%TD*%
D10*
%TO.C,D130*%
X67655000Y-59260000D03*
D11*
X66105000Y-59260000D03*
%TD*%
D10*
%TO.C,D195*%
X80355000Y-66880000D03*
D11*
X78805000Y-66880000D03*
%TD*%
D10*
%TO.C,D129*%
X65115000Y-59260000D03*
D11*
X63565000Y-59260000D03*
%TD*%
D10*
%TO.C,D260*%
X93055000Y-74500000D03*
D11*
X91505000Y-74500000D03*
%TD*%
D10*
%TO.C,D250*%
X67655000Y-74500000D03*
D11*
X66105000Y-74500000D03*
%TD*%
D10*
%TO.C,D351*%
X70195000Y-87200000D03*
D11*
X68645000Y-87200000D03*
%TD*%
D10*
%TO.C,D106*%
X57495000Y-56720000D03*
D11*
X55945000Y-56720000D03*
%TD*%
D10*
%TO.C,D375*%
X80355000Y-89740000D03*
D11*
X78805000Y-89740000D03*
%TD*%
D10*
%TO.C,D37*%
X85435000Y-46560000D03*
D11*
X83885000Y-46560000D03*
%TD*%
D10*
%TO.C,D45*%
X54955000Y-49100000D03*
D11*
X53405000Y-49100000D03*
%TD*%
D10*
%TO.C,D352*%
X72735000Y-87200000D03*
D11*
X71185000Y-87200000D03*
%TD*%
D10*
%TO.C,D51*%
X70195000Y-49100000D03*
D11*
X68645000Y-49100000D03*
%TD*%
D10*
%TO.C,D302*%
X47335000Y-82120000D03*
D11*
X45785000Y-82120000D03*
%TD*%
D10*
%TO.C,D271*%
X70195000Y-77040000D03*
D11*
X68645000Y-77040000D03*
%TD*%
D10*
%TO.C,D261*%
X44795000Y-77040000D03*
D11*
X43245000Y-77040000D03*
%TD*%
D10*
%TO.C,D279*%
X90515000Y-77040000D03*
D11*
X88965000Y-77040000D03*
%TD*%
D10*
%TO.C,D199*%
X90515000Y-66880000D03*
D11*
X88965000Y-66880000D03*
%TD*%
D10*
%TO.C,D179*%
X90515000Y-64340000D03*
D11*
X88965000Y-64340000D03*
%TD*%
D10*
%TO.C,D176*%
X82895000Y-64340000D03*
D11*
X81345000Y-64340000D03*
%TD*%
D10*
%TO.C,D162*%
X47335000Y-64340000D03*
D11*
X45785000Y-64340000D03*
%TD*%
D10*
%TO.C,D303*%
X49875000Y-82120000D03*
D11*
X48325000Y-82120000D03*
%TD*%
D10*
%TO.C,D60*%
X93055000Y-49100000D03*
D11*
X91505000Y-49100000D03*
%TD*%
M02*
