%TF.GenerationSoftware,KiCad,Pcbnew,10.0.5*%
%TF.CreationDate,2026-10-10T13:59:52+00:00*%
%TF.ProjectId,mono_panel_20x20,6d6f6e6f-5f70-4616-9e65-6c5f32307832,rev?*%
%TF.SameCoordinates,Original*%
%TF.FileFunction,Copper,L2,Bot*%
%TF.FilePolarity,Positive*%
%FSLAX46Y46*%
G04 Gerber Fmt 4.6, Leading zero omitted, Abs format (unit mm)*
G04 Created by KiCad (PCBNEW 10.0.5) date 2026-10-10 13:59:52*
%MOMM*%
%LPD*%
G01*
G04 APERTURE LIST*
%TA.AperFunction,SMDPad,CuDef*%
%ADD10R,0.300000X1.300000*%
%TD*%
%TA.AperFunction,SMDPad,CuDef*%
%ADD11R,1.800000X2.200000*%
%TD*%
%TA.AperFunction,SMDPad,CuDef*%
%ADD12R,1.300000X0.300000*%
%TD*%
%TA.AperFunction,SMDPad,CuDef*%
%ADD13R,2.200000X1.800000*%
%TD*%
%TA.AperFunction,ViaPad*%
%ADD14C,0.450000*%
%TD*%
%TA.AperFunction,Conductor*%
%ADD15C,0.150000*%
%TD*%
%TA.AperFunction,Conductor*%
%ADD16C,0.200000*%
%TD*%
%ADD17C,0.200000*%
G04 APERTURE END LIST*
D10*
%TO.P,J_COL,1*%
%TO.N,COL_01*%
X58400000Y-129850000D03*
%TO.P,J_COL,2*%
%TO.N,COL_02*%
X58900000Y-129850000D03*
%TO.P,J_COL,3*%
%TO.N,COL_03*%
X59400000Y-129850000D03*
%TO.P,J_COL,4*%
%TO.N,COL_04*%
X59900000Y-129850000D03*
%TO.P,J_COL,5*%
%TO.N,COL_05*%
X60400000Y-129850000D03*
%TO.P,J_COL,6*%
%TO.N,COL_06*%
X60900000Y-129850000D03*
%TO.P,J_COL,7*%
%TO.N,COL_07*%
X61400000Y-129850000D03*
%TO.P,J_COL,8*%
%TO.N,COL_08*%
X61900000Y-129850000D03*
%TO.P,J_COL,9*%
%TO.N,COL_09*%
X62400000Y-129850000D03*
%TO.P,J_COL,10*%
%TO.N,COL_10*%
X62900000Y-129850000D03*
%TO.P,J_COL,11*%
%TO.N,COL_11*%
X63400000Y-129850000D03*
%TO.P,J_COL,12*%
%TO.N,COL_12*%
X63900000Y-129850000D03*
%TO.P,J_COL,13*%
%TO.N,COL_13*%
X64400000Y-129850000D03*
%TO.P,J_COL,14*%
%TO.N,COL_14*%
X64900000Y-129850000D03*
%TO.P,J_COL,15*%
%TO.N,COL_15*%
X65400000Y-129850000D03*
%TO.P,J_COL,16*%
%TO.N,COL_16*%
X65900000Y-129850000D03*
%TO.P,J_COL,17*%
%TO.N,COL_17*%
X66400000Y-129850000D03*
%TO.P,J_COL,18*%
%TO.N,COL_18*%
X66900000Y-129850000D03*
%TO.P,J_COL,19*%
%TO.N,COL_19*%
X67400000Y-129850000D03*
%TO.P,J_COL,20*%
%TO.N,COL_20*%
X67900000Y-129850000D03*
%TO.P,J_COL,21*%
%TO.N,N/C*%
X68400000Y-129850000D03*
%TO.P,J_COL,22*%
X68900000Y-129850000D03*
%TO.P,J_COL,23*%
X69400000Y-129850000D03*
%TO.P,J_COL,24*%
X69900000Y-129850000D03*
%TO.P,J_COL,25*%
X70400000Y-129850000D03*
%TO.P,J_COL,26*%
X70900000Y-129850000D03*
%TO.P,J_COL,27*%
X71400000Y-129850000D03*
%TO.P,J_COL,28*%
X71900000Y-129850000D03*
%TO.P,J_COL,29*%
X72400000Y-129850000D03*
%TO.P,J_COL,30*%
X72900000Y-129850000D03*
%TO.P,J_COL,31*%
X73400000Y-129850000D03*
%TO.P,J_COL,32*%
X73900000Y-129850000D03*
%TO.P,J_COL,33*%
X74400000Y-129850000D03*
%TO.P,J_COL,34*%
X74900000Y-129850000D03*
%TO.P,J_COL,35*%
X75400000Y-129850000D03*
%TO.P,J_COL,36*%
X75900000Y-129850000D03*
%TO.P,J_COL,37*%
X76400000Y-129850000D03*
%TO.P,J_COL,38*%
X76900000Y-129850000D03*
%TO.P,J_COL,39*%
X77400000Y-129850000D03*
%TO.P,J_COL,40*%
X77900000Y-129850000D03*
D11*
%TO.P,J_COL,MP*%
X56500000Y-126600000D03*
X79800000Y-126600000D03*
%TD*%
D12*
%TO.P,J_ROW,1*%
%TO.N,ROW_01_ANODE*%
X6150000Y-58400000D03*
%TO.P,J_ROW,2*%
%TO.N,ROW_02_ANODE*%
X6150000Y-58900000D03*
%TO.P,J_ROW,3*%
%TO.N,ROW_03_ANODE*%
X6150000Y-59400000D03*
%TO.P,J_ROW,4*%
%TO.N,ROW_04_ANODE*%
X6150000Y-59900000D03*
%TO.P,J_ROW,5*%
%TO.N,ROW_05_ANODE*%
X6150000Y-60400000D03*
%TO.P,J_ROW,6*%
%TO.N,ROW_06_ANODE*%
X6150000Y-60900000D03*
%TO.P,J_ROW,7*%
%TO.N,ROW_07_ANODE*%
X6150000Y-61400000D03*
%TO.P,J_ROW,8*%
%TO.N,ROW_08_ANODE*%
X6150000Y-61900000D03*
%TO.P,J_ROW,9*%
%TO.N,ROW_09_ANODE*%
X6150000Y-62400000D03*
%TO.P,J_ROW,10*%
%TO.N,ROW_10_ANODE*%
X6150000Y-62900000D03*
%TO.P,J_ROW,11*%
%TO.N,ROW_11_ANODE*%
X6150000Y-63400000D03*
%TO.P,J_ROW,12*%
%TO.N,ROW_12_ANODE*%
X6150000Y-63900000D03*
%TO.P,J_ROW,13*%
%TO.N,ROW_13_ANODE*%
X6150000Y-64400000D03*
%TO.P,J_ROW,14*%
%TO.N,ROW_14_ANODE*%
X6150000Y-64900000D03*
%TO.P,J_ROW,15*%
%TO.N,ROW_15_ANODE*%
X6150000Y-65400000D03*
%TO.P,J_ROW,16*%
%TO.N,ROW_16_ANODE*%
X6150000Y-65900000D03*
%TO.P,J_ROW,17*%
%TO.N,ROW_17_ANODE*%
X6150000Y-66400000D03*
%TO.P,J_ROW,18*%
%TO.N,ROW_18_ANODE*%
X6150000Y-66900000D03*
%TO.P,J_ROW,19*%
%TO.N,ROW_19_ANODE*%
X6150000Y-67400000D03*
%TO.P,J_ROW,20*%
%TO.N,ROW_20_ANODE*%
X6150000Y-67900000D03*
%TO.P,J_ROW,21*%
%TO.N,N/C*%
X6150000Y-68400000D03*
%TO.P,J_ROW,22*%
X6150000Y-68900000D03*
%TO.P,J_ROW,23*%
X6150000Y-69400000D03*
%TO.P,J_ROW,24*%
X6150000Y-69900000D03*
%TO.P,J_ROW,25*%
X6150000Y-70400000D03*
%TO.P,J_ROW,26*%
X6150000Y-70900000D03*
%TO.P,J_ROW,27*%
X6150000Y-71400000D03*
%TO.P,J_ROW,28*%
X6150000Y-71900000D03*
%TO.P,J_ROW,29*%
X6150000Y-72400000D03*
%TO.P,J_ROW,30*%
X6150000Y-72900000D03*
%TO.P,J_ROW,31*%
X6150000Y-73400000D03*
%TO.P,J_ROW,32*%
X6150000Y-73900000D03*
%TO.P,J_ROW,33*%
X6150000Y-74400000D03*
%TO.P,J_ROW,34*%
X6150000Y-74900000D03*
%TO.P,J_ROW,35*%
X6150000Y-75400000D03*
%TO.P,J_ROW,36*%
X6150000Y-75900000D03*
%TO.P,J_ROW,37*%
X6150000Y-76400000D03*
%TO.P,J_ROW,38*%
X6150000Y-76900000D03*
%TO.P,J_ROW,39*%
X6150000Y-77400000D03*
%TO.P,J_ROW,40*%
X6150000Y-77900000D03*
D13*
%TO.P,J_ROW,MP*%
X9400000Y-56500000D03*
X9400000Y-79800000D03*
%TD*%
D14*
%TO.N,ROW_01_ANODE*%
X13200000Y-16000000D03*
%TO.N,ROW_02_ANODE*%
X13750000Y-16000000D03*
%TO.N,ROW_03_ANODE*%
X14299999Y-16000000D03*
%TO.N,ROW_04_ANODE*%
X14850000Y-16000000D03*
%TO.N,ROW_05_ANODE*%
X15399999Y-16000000D03*
%TO.N,ROW_06_ANODE*%
X15950000Y-16000000D03*
%TO.N,ROW_07_ANODE*%
X16500000Y-16000000D03*
%TO.N,ROW_08_ANODE*%
X17050000Y-16000000D03*
%TO.N,ROW_09_ANODE*%
X17600000Y-16000000D03*
%TO.N,ROW_10_ANODE*%
X18150000Y-16000000D03*
%TO.N,ROW_11_ANODE*%
X18700000Y-16000000D03*
%TO.N,ROW_12_ANODE*%
X19250000Y-16000000D03*
%TO.N,ROW_13_ANODE*%
X19800000Y-16000000D03*
%TO.N,ROW_14_ANODE*%
X20350000Y-16000000D03*
%TO.N,ROW_15_ANODE*%
X20900000Y-16000000D03*
%TO.N,ROW_16_ANODE*%
X21450000Y-16000000D03*
%TO.N,ROW_17_ANODE*%
X22000000Y-16000000D03*
%TO.N,ROW_18_ANODE*%
X22550000Y-16000000D03*
%TO.N,ROW_19_ANODE*%
X23100000Y-16000000D03*
%TO.N,ROW_20_ANODE*%
X23650000Y-16000000D03*
%TO.N,COL_01*%
X44795000Y-55280000D03*
X44795000Y-52740000D03*
X44795000Y-80680000D03*
X44795000Y-57820000D03*
X44795000Y-50200000D03*
X44795000Y-45120000D03*
X44795000Y-73059999D03*
X44795000Y-90839999D03*
X44795000Y-85759999D03*
X44795000Y-93380000D03*
X44795000Y-70520000D03*
X44795000Y-62900000D03*
X44795000Y-88300000D03*
X44795000Y-65440000D03*
X44795000Y-60360000D03*
X44795000Y-75600000D03*
X44795000Y-47660000D03*
X44795000Y-78140000D03*
X44795000Y-83220000D03*
X44795000Y-67979999D03*
%TO.N,COL_02*%
X47335000Y-57820000D03*
X47335000Y-45120000D03*
X47335000Y-60360000D03*
X47335000Y-78140000D03*
X47335000Y-83220000D03*
X47335000Y-52740000D03*
X47335000Y-70520000D03*
X47335000Y-88300000D03*
X47335000Y-80680000D03*
X47335000Y-62900000D03*
X47335000Y-90839999D03*
X47335000Y-75600000D03*
X47335000Y-50200000D03*
X47335000Y-93380000D03*
X47335000Y-85759999D03*
X47335000Y-47660000D03*
X47335000Y-73059999D03*
X47335000Y-67979999D03*
X47335000Y-65440000D03*
X47335000Y-55280000D03*
%TO.N,COL_03*%
X49875000Y-45120000D03*
X49875000Y-88300000D03*
X49875000Y-52740000D03*
X49875000Y-67979999D03*
X49875000Y-65440000D03*
X49875000Y-60360000D03*
X49875000Y-93380000D03*
X49875000Y-78140000D03*
X49875000Y-55280000D03*
X49875000Y-50200000D03*
X49875000Y-73059999D03*
X49875000Y-80680000D03*
X49875000Y-90839999D03*
X49875000Y-75600000D03*
X49875000Y-85759999D03*
X49875000Y-83220000D03*
X49875000Y-47660000D03*
X49875000Y-62900000D03*
X49875000Y-57820000D03*
X49875000Y-70520000D03*
%TO.N,COL_04*%
X52415000Y-90839999D03*
X52415000Y-45120000D03*
X52415000Y-70520000D03*
X52415000Y-83220000D03*
X52415000Y-47660000D03*
X52415000Y-50200000D03*
X52415000Y-93380000D03*
X52415000Y-55280000D03*
X52415000Y-60360000D03*
X52415000Y-67979999D03*
X52415000Y-73059999D03*
X52415000Y-57820000D03*
X52415000Y-65440000D03*
X52415000Y-88300000D03*
X52415000Y-52740000D03*
X52415000Y-75600000D03*
X52415000Y-80680000D03*
X52415000Y-78140000D03*
X52415000Y-62900000D03*
X52415000Y-85759999D03*
%TO.N,COL_05*%
X54955000Y-80680000D03*
X54955000Y-78140000D03*
X54955000Y-70520000D03*
X54955000Y-93380000D03*
X54955000Y-47660000D03*
X54955000Y-88300000D03*
X54955000Y-60360000D03*
X54955000Y-57820000D03*
X54955000Y-67979999D03*
X54955000Y-73059999D03*
X54955000Y-90839999D03*
X54955000Y-55280000D03*
X54955000Y-85759999D03*
X54955000Y-62900000D03*
X54955000Y-52740000D03*
X54955000Y-65440000D03*
X54955000Y-83220000D03*
X54955000Y-50200000D03*
X54955000Y-45120000D03*
X54955000Y-75600000D03*
%TO.N,COL_06*%
X57495000Y-85759999D03*
X57495000Y-55280000D03*
X57495000Y-83220000D03*
X57495000Y-73059999D03*
X57495000Y-90839999D03*
X57495000Y-52740000D03*
X57495000Y-75600000D03*
X57495000Y-45120000D03*
X57495000Y-57820000D03*
X57495000Y-70520000D03*
X57495000Y-60360000D03*
X57495000Y-50200000D03*
X57495000Y-62900000D03*
X57495000Y-93380000D03*
X57495000Y-65440000D03*
X57495000Y-80680000D03*
X57495000Y-47660000D03*
X57495000Y-67979999D03*
X57495000Y-88300000D03*
X57495000Y-78140000D03*
%TO.N,COL_07*%
X60035000Y-78140000D03*
X60035000Y-67979999D03*
X60035000Y-45120000D03*
X60035000Y-65440000D03*
X60035000Y-57820000D03*
X60035000Y-50200000D03*
X60035000Y-75600000D03*
X60035000Y-80680000D03*
X60035000Y-90839999D03*
X60035000Y-73059999D03*
X60035000Y-62900000D03*
X60035000Y-55280000D03*
X60035000Y-52740000D03*
X60035000Y-88300000D03*
X60035000Y-70520000D03*
X60035000Y-60360000D03*
X60035000Y-93380000D03*
X60035000Y-83220000D03*
X60035000Y-85759999D03*
X60035000Y-47660000D03*
%TO.N,COL_08*%
X62575000Y-85759999D03*
X62575000Y-78140000D03*
X62575000Y-47660000D03*
X62575000Y-67979999D03*
X62575000Y-70520000D03*
X62575000Y-80680000D03*
X62575000Y-55280000D03*
X62575000Y-73059999D03*
X62575000Y-57820000D03*
X62575000Y-50200000D03*
X62575000Y-65440000D03*
X62575000Y-88300000D03*
X62575000Y-75600000D03*
X62575000Y-93380000D03*
X62575000Y-90839999D03*
X62575000Y-52740000D03*
X62575000Y-45120000D03*
X62575000Y-60360000D03*
X62575000Y-62900000D03*
X62575000Y-83220000D03*
%TO.N,COL_09*%
X65114999Y-62900000D03*
X65114999Y-70520000D03*
X65114999Y-88300000D03*
X65114999Y-78140000D03*
X65114999Y-75600000D03*
X65114999Y-67979999D03*
X65114999Y-65440000D03*
X65114999Y-60360000D03*
X65114999Y-80680000D03*
X65114999Y-55280000D03*
X65114999Y-93380000D03*
X65114999Y-52740000D03*
X65114999Y-73059999D03*
X65114999Y-57820000D03*
X65114999Y-83220000D03*
X65114999Y-47660000D03*
X65114999Y-45120000D03*
X65114999Y-90839999D03*
X65114999Y-85759999D03*
X65114999Y-50200000D03*
%TO.N,COL_10*%
X67655000Y-67979999D03*
X67655000Y-52740000D03*
X67655000Y-83220000D03*
X67655000Y-88300000D03*
X67655000Y-70520000D03*
X67655000Y-75600000D03*
X67655000Y-65440000D03*
X67655000Y-62900000D03*
X67655000Y-60360000D03*
X67655000Y-90839999D03*
X67655000Y-50200000D03*
X67655000Y-47660000D03*
X67655000Y-93380000D03*
X67655000Y-85759999D03*
X67655000Y-45120000D03*
X67655000Y-80680000D03*
X67655000Y-78140000D03*
X67655000Y-73059999D03*
X67655000Y-57820000D03*
X67655000Y-55280000D03*
%TO.N,COL_11*%
X70195000Y-78140000D03*
X70195000Y-70520000D03*
X70195000Y-50200000D03*
X70195000Y-93380000D03*
X70195000Y-67979999D03*
X70195000Y-62900000D03*
X70195000Y-57820000D03*
X70195000Y-73059999D03*
X70195000Y-45120000D03*
X70195000Y-52740000D03*
X70195000Y-85759999D03*
X70195000Y-90839999D03*
X70195000Y-47660000D03*
X70195000Y-65440000D03*
X70195000Y-60360000D03*
X70195000Y-83220000D03*
X70195000Y-80680000D03*
X70195000Y-75600000D03*
X70195000Y-55280000D03*
X70195000Y-88300000D03*
%TO.N,COL_12*%
X72735000Y-90839999D03*
X72735000Y-50200000D03*
X72735000Y-73059999D03*
X72735000Y-80680000D03*
X72735000Y-47660000D03*
X72735000Y-62900000D03*
X72735000Y-75600000D03*
X72735000Y-65440000D03*
X72735000Y-93380000D03*
X72735000Y-55280000D03*
X72735000Y-78140000D03*
X72735000Y-45120000D03*
X72735000Y-57820000D03*
X72735000Y-70520000D03*
X72735000Y-88300000D03*
X72735000Y-52740000D03*
X72735000Y-67979999D03*
X72735000Y-60360000D03*
X72735000Y-83220000D03*
X72735000Y-85759999D03*
%TO.N,COL_13*%
X75275000Y-55280000D03*
X75275000Y-73059999D03*
X75275000Y-75600000D03*
X75275000Y-52740000D03*
X75275000Y-80680000D03*
X75275000Y-50200000D03*
X75275000Y-90839999D03*
X75275000Y-93380000D03*
X75275000Y-47660000D03*
X75275000Y-67979999D03*
X75275000Y-45120000D03*
X75275000Y-60360000D03*
X75275000Y-57820000D03*
X75275000Y-78140000D03*
X75275000Y-85759999D03*
X75275000Y-65440000D03*
X75275000Y-70520000D03*
X75275000Y-62900000D03*
X75275000Y-88300000D03*
X75275000Y-83220000D03*
%TO.N,COL_14*%
X77815000Y-85759999D03*
X77815000Y-62900000D03*
X77815000Y-73059999D03*
X77815000Y-93380000D03*
X77815000Y-55280000D03*
X77815000Y-83220000D03*
X77815000Y-50200000D03*
X77815000Y-70520000D03*
X77815000Y-65440000D03*
X77815000Y-52740000D03*
X77815000Y-45120000D03*
X77815000Y-57820000D03*
X77815000Y-80680000D03*
X77815000Y-90839999D03*
X77815000Y-78140000D03*
X77815000Y-47660000D03*
X77815000Y-88300000D03*
X77815000Y-67979999D03*
X77815000Y-75600000D03*
X77815000Y-60360000D03*
%TO.N,COL_15*%
X80355000Y-83220000D03*
X80355000Y-62900000D03*
X80355000Y-57820000D03*
X80355000Y-93380000D03*
X80355000Y-70520000D03*
X80355000Y-55280000D03*
X80355000Y-50200000D03*
X80355000Y-85759999D03*
X80355000Y-47660000D03*
X80355000Y-90839999D03*
X80355000Y-45120000D03*
X80355000Y-52740000D03*
X80355000Y-88300000D03*
X80355000Y-75600000D03*
X80355000Y-80680000D03*
X80355000Y-60360000D03*
X80355000Y-73059999D03*
X80355000Y-67979999D03*
X80355000Y-78140000D03*
X80355000Y-65440000D03*
%TO.N,COL_16*%
X82895000Y-57820000D03*
X82895000Y-70520000D03*
X82895000Y-60360000D03*
X82895000Y-65440000D03*
X82895000Y-85759999D03*
X82895000Y-93380000D03*
X82895000Y-90839999D03*
X82895000Y-55280000D03*
X82895000Y-75600000D03*
X82895000Y-67979999D03*
X82895000Y-88300000D03*
X82895000Y-52740000D03*
X82895000Y-83220000D03*
X82895000Y-50200000D03*
X82895000Y-45120000D03*
X82895000Y-78140000D03*
X82895000Y-62900000D03*
X82895000Y-80680000D03*
X82895000Y-73059999D03*
X82895000Y-47660000D03*
%TO.N,COL_17*%
X85435000Y-52740000D03*
X85435000Y-55280000D03*
X85435000Y-65440000D03*
X85435000Y-90839999D03*
X85435000Y-67979999D03*
X85435000Y-83220000D03*
X85435000Y-93380000D03*
X85435000Y-45120000D03*
X85435000Y-85759999D03*
X85435000Y-75600000D03*
X85435000Y-57820000D03*
X85435000Y-47660000D03*
X85435000Y-80680000D03*
X85435000Y-88300000D03*
X85435000Y-78140000D03*
X85435000Y-60360000D03*
X85435000Y-73059999D03*
X85435000Y-70520000D03*
X85435000Y-50200000D03*
X85435000Y-62900000D03*
%TO.N,COL_18*%
X87975000Y-73059999D03*
X87975000Y-78140000D03*
X87975000Y-83220000D03*
X87975000Y-88300000D03*
X87975000Y-45120000D03*
X87975000Y-52740000D03*
X87975000Y-80680000D03*
X87975000Y-60360000D03*
X87975000Y-47660000D03*
X87975000Y-62900000D03*
X87975000Y-90839999D03*
X87975000Y-67979999D03*
X87975000Y-93380000D03*
X87975000Y-55280000D03*
X87975000Y-85759999D03*
X87975000Y-70520000D03*
X87975000Y-65440000D03*
X87975000Y-75600000D03*
X87975000Y-50200000D03*
X87975000Y-57820000D03*
%TO.N,COL_19*%
X90515000Y-88300000D03*
X90515000Y-75600000D03*
X90515000Y-83220000D03*
X90515000Y-85759999D03*
X90515000Y-55280000D03*
X90515000Y-62900000D03*
X90515000Y-60360000D03*
X90515000Y-93380000D03*
X90515000Y-52740000D03*
X90515000Y-57820000D03*
X90515000Y-45120000D03*
X90515000Y-90839999D03*
X90515000Y-70520000D03*
X90515000Y-80680000D03*
X90515000Y-47660000D03*
X90515000Y-67979999D03*
X90515000Y-78140000D03*
X90515000Y-73059999D03*
X90515000Y-65440000D03*
X90515000Y-50200000D03*
%TO.N,COL_20*%
X93055000Y-85759999D03*
X93055000Y-80680000D03*
X93055000Y-67979999D03*
X93055000Y-45120000D03*
X93055000Y-90839999D03*
X93055000Y-57820000D03*
X93055000Y-70520000D03*
X93055000Y-73059999D03*
X93055000Y-88300000D03*
X93055000Y-52740000D03*
X93055000Y-78140000D03*
X93055000Y-47660000D03*
X93055000Y-83220000D03*
X93055000Y-62900000D03*
X93055000Y-55280000D03*
X93055000Y-60360000D03*
X93055000Y-50200000D03*
X93055000Y-65440000D03*
X93055000Y-75600000D03*
X93055000Y-93380000D03*
%TD*%
%TO.N,ROW_01_ANODE*%
D15*
X13200000Y-16000000D02*
X13200000Y-58400000D01*
X13200000Y-58400000D02*
X6150000Y-58400000D01*
%TO.N,ROW_02_ANODE*%
X13750000Y-58900000D02*
X6150000Y-58900000D01*
X13750000Y-16000000D02*
X13750000Y-58900000D01*
%TO.N,ROW_03_ANODE*%
X14299999Y-16000000D02*
X14299999Y-59400000D01*
X14299999Y-59400000D02*
X6150000Y-59400000D01*
%TO.N,ROW_04_ANODE*%
X14850000Y-59900000D02*
X6150000Y-59900000D01*
X14850000Y-16000000D02*
X14850000Y-59900000D01*
%TO.N,ROW_05_ANODE*%
X15399999Y-16000000D02*
X15399999Y-60400000D01*
X15399999Y-60400000D02*
X6150000Y-60400000D01*
%TO.N,ROW_06_ANODE*%
X15950000Y-60900000D02*
X6150000Y-60900000D01*
X15950000Y-16000000D02*
X15950000Y-60900000D01*
%TO.N,ROW_07_ANODE*%
X16500000Y-61400000D02*
X6150000Y-61400000D01*
X16500000Y-16000000D02*
X16500000Y-61400000D01*
%TO.N,ROW_08_ANODE*%
X17050000Y-16000000D02*
X17050000Y-61900000D01*
X17050000Y-61900000D02*
X6150000Y-61900000D01*
%TO.N,ROW_09_ANODE*%
X17600000Y-62400000D02*
X6150000Y-62400000D01*
X17600000Y-16000000D02*
X17600000Y-62400000D01*
%TO.N,ROW_10_ANODE*%
X18150000Y-62900000D02*
X6150000Y-62900000D01*
X18150000Y-16000000D02*
X18150000Y-62900000D01*
%TO.N,ROW_11_ANODE*%
X18700000Y-63400000D02*
X6150000Y-63400000D01*
X18700000Y-16000000D02*
X18700000Y-63400000D01*
%TO.N,ROW_12_ANODE*%
X19250000Y-63900000D02*
X6150000Y-63900000D01*
X19250000Y-16000000D02*
X19250000Y-63900000D01*
%TO.N,ROW_13_ANODE*%
X19800000Y-64400000D02*
X6150000Y-64400000D01*
X19800000Y-16000000D02*
X19800000Y-64400000D01*
%TO.N,ROW_14_ANODE*%
X20350000Y-64900000D02*
X6150000Y-64900000D01*
X20350000Y-16000000D02*
X20350000Y-64900000D01*
%TO.N,ROW_15_ANODE*%
X20900000Y-16000000D02*
X20900000Y-65400000D01*
X20900000Y-65400000D02*
X6150000Y-65400000D01*
%TO.N,ROW_16_ANODE*%
X21450000Y-16000000D02*
X21450000Y-65900000D01*
X21450000Y-65900000D02*
X6150000Y-65900000D01*
%TO.N,ROW_17_ANODE*%
X22000000Y-16000000D02*
X22000000Y-66400000D01*
X22000000Y-66400000D02*
X6150000Y-66400000D01*
%TO.N,ROW_18_ANODE*%
X22550000Y-66900000D02*
X6150000Y-66900000D01*
X22550000Y-16000000D02*
X22550000Y-66900000D01*
%TO.N,ROW_19_ANODE*%
X23100000Y-16000000D02*
X23100000Y-67400000D01*
X23100000Y-67400000D02*
X6150000Y-67400000D01*
%TO.N,ROW_20_ANODE*%
X23650000Y-67900000D02*
X6150000Y-67900000D01*
X23650000Y-16000000D02*
X23650000Y-67900000D01*
%TO.N,COL_01*%
X58400000Y-121850000D02*
X58400000Y-129850000D01*
X44795000Y-93880000D02*
X58400000Y-121850000D01*
D16*
X44795000Y-45120000D02*
X44795000Y-93380000D01*
X44795000Y-93380000D02*
X44795000Y-93880000D01*
%TO.N,COL_02*%
D15*
X58900000Y-121850000D02*
X58900000Y-129850000D01*
D16*
X47335000Y-45120000D02*
X47335000Y-93380000D01*
D15*
X47335000Y-93880000D02*
X58900000Y-121850000D01*
D16*
X47335000Y-93380000D02*
X47335000Y-93880000D01*
%TO.N,COL_03*%
X49875000Y-45120000D02*
X49875000Y-93380000D01*
D15*
X59400000Y-121850000D02*
X59400000Y-129850000D01*
D16*
X49875000Y-93380000D02*
X49875000Y-93880000D01*
D15*
X49875000Y-93880000D02*
X59400000Y-121850000D01*
%TO.N,COL_04*%
X52415000Y-93880000D02*
X59900000Y-121850000D01*
D16*
X52415000Y-93380000D02*
X52415000Y-93880000D01*
D15*
X59900000Y-121850000D02*
X59900000Y-129850000D01*
D16*
X52415000Y-45120000D02*
X52415000Y-93380000D01*
%TO.N,COL_05*%
X54955000Y-93380000D02*
X54955000Y-93880000D01*
D15*
X54955000Y-93880000D02*
X60400000Y-121850000D01*
D16*
X54955000Y-45120000D02*
X54955000Y-93380000D01*
D15*
X60400000Y-121850000D02*
X60400000Y-129850000D01*
%TO.N,COL_06*%
X60900000Y-121850000D02*
X60900000Y-129850000D01*
D16*
X57495000Y-45120000D02*
X57495000Y-93380000D01*
X57495000Y-93380000D02*
X57495000Y-93880000D01*
D15*
X57495000Y-93880000D02*
X60900000Y-121850000D01*
%TO.N,COL_07*%
D16*
X60035000Y-93380000D02*
X60035000Y-93880000D01*
D15*
X61400000Y-121850000D02*
X61400000Y-129850000D01*
D16*
X60035000Y-45120000D02*
X60035000Y-93380000D01*
D15*
X60035000Y-93880000D02*
X61400000Y-121850000D01*
%TO.N,COL_08*%
D16*
X62575000Y-45120000D02*
X62575000Y-93380000D01*
D15*
X62575000Y-93880000D02*
X61900000Y-121850000D01*
D16*
X62575000Y-93380000D02*
X62575000Y-93880000D01*
D15*
X61900000Y-121850000D02*
X61900000Y-129850000D01*
%TO.N,COL_09*%
X62400000Y-121850000D02*
X62400000Y-129850000D01*
D16*
X65114999Y-45120000D02*
X65114999Y-93380000D01*
D15*
X65114999Y-93880000D02*
X62400000Y-121850000D01*
D16*
X65114999Y-93380000D02*
X65114999Y-93880000D01*
%TO.N,COL_10*%
D15*
X67655000Y-93880000D02*
X62900000Y-121850000D01*
D16*
X67655000Y-93380000D02*
X67655000Y-93880000D01*
X67655000Y-45120000D02*
X67655000Y-93380000D01*
D15*
X62900000Y-121850000D02*
X62900000Y-129850000D01*
%TO.N,COL_11*%
X70195000Y-93880000D02*
X63400000Y-121850000D01*
D16*
X70195000Y-93380000D02*
X70195000Y-93880000D01*
X70195000Y-45120000D02*
X70195000Y-93380000D01*
D15*
X63400000Y-121850000D02*
X63400000Y-129850000D01*
%TO.N,COL_12*%
X72735000Y-93880000D02*
X63900000Y-121850000D01*
D16*
X72735000Y-93380000D02*
X72735000Y-93880000D01*
X72735000Y-45120000D02*
X72735000Y-93380000D01*
D15*
X63900000Y-121850000D02*
X63900000Y-129850000D01*
%TO.N,COL_13*%
D16*
X75275000Y-93380000D02*
X75275000Y-93880000D01*
D15*
X64400000Y-121850000D02*
X64400000Y-129850000D01*
D16*
X75275000Y-45120000D02*
X75275000Y-93380000D01*
D15*
X75275000Y-93880000D02*
X64400000Y-121850000D01*
%TO.N,COL_14*%
D16*
X77815000Y-93380000D02*
X77815000Y-93880000D01*
X77815000Y-45120000D02*
X77815000Y-93380000D01*
D15*
X77815000Y-93880000D02*
X64900000Y-121850000D01*
X64900000Y-121850000D02*
X64900000Y-129850000D01*
%TO.N,COL_15*%
D16*
X80355000Y-45120000D02*
X80355000Y-93380000D01*
D15*
X80355000Y-93880000D02*
X65400000Y-121850000D01*
D16*
X80355000Y-93380000D02*
X80355000Y-93880000D01*
D15*
X65400000Y-121850000D02*
X65400000Y-129850000D01*
%TO.N,COL_16*%
D16*
X82895000Y-45120000D02*
X82895000Y-93380000D01*
X82895000Y-93380000D02*
X82895000Y-93880000D01*
D15*
X82895000Y-93880000D02*
X65900000Y-121850000D01*
X65900000Y-121850000D02*
X65900000Y-129850000D01*
%TO.N,COL_17*%
X66400000Y-121850000D02*
X66400000Y-129850000D01*
D16*
X85435000Y-45120000D02*
X85435000Y-93380000D01*
X85435000Y-93380000D02*
X85435000Y-93880000D01*
D15*
X85435000Y-93880000D02*
X66400000Y-121850000D01*
%TO.N,COL_18*%
D16*
X87975000Y-93380000D02*
X87975000Y-93880000D01*
X87975000Y-45120000D02*
X87975000Y-93380000D01*
D15*
X66900000Y-121850000D02*
X66900000Y-129850000D01*
X87975000Y-93880000D02*
X66900000Y-121850000D01*
%TO.N,COL_19*%
X90515000Y-93880000D02*
X67400000Y-121850000D01*
D16*
X90515000Y-93380000D02*
X90515000Y-93880000D01*
X90515000Y-45120000D02*
X90515000Y-93380000D01*
D15*
X67400000Y-121850000D02*
X67400000Y-129850000D01*
%TO.N,COL_20*%
X67900000Y-121850000D02*
X67900000Y-129850000D01*
X93055000Y-93880000D02*
X67900000Y-121850000D01*
D16*
X93055000Y-45120000D02*
X93055000Y-93380000D01*
X93055000Y-93380000D02*
X93055000Y-93880000D01*
%TD*%
D17*
X13200000Y-16000000D03*
X13750000Y-16000000D03*
X14299999Y-16000000D03*
X14850000Y-16000000D03*
X15399999Y-16000000D03*
X15950000Y-16000000D03*
X16500000Y-16000000D03*
X17050000Y-16000000D03*
X17600000Y-16000000D03*
X18150000Y-16000000D03*
X18700000Y-16000000D03*
X19250000Y-16000000D03*
X19800000Y-16000000D03*
X20350000Y-16000000D03*
X20900000Y-16000000D03*
X21450000Y-16000000D03*
X22000000Y-16000000D03*
X22550000Y-16000000D03*
X23100000Y-16000000D03*
X23650000Y-16000000D03*
X44795000Y-55280000D03*
X44795000Y-52740000D03*
X44795000Y-80680000D03*
X44795000Y-57820000D03*
X44795000Y-50200000D03*
X44795000Y-45120000D03*
X44795000Y-73059999D03*
X44795000Y-90839999D03*
X44795000Y-85759999D03*
X44795000Y-93380000D03*
X44795000Y-70520000D03*
X44795000Y-62900000D03*
X44795000Y-88300000D03*
X44795000Y-65440000D03*
X44795000Y-60360000D03*
X44795000Y-75600000D03*
X44795000Y-47660000D03*
X44795000Y-78140000D03*
X44795000Y-83220000D03*
X44795000Y-67979999D03*
X47335000Y-57820000D03*
X47335000Y-45120000D03*
X47335000Y-60360000D03*
X47335000Y-78140000D03*
X47335000Y-83220000D03*
X47335000Y-52740000D03*
X47335000Y-70520000D03*
X47335000Y-88300000D03*
X47335000Y-80680000D03*
X47335000Y-62900000D03*
X47335000Y-90839999D03*
X47335000Y-75600000D03*
X47335000Y-50200000D03*
X47335000Y-93380000D03*
X47335000Y-85759999D03*
X47335000Y-47660000D03*
X47335000Y-73059999D03*
X47335000Y-67979999D03*
X47335000Y-65440000D03*
X47335000Y-55280000D03*
X49875000Y-45120000D03*
X49875000Y-88300000D03*
X49875000Y-52740000D03*
X49875000Y-67979999D03*
X49875000Y-65440000D03*
X49875000Y-60360000D03*
X49875000Y-93380000D03*
X49875000Y-78140000D03*
X49875000Y-55280000D03*
X49875000Y-50200000D03*
X49875000Y-73059999D03*
X49875000Y-80680000D03*
X49875000Y-90839999D03*
X49875000Y-75600000D03*
X49875000Y-85759999D03*
X49875000Y-83220000D03*
X49875000Y-47660000D03*
X49875000Y-62900000D03*
X49875000Y-57820000D03*
X49875000Y-70520000D03*
X52415000Y-90839999D03*
X52415000Y-45120000D03*
X52415000Y-70520000D03*
X52415000Y-83220000D03*
X52415000Y-47660000D03*
X52415000Y-50200000D03*
X52415000Y-93380000D03*
X52415000Y-55280000D03*
X52415000Y-60360000D03*
X52415000Y-67979999D03*
X52415000Y-73059999D03*
X52415000Y-57820000D03*
X52415000Y-65440000D03*
X52415000Y-88300000D03*
X52415000Y-52740000D03*
X52415000Y-75600000D03*
X52415000Y-80680000D03*
X52415000Y-78140000D03*
X52415000Y-62900000D03*
X52415000Y-85759999D03*
X54955000Y-80680000D03*
X54955000Y-78140000D03*
X54955000Y-70520000D03*
X54955000Y-93380000D03*
X54955000Y-47660000D03*
X54955000Y-88300000D03*
X54955000Y-60360000D03*
X54955000Y-57820000D03*
X54955000Y-67979999D03*
X54955000Y-73059999D03*
X54955000Y-90839999D03*
X54955000Y-55280000D03*
X54955000Y-85759999D03*
X54955000Y-62900000D03*
X54955000Y-52740000D03*
X54955000Y-65440000D03*
X54955000Y-83220000D03*
X54955000Y-50200000D03*
X54955000Y-45120000D03*
X54955000Y-75600000D03*
X57495000Y-85759999D03*
X57495000Y-55280000D03*
X57495000Y-83220000D03*
X57495000Y-73059999D03*
X57495000Y-90839999D03*
X57495000Y-52740000D03*
X57495000Y-75600000D03*
X57495000Y-45120000D03*
X57495000Y-57820000D03*
X57495000Y-70520000D03*
X57495000Y-60360000D03*
X57495000Y-50200000D03*
X57495000Y-62900000D03*
X57495000Y-93380000D03*
X57495000Y-65440000D03*
X57495000Y-80680000D03*
X57495000Y-47660000D03*
X57495000Y-67979999D03*
X57495000Y-88300000D03*
X57495000Y-78140000D03*
X60035000Y-78140000D03*
X60035000Y-67979999D03*
X60035000Y-45120000D03*
X60035000Y-65440000D03*
X60035000Y-57820000D03*
X60035000Y-50200000D03*
X60035000Y-75600000D03*
X60035000Y-80680000D03*
X60035000Y-90839999D03*
X60035000Y-73059999D03*
X60035000Y-62900000D03*
X60035000Y-55280000D03*
X60035000Y-52740000D03*
X60035000Y-88300000D03*
X60035000Y-70520000D03*
X60035000Y-60360000D03*
X60035000Y-93380000D03*
X60035000Y-83220000D03*
X60035000Y-85759999D03*
X60035000Y-47660000D03*
X62575000Y-85759999D03*
X62575000Y-78140000D03*
X62575000Y-47660000D03*
X62575000Y-67979999D03*
X62575000Y-70520000D03*
X62575000Y-80680000D03*
X62575000Y-55280000D03*
X62575000Y-73059999D03*
X62575000Y-57820000D03*
X62575000Y-50200000D03*
X62575000Y-65440000D03*
X62575000Y-88300000D03*
X62575000Y-75600000D03*
X62575000Y-93380000D03*
X62575000Y-90839999D03*
X62575000Y-52740000D03*
X62575000Y-45120000D03*
X62575000Y-60360000D03*
X62575000Y-62900000D03*
X62575000Y-83220000D03*
X65114999Y-62900000D03*
X65114999Y-70520000D03*
X65114999Y-88300000D03*
X65114999Y-78140000D03*
X65114999Y-75600000D03*
X65114999Y-67979999D03*
X65114999Y-65440000D03*
X65114999Y-60360000D03*
X65114999Y-80680000D03*
X65114999Y-55280000D03*
X65114999Y-93380000D03*
X65114999Y-52740000D03*
X65114999Y-73059999D03*
X65114999Y-57820000D03*
X65114999Y-83220000D03*
X65114999Y-47660000D03*
X65114999Y-45120000D03*
X65114999Y-90839999D03*
X65114999Y-85759999D03*
X65114999Y-50200000D03*
X67655000Y-67979999D03*
X67655000Y-52740000D03*
X67655000Y-83220000D03*
X67655000Y-88300000D03*
X67655000Y-70520000D03*
X67655000Y-75600000D03*
X67655000Y-65440000D03*
X67655000Y-62900000D03*
X67655000Y-60360000D03*
X67655000Y-90839999D03*
X67655000Y-50200000D03*
X67655000Y-47660000D03*
X67655000Y-93380000D03*
X67655000Y-85759999D03*
X67655000Y-45120000D03*
X67655000Y-80680000D03*
X67655000Y-78140000D03*
X67655000Y-73059999D03*
X67655000Y-57820000D03*
X67655000Y-55280000D03*
X70195000Y-78140000D03*
X70195000Y-70520000D03*
X70195000Y-50200000D03*
X70195000Y-93380000D03*
X70195000Y-67979999D03*
X70195000Y-62900000D03*
X70195000Y-57820000D03*
X70195000Y-73059999D03*
X70195000Y-45120000D03*
X70195000Y-52740000D03*
X70195000Y-85759999D03*
X70195000Y-90839999D03*
X70195000Y-47660000D03*
X70195000Y-65440000D03*
X70195000Y-60360000D03*
X70195000Y-83220000D03*
X70195000Y-80680000D03*
X70195000Y-75600000D03*
X70195000Y-55280000D03*
X70195000Y-88300000D03*
X72735000Y-90839999D03*
X72735000Y-50200000D03*
X72735000Y-73059999D03*
X72735000Y-80680000D03*
X72735000Y-47660000D03*
X72735000Y-62900000D03*
X72735000Y-75600000D03*
X72735000Y-65440000D03*
X72735000Y-93380000D03*
X72735000Y-55280000D03*
X72735000Y-78140000D03*
X72735000Y-45120000D03*
X72735000Y-57820000D03*
X72735000Y-70520000D03*
X72735000Y-88300000D03*
X72735000Y-52740000D03*
X72735000Y-67979999D03*
X72735000Y-60360000D03*
X72735000Y-83220000D03*
X72735000Y-85759999D03*
X75275000Y-55280000D03*
X75275000Y-73059999D03*
X75275000Y-75600000D03*
X75275000Y-52740000D03*
X75275000Y-80680000D03*
X75275000Y-50200000D03*
X75275000Y-90839999D03*
X75275000Y-93380000D03*
X75275000Y-47660000D03*
X75275000Y-67979999D03*
X75275000Y-45120000D03*
X75275000Y-60360000D03*
X75275000Y-57820000D03*
X75275000Y-78140000D03*
X75275000Y-85759999D03*
X75275000Y-65440000D03*
X75275000Y-70520000D03*
X75275000Y-62900000D03*
X75275000Y-88300000D03*
X75275000Y-83220000D03*
X77815000Y-85759999D03*
X77815000Y-62900000D03*
X77815000Y-73059999D03*
X77815000Y-93380000D03*
X77815000Y-55280000D03*
X77815000Y-83220000D03*
X77815000Y-50200000D03*
X77815000Y-70520000D03*
X77815000Y-65440000D03*
X77815000Y-52740000D03*
X77815000Y-45120000D03*
X77815000Y-57820000D03*
X77815000Y-80680000D03*
X77815000Y-90839999D03*
X77815000Y-78140000D03*
X77815000Y-47660000D03*
X77815000Y-88300000D03*
X77815000Y-67979999D03*
X77815000Y-75600000D03*
X77815000Y-60360000D03*
X80355000Y-83220000D03*
X80355000Y-62900000D03*
X80355000Y-57820000D03*
X80355000Y-93380000D03*
X80355000Y-70520000D03*
X80355000Y-55280000D03*
X80355000Y-50200000D03*
X80355000Y-85759999D03*
X80355000Y-47660000D03*
X80355000Y-90839999D03*
X80355000Y-45120000D03*
X80355000Y-52740000D03*
X80355000Y-88300000D03*
X80355000Y-75600000D03*
X80355000Y-80680000D03*
X80355000Y-60360000D03*
X80355000Y-73059999D03*
X80355000Y-67979999D03*
X80355000Y-78140000D03*
X80355000Y-65440000D03*
X82895000Y-57820000D03*
X82895000Y-70520000D03*
X82895000Y-60360000D03*
X82895000Y-65440000D03*
X82895000Y-85759999D03*
X82895000Y-93380000D03*
X82895000Y-90839999D03*
X82895000Y-55280000D03*
X82895000Y-75600000D03*
X82895000Y-67979999D03*
X82895000Y-88300000D03*
X82895000Y-52740000D03*
X82895000Y-83220000D03*
X82895000Y-50200000D03*
X82895000Y-45120000D03*
X82895000Y-78140000D03*
X82895000Y-62900000D03*
X82895000Y-80680000D03*
X82895000Y-73059999D03*
X82895000Y-47660000D03*
X85435000Y-52740000D03*
X85435000Y-55280000D03*
X85435000Y-65440000D03*
X85435000Y-90839999D03*
X85435000Y-67979999D03*
X85435000Y-83220000D03*
X85435000Y-93380000D03*
X85435000Y-45120000D03*
X85435000Y-85759999D03*
X85435000Y-75600000D03*
X85435000Y-57820000D03*
X85435000Y-47660000D03*
X85435000Y-80680000D03*
X85435000Y-88300000D03*
X85435000Y-78140000D03*
X85435000Y-60360000D03*
X85435000Y-73059999D03*
X85435000Y-70520000D03*
X85435000Y-50200000D03*
X85435000Y-62900000D03*
X87975000Y-73059999D03*
X87975000Y-78140000D03*
X87975000Y-83220000D03*
X87975000Y-88300000D03*
X87975000Y-45120000D03*
X87975000Y-52740000D03*
X87975000Y-80680000D03*
X87975000Y-60360000D03*
X87975000Y-47660000D03*
X87975000Y-62900000D03*
X87975000Y-90839999D03*
X87975000Y-67979999D03*
X87975000Y-93380000D03*
X87975000Y-55280000D03*
X87975000Y-85759999D03*
X87975000Y-70520000D03*
X87975000Y-65440000D03*
X87975000Y-75600000D03*
X87975000Y-50200000D03*
X87975000Y-57820000D03*
X90515000Y-88300000D03*
X90515000Y-75600000D03*
X90515000Y-83220000D03*
X90515000Y-85759999D03*
X90515000Y-55280000D03*
X90515000Y-62900000D03*
X90515000Y-60360000D03*
X90515000Y-93380000D03*
X90515000Y-52740000D03*
X90515000Y-57820000D03*
X90515000Y-45120000D03*
X90515000Y-90839999D03*
X90515000Y-70520000D03*
X90515000Y-80680000D03*
X90515000Y-47660000D03*
X90515000Y-67979999D03*
X90515000Y-78140000D03*
X90515000Y-73059999D03*
X90515000Y-65440000D03*
X90515000Y-50200000D03*
X93055000Y-85759999D03*
X93055000Y-80680000D03*
X93055000Y-67979999D03*
X93055000Y-45120000D03*
X93055000Y-90839999D03*
X93055000Y-57820000D03*
X93055000Y-70520000D03*
X93055000Y-73059999D03*
X93055000Y-88300000D03*
X93055000Y-52740000D03*
X93055000Y-78140000D03*
X93055000Y-47660000D03*
X93055000Y-83220000D03*
X93055000Y-62900000D03*
X93055000Y-55280000D03*
X93055000Y-60360000D03*
X93055000Y-50200000D03*
X93055000Y-65440000D03*
X93055000Y-75600000D03*
X93055000Y-93380000D03*
M02*
