%TF.GenerationSoftware,KiCad,Pcbnew,10.0.5*%
%TF.CreationDate,2026-10-10T13:59:52+00:00*%
%TF.ProjectId,mono_panel_20x20,6d6f6e6f-5f70-4616-9e65-6c5f32307832,rev?*%
%TF.SameCoordinates,Original*%
%TF.FileFunction,Soldermask,Bot*%
%TF.FilePolarity,Negative*%
%FSLAX46Y46*%
G04 Gerber Fmt 4.6, Leading zero omitted, Abs format (unit mm)*
G04 Created by KiCad (PCBNEW 10.0.5) date 2026-10-10 13:59:52*
%MOMM*%
%LPD*%
G01*
G04 APERTURE LIST*
G04 APERTURE END LIST*
G36*
X58550000Y-130500000D02*
G01*
X58250000Y-130500000D01*
X58250000Y-129200000D01*
X58550000Y-129200000D01*
X58550000Y-130500000D01*
G37*
G36*
X59050000Y-130500000D02*
G01*
X58750000Y-130500000D01*
X58750000Y-129200000D01*
X59050000Y-129200000D01*
X59050000Y-130500000D01*
G37*
G36*
X59550000Y-130500000D02*
G01*
X59250000Y-130500000D01*
X59250000Y-129200000D01*
X59550000Y-129200000D01*
X59550000Y-130500000D01*
G37*
G36*
X60050000Y-130500000D02*
G01*
X59750000Y-130500000D01*
X59750000Y-129200000D01*
X60050000Y-129200000D01*
X60050000Y-130500000D01*
G37*
G36*
X60550000Y-130500000D02*
G01*
X60250000Y-130500000D01*
X60250000Y-129200000D01*
X60550000Y-129200000D01*
X60550000Y-130500000D01*
G37*
G36*
X61050000Y-130500000D02*
G01*
X60750000Y-130500000D01*
X60750000Y-129200000D01*
X61050000Y-129200000D01*
X61050000Y-130500000D01*
G37*
G36*
X61550000Y-130500000D02*
G01*
X61250000Y-130500000D01*
X61250000Y-129200000D01*
X61550000Y-129200000D01*
X61550000Y-130500000D01*
G37*
G36*
X62050000Y-130500000D02*
G01*
X61750000Y-130500000D01*
X61750000Y-129200000D01*
X62050000Y-129200000D01*
X62050000Y-130500000D01*
G37*
G36*
X62550000Y-130500000D02*
G01*
X62250000Y-130500000D01*
X62250000Y-129200000D01*
X62550000Y-129200000D01*
X62550000Y-130500000D01*
G37*
G36*
X63050000Y-130500000D02*
G01*
X62750000Y-130500000D01*
X62750000Y-129200000D01*
X63050000Y-129200000D01*
X63050000Y-130500000D01*
G37*
G36*
X63550000Y-130500000D02*
G01*
X63250000Y-130500000D01*
X63250000Y-129200000D01*
X63550000Y-129200000D01*
X63550000Y-130500000D01*
G37*
G36*
X64050000Y-130500000D02*
G01*
X63750000Y-130500000D01*
X63750000Y-129200000D01*
X64050000Y-129200000D01*
X64050000Y-130500000D01*
G37*
G36*
X64550000Y-130500000D02*
G01*
X64250000Y-130500000D01*
X64250000Y-129200000D01*
X64550000Y-129200000D01*
X64550000Y-130500000D01*
G37*
G36*
X65050000Y-130500000D02*
G01*
X64750000Y-130500000D01*
X64750000Y-129200000D01*
X65050000Y-129200000D01*
X65050000Y-130500000D01*
G37*
G36*
X65550000Y-130500000D02*
G01*
X65250000Y-130500000D01*
X65250000Y-129200000D01*
X65550000Y-129200000D01*
X65550000Y-130500000D01*
G37*
G36*
X66050000Y-130500000D02*
G01*
X65750000Y-130500000D01*
X65750000Y-129200000D01*
X66050000Y-129200000D01*
X66050000Y-130500000D01*
G37*
G36*
X66550000Y-130500000D02*
G01*
X66250000Y-130500000D01*
X66250000Y-129200000D01*
X66550000Y-129200000D01*
X66550000Y-130500000D01*
G37*
G36*
X67050000Y-130500000D02*
G01*
X66750000Y-130500000D01*
X66750000Y-129200000D01*
X67050000Y-129200000D01*
X67050000Y-130500000D01*
G37*
G36*
X67550000Y-130500000D02*
G01*
X67250000Y-130500000D01*
X67250000Y-129200000D01*
X67550000Y-129200000D01*
X67550000Y-130500000D01*
G37*
G36*
X68050000Y-130500000D02*
G01*
X67750000Y-130500000D01*
X67750000Y-129200000D01*
X68050000Y-129200000D01*
X68050000Y-130500000D01*
G37*
G36*
X68550000Y-130500000D02*
G01*
X68250000Y-130500000D01*
X68250000Y-129200000D01*
X68550000Y-129200000D01*
X68550000Y-130500000D01*
G37*
G36*
X69050000Y-130500000D02*
G01*
X68750000Y-130500000D01*
X68750000Y-129200000D01*
X69050000Y-129200000D01*
X69050000Y-130500000D01*
G37*
G36*
X69550000Y-130500000D02*
G01*
X69250000Y-130500000D01*
X69250000Y-129200000D01*
X69550000Y-129200000D01*
X69550000Y-130500000D01*
G37*
G36*
X70050000Y-130500000D02*
G01*
X69750000Y-130500000D01*
X69750000Y-129200000D01*
X70050000Y-129200000D01*
X70050000Y-130500000D01*
G37*
G36*
X70550000Y-130500000D02*
G01*
X70250000Y-130500000D01*
X70250000Y-129200000D01*
X70550000Y-129200000D01*
X70550000Y-130500000D01*
G37*
G36*
X71050000Y-130500000D02*
G01*
X70750000Y-130500000D01*
X70750000Y-129200000D01*
X71050000Y-129200000D01*
X71050000Y-130500000D01*
G37*
G36*
X71550000Y-130500000D02*
G01*
X71250000Y-130500000D01*
X71250000Y-129200000D01*
X71550000Y-129200000D01*
X71550000Y-130500000D01*
G37*
G36*
X72050000Y-130500000D02*
G01*
X71750000Y-130500000D01*
X71750000Y-129200000D01*
X72050000Y-129200000D01*
X72050000Y-130500000D01*
G37*
G36*
X72550000Y-130500000D02*
G01*
X72250000Y-130500000D01*
X72250000Y-129200000D01*
X72550000Y-129200000D01*
X72550000Y-130500000D01*
G37*
G36*
X73050000Y-130500000D02*
G01*
X72750000Y-130500000D01*
X72750000Y-129200000D01*
X73050000Y-129200000D01*
X73050000Y-130500000D01*
G37*
G36*
X73550000Y-130500000D02*
G01*
X73250000Y-130500000D01*
X73250000Y-129200000D01*
X73550000Y-129200000D01*
X73550000Y-130500000D01*
G37*
G36*
X74050000Y-130500000D02*
G01*
X73750000Y-130500000D01*
X73750000Y-129200000D01*
X74050000Y-129200000D01*
X74050000Y-130500000D01*
G37*
G36*
X74550000Y-130500000D02*
G01*
X74250000Y-130500000D01*
X74250000Y-129200000D01*
X74550000Y-129200000D01*
X74550000Y-130500000D01*
G37*
G36*
X75050000Y-130500000D02*
G01*
X74750000Y-130500000D01*
X74750000Y-129200000D01*
X75050000Y-129200000D01*
X75050000Y-130500000D01*
G37*
G36*
X75550000Y-130500000D02*
G01*
X75250000Y-130500000D01*
X75250000Y-129200000D01*
X75550000Y-129200000D01*
X75550000Y-130500000D01*
G37*
G36*
X76050000Y-130500000D02*
G01*
X75750000Y-130500000D01*
X75750000Y-129200000D01*
X76050000Y-129200000D01*
X76050000Y-130500000D01*
G37*
G36*
X76550000Y-130500000D02*
G01*
X76250000Y-130500000D01*
X76250000Y-129200000D01*
X76550000Y-129200000D01*
X76550000Y-130500000D01*
G37*
G36*
X77050000Y-130500000D02*
G01*
X76750000Y-130500000D01*
X76750000Y-129200000D01*
X77050000Y-129200000D01*
X77050000Y-130500000D01*
G37*
G36*
X77550000Y-130500000D02*
G01*
X77250000Y-130500000D01*
X77250000Y-129200000D01*
X77550000Y-129200000D01*
X77550000Y-130500000D01*
G37*
G36*
X78050000Y-130500000D02*
G01*
X77750000Y-130500000D01*
X77750000Y-129200000D01*
X78050000Y-129200000D01*
X78050000Y-130500000D01*
G37*
G36*
X57400000Y-127700000D02*
G01*
X55600000Y-127700000D01*
X55600000Y-125500000D01*
X57400000Y-125500000D01*
X57400000Y-127700000D01*
G37*
G36*
X80700000Y-127700000D02*
G01*
X78900000Y-127700000D01*
X78900000Y-125500000D01*
X80700000Y-125500000D01*
X80700000Y-127700000D01*
G37*
G36*
X10500000Y-80700000D02*
G01*
X8300000Y-80700000D01*
X8300000Y-78900000D01*
X10500000Y-78900000D01*
X10500000Y-80700000D01*
G37*
G36*
X6800000Y-78050000D02*
G01*
X5500000Y-78050000D01*
X5500000Y-77750000D01*
X6800000Y-77750000D01*
X6800000Y-78050000D01*
G37*
G36*
X6800000Y-77550000D02*
G01*
X5500000Y-77550000D01*
X5500000Y-77250000D01*
X6800000Y-77250000D01*
X6800000Y-77550000D01*
G37*
G36*
X6800000Y-77050000D02*
G01*
X5500000Y-77050000D01*
X5500000Y-76750000D01*
X6800000Y-76750000D01*
X6800000Y-77050000D01*
G37*
G36*
X6800000Y-76550000D02*
G01*
X5500000Y-76550000D01*
X5500000Y-76250000D01*
X6800000Y-76250000D01*
X6800000Y-76550000D01*
G37*
G36*
X6800000Y-76050000D02*
G01*
X5500000Y-76050000D01*
X5500000Y-75750000D01*
X6800000Y-75750000D01*
X6800000Y-76050000D01*
G37*
G36*
X6800000Y-75550000D02*
G01*
X5500000Y-75550000D01*
X5500000Y-75250000D01*
X6800000Y-75250000D01*
X6800000Y-75550000D01*
G37*
G36*
X6800000Y-75050000D02*
G01*
X5500000Y-75050000D01*
X5500000Y-74750000D01*
X6800000Y-74750000D01*
X6800000Y-75050000D01*
G37*
G36*
X6800000Y-74550000D02*
G01*
X5500000Y-74550000D01*
X5500000Y-74250000D01*
X6800000Y-74250000D01*
X6800000Y-74550000D01*
G37*
G36*
X6800000Y-74050000D02*
G01*
X5500000Y-74050000D01*
X5500000Y-73750000D01*
X6800000Y-73750000D01*
X6800000Y-74050000D01*
G37*
G36*
X6800000Y-73550000D02*
G01*
X5500000Y-73550000D01*
X5500000Y-73250000D01*
X6800000Y-73250000D01*
X6800000Y-73550000D01*
G37*
G36*
X6800000Y-73050000D02*
G01*
X5500000Y-73050000D01*
X5500000Y-72750000D01*
X6800000Y-72750000D01*
X6800000Y-73050000D01*
G37*
G36*
X6800000Y-72550000D02*
G01*
X5500000Y-72550000D01*
X5500000Y-72250000D01*
X6800000Y-72250000D01*
X6800000Y-72550000D01*
G37*
G36*
X6800000Y-72050000D02*
G01*
X5500000Y-72050000D01*
X5500000Y-71750000D01*
X6800000Y-71750000D01*
X6800000Y-72050000D01*
G37*
G36*
X6800000Y-71550000D02*
G01*
X5500000Y-71550000D01*
X5500000Y-71250000D01*
X6800000Y-71250000D01*
X6800000Y-71550000D01*
G37*
G36*
X6800000Y-71050000D02*
G01*
X5500000Y-71050000D01*
X5500000Y-70750000D01*
X6800000Y-70750000D01*
X6800000Y-71050000D01*
G37*
G36*
X6800000Y-70550000D02*
G01*
X5500000Y-70550000D01*
X5500000Y-70250000D01*
X6800000Y-70250000D01*
X6800000Y-70550000D01*
G37*
G36*
X6800000Y-70050000D02*
G01*
X5500000Y-70050000D01*
X5500000Y-69750000D01*
X6800000Y-69750000D01*
X6800000Y-70050000D01*
G37*
G36*
X6800000Y-69550000D02*
G01*
X5500000Y-69550000D01*
X5500000Y-69250000D01*
X6800000Y-69250000D01*
X6800000Y-69550000D01*
G37*
G36*
X6800000Y-69050000D02*
G01*
X5500000Y-69050000D01*
X5500000Y-68750000D01*
X6800000Y-68750000D01*
X6800000Y-69050000D01*
G37*
G36*
X6800000Y-68550000D02*
G01*
X5500000Y-68550000D01*
X5500000Y-68250000D01*
X6800000Y-68250000D01*
X6800000Y-68550000D01*
G37*
G36*
X6800000Y-68050000D02*
G01*
X5500000Y-68050000D01*
X5500000Y-67750000D01*
X6800000Y-67750000D01*
X6800000Y-68050000D01*
G37*
G36*
X6800000Y-67550000D02*
G01*
X5500000Y-67550000D01*
X5500000Y-67250000D01*
X6800000Y-67250000D01*
X6800000Y-67550000D01*
G37*
G36*
X6800000Y-67050000D02*
G01*
X5500000Y-67050000D01*
X5500000Y-66750000D01*
X6800000Y-66750000D01*
X6800000Y-67050000D01*
G37*
G36*
X6800000Y-66550000D02*
G01*
X5500000Y-66550000D01*
X5500000Y-66250000D01*
X6800000Y-66250000D01*
X6800000Y-66550000D01*
G37*
G36*
X6800000Y-66050000D02*
G01*
X5500000Y-66050000D01*
X5500000Y-65750000D01*
X6800000Y-65750000D01*
X6800000Y-66050000D01*
G37*
G36*
X6800000Y-65550000D02*
G01*
X5500000Y-65550000D01*
X5500000Y-65250000D01*
X6800000Y-65250000D01*
X6800000Y-65550000D01*
G37*
G36*
X6800000Y-65050000D02*
G01*
X5500000Y-65050000D01*
X5500000Y-64750000D01*
X6800000Y-64750000D01*
X6800000Y-65050000D01*
G37*
G36*
X6800000Y-64550000D02*
G01*
X5500000Y-64550000D01*
X5500000Y-64250000D01*
X6800000Y-64250000D01*
X6800000Y-64550000D01*
G37*
G36*
X6800000Y-64050000D02*
G01*
X5500000Y-64050000D01*
X5500000Y-63750000D01*
X6800000Y-63750000D01*
X6800000Y-64050000D01*
G37*
G36*
X6800000Y-63550000D02*
G01*
X5500000Y-63550000D01*
X5500000Y-63250000D01*
X6800000Y-63250000D01*
X6800000Y-63550000D01*
G37*
G36*
X6800000Y-63050000D02*
G01*
X5500000Y-63050000D01*
X5500000Y-62750000D01*
X6800000Y-62750000D01*
X6800000Y-63050000D01*
G37*
G36*
X6800000Y-62550000D02*
G01*
X5500000Y-62550000D01*
X5500000Y-62250000D01*
X6800000Y-62250000D01*
X6800000Y-62550000D01*
G37*
G36*
X6800000Y-62050000D02*
G01*
X5500000Y-62050000D01*
X5500000Y-61750000D01*
X6800000Y-61750000D01*
X6800000Y-62050000D01*
G37*
G36*
X6800000Y-61550000D02*
G01*
X5500000Y-61550000D01*
X5500000Y-61250000D01*
X6800000Y-61250000D01*
X6800000Y-61550000D01*
G37*
G36*
X6800000Y-61050000D02*
G01*
X5500000Y-61050000D01*
X5500000Y-60750000D01*
X6800000Y-60750000D01*
X6800000Y-61050000D01*
G37*
G36*
X6800000Y-60550000D02*
G01*
X5500000Y-60550000D01*
X5500000Y-60250000D01*
X6800000Y-60250000D01*
X6800000Y-60550000D01*
G37*
G36*
X6800000Y-60050000D02*
G01*
X5500000Y-60050000D01*
X5500000Y-59750000D01*
X6800000Y-59750000D01*
X6800000Y-60050000D01*
G37*
G36*
X6800000Y-59550000D02*
G01*
X5500000Y-59550000D01*
X5500000Y-59250000D01*
X6800000Y-59250000D01*
X6800000Y-59550000D01*
G37*
G36*
X6800000Y-59050000D02*
G01*
X5500000Y-59050000D01*
X5500000Y-58750000D01*
X6800000Y-58750000D01*
X6800000Y-59050000D01*
G37*
G36*
X6800000Y-58550000D02*
G01*
X5500000Y-58550000D01*
X5500000Y-58250000D01*
X6800000Y-58250000D01*
X6800000Y-58550000D01*
G37*
G36*
X10500000Y-57400000D02*
G01*
X8300000Y-57400000D01*
X8300000Y-55600000D01*
X10500000Y-55600000D01*
X10500000Y-57400000D01*
G37*
M02*
