%TF.GenerationSoftware,KiCad,Pcbnew,10.0.5*%
%TF.CreationDate,2026-10-10T13:59:52+00:00*%
%TF.ProjectId,mono_panel_20x20,6d6f6e6f-5f70-4616-9e65-6c5f32307832,rev?*%
%TF.SameCoordinates,Original*%
%TF.FileFunction,Copper,L1,Top*%
%TF.FilePolarity,Positive*%
%FSLAX46Y46*%
G04 Gerber Fmt 4.6, Leading zero omitted, Abs format (unit mm)*
G04 Created by KiCad (PCBNEW 10.0.5) date 2026-10-10 13:59:52*
%MOMM*%
%LPD*%
G01*
G04 APERTURE LIST*
G04 Aperture macros list*
%AMRoundRect*
0 Rectangle with rounded corners*
0 $1 Rounding radius*
0 $2 $3 $4 $5 $6 $7 $8 $9 X,Y pos of 4 corners*
0 Add a 4 corners polygon primitive as box body*
4,1,4,$2,$3,$4,$5,$6,$7,$8,$9,$2,$3,0*
0 Add four circle primitives for the rounded corners*
1,1,$1+$1,$2,$3*
1,1,$1+$1,$4,$5*
1,1,$1+$1,$6,$7*
1,1,$1+$1,$8,$9*
0 Add four rect primitives between the rounded corners*
20,1,$1+$1,$2,$3,$4,$5,0*
20,1,$1+$1,$4,$5,$6,$7,0*
20,1,$1+$1,$6,$7,$8,$9,0*
20,1,$1+$1,$8,$9,$2,$3,0*%
G04 Aperture macros list end*
%TA.AperFunction,SMDPad,CuDef*%
%ADD10R,0.750000X0.800000*%
%TD*%
%TA.AperFunction,SMDPad,CuDef*%
%ADD11RoundRect,0.112500X0.262500X0.287500X-0.262500X0.287500X-0.262500X-0.287500X0.262500X-0.287500X0*%
%TD*%
%TA.AperFunction,ViaPad*%
%ADD12C,0.450000*%
%TD*%
%TA.AperFunction,Conductor*%
%ADD13C,0.150000*%
%TD*%
%TA.AperFunction,Conductor*%
%ADD14C,0.200000*%
%TD*%
%TA.AperFunction,Conductor*%
%ADD15C,0.350000*%
%TD*%
%ADD16C,0.200000*%
G04 APERTURE END LIST*
D10*
%TO.P,D135,1,K*%
%TO.N,COL_15*%
X80355000Y-59260000D03*
D11*
%TO.P,D135,2,A*%
%TO.N,ROW_07_ANODE*%
X78805000Y-59260000D03*
%TD*%
D10*
%TO.P,D360,1,K*%
%TO.N,COL_20*%
X93055000Y-87200000D03*
D11*
%TO.P,D360,2,A*%
%TO.N,ROW_18_ANODE*%
X91505000Y-87200000D03*
%TD*%
D10*
%TO.P,D315,1,K*%
%TO.N,COL_15*%
X80355000Y-82120000D03*
D11*
%TO.P,D315,2,A*%
%TO.N,ROW_16_ANODE*%
X78805000Y-82120000D03*
%TD*%
D10*
%TO.P,D231,1,K*%
%TO.N,COL_11*%
X70195000Y-71960000D03*
D11*
%TO.P,D231,2,A*%
%TO.N,ROW_12_ANODE*%
X68645000Y-71960000D03*
%TD*%
D10*
%TO.P,D144,1,K*%
%TO.N,COL_04*%
X52415000Y-61800000D03*
D11*
%TO.P,D144,2,A*%
%TO.N,ROW_08_ANODE*%
X50865000Y-61800000D03*
%TD*%
D10*
%TO.P,D17,1,K*%
%TO.N,COL_17*%
X85435000Y-44020000D03*
D11*
%TO.P,D17,2,A*%
%TO.N,ROW_01_ANODE*%
X83885000Y-44020000D03*
%TD*%
D10*
%TO.P,D318,1,K*%
%TO.N,COL_18*%
X87975000Y-82120000D03*
D11*
%TO.P,D318,2,A*%
%TO.N,ROW_16_ANODE*%
X86425000Y-82120000D03*
%TD*%
D10*
%TO.P,D25,1,K*%
%TO.N,COL_05*%
X54955000Y-46560000D03*
D11*
%TO.P,D25,2,A*%
%TO.N,ROW_02_ANODE*%
X53405000Y-46560000D03*
%TD*%
D10*
%TO.P,D23,1,K*%
%TO.N,COL_03*%
X49875000Y-46560000D03*
D11*
%TO.P,D23,2,A*%
%TO.N,ROW_02_ANODE*%
X48325000Y-46560000D03*
%TD*%
D10*
%TO.P,D387,1,K*%
%TO.N,COL_07*%
X60035000Y-92280000D03*
D11*
%TO.P,D387,2,A*%
%TO.N,ROW_20_ANODE*%
X58485000Y-92280000D03*
%TD*%
D10*
%TO.P,D218,1,K*%
%TO.N,COL_18*%
X87975000Y-69420000D03*
D11*
%TO.P,D218,2,A*%
%TO.N,ROW_11_ANODE*%
X86425000Y-69420000D03*
%TD*%
D10*
%TO.P,D76,1,K*%
%TO.N,COL_16*%
X82895000Y-51640000D03*
D11*
%TO.P,D76,2,A*%
%TO.N,ROW_04_ANODE*%
X81345000Y-51640000D03*
%TD*%
D10*
%TO.P,D20,1,K*%
%TO.N,COL_20*%
X93055000Y-44020000D03*
D11*
%TO.P,D20,2,A*%
%TO.N,ROW_01_ANODE*%
X91505000Y-44020000D03*
%TD*%
D10*
%TO.P,D57,1,K*%
%TO.N,COL_17*%
X85435000Y-49100000D03*
D11*
%TO.P,D57,2,A*%
%TO.N,ROW_03_ANODE*%
X83885000Y-49100000D03*
%TD*%
D10*
%TO.P,D234,1,K*%
%TO.N,COL_14*%
X77815000Y-71960000D03*
D11*
%TO.P,D234,2,A*%
%TO.N,ROW_12_ANODE*%
X76265000Y-71960000D03*
%TD*%
D10*
%TO.P,D11,1,K*%
%TO.N,COL_11*%
X70195000Y-44020000D03*
D11*
%TO.P,D11,2,A*%
%TO.N,ROW_01_ANODE*%
X68645000Y-44020000D03*
%TD*%
D10*
%TO.P,D381,1,K*%
%TO.N,COL_01*%
X44795000Y-92280000D03*
D11*
%TO.P,D381,2,A*%
%TO.N,ROW_20_ANODE*%
X43245000Y-92280000D03*
%TD*%
D10*
%TO.P,D205,1,K*%
%TO.N,COL_05*%
X54955000Y-69420000D03*
D11*
%TO.P,D205,2,A*%
%TO.N,ROW_11_ANODE*%
X53405000Y-69420000D03*
%TD*%
D10*
%TO.P,D359,1,K*%
%TO.N,COL_19*%
X90515000Y-87200000D03*
D11*
%TO.P,D359,2,A*%
%TO.N,ROW_18_ANODE*%
X88965000Y-87200000D03*
%TD*%
D10*
%TO.P,D92,1,K*%
%TO.N,COL_12*%
X72735000Y-54180000D03*
D11*
%TO.P,D92,2,A*%
%TO.N,ROW_05_ANODE*%
X71185000Y-54180000D03*
%TD*%
D10*
%TO.P,D290,1,K*%
%TO.N,COL_10*%
X67655000Y-79580000D03*
D11*
%TO.P,D290,2,A*%
%TO.N,ROW_15_ANODE*%
X66105000Y-79580000D03*
%TD*%
D10*
%TO.P,D46,1,K*%
%TO.N,COL_06*%
X57495000Y-49100000D03*
D11*
%TO.P,D46,2,A*%
%TO.N,ROW_03_ANODE*%
X55945000Y-49100000D03*
%TD*%
D10*
%TO.P,D355,1,K*%
%TO.N,COL_15*%
X80355000Y-87200000D03*
D11*
%TO.P,D355,2,A*%
%TO.N,ROW_18_ANODE*%
X78805000Y-87200000D03*
%TD*%
D10*
%TO.P,D264,1,K*%
%TO.N,COL_04*%
X52415000Y-77040000D03*
D11*
%TO.P,D264,2,A*%
%TO.N,ROW_14_ANODE*%
X50865000Y-77040000D03*
%TD*%
D10*
%TO.P,D127,1,K*%
%TO.N,COL_07*%
X60035000Y-59260000D03*
D11*
%TO.P,D127,2,A*%
%TO.N,ROW_07_ANODE*%
X58485000Y-59260000D03*
%TD*%
D10*
%TO.P,D294,1,K*%
%TO.N,COL_14*%
X77815000Y-79580000D03*
D11*
%TO.P,D294,2,A*%
%TO.N,ROW_15_ANODE*%
X76265000Y-79580000D03*
%TD*%
D10*
%TO.P,D70,1,K*%
%TO.N,COL_10*%
X67655000Y-51640000D03*
D11*
%TO.P,D70,2,A*%
%TO.N,ROW_04_ANODE*%
X66105000Y-51640000D03*
%TD*%
D10*
%TO.P,D327,1,K*%
%TO.N,COL_07*%
X60035000Y-84660000D03*
D11*
%TO.P,D327,2,A*%
%TO.N,ROW_17_ANODE*%
X58485000Y-84660000D03*
%TD*%
D10*
%TO.P,D273,1,K*%
%TO.N,COL_13*%
X75275000Y-77040000D03*
D11*
%TO.P,D273,2,A*%
%TO.N,ROW_14_ANODE*%
X73725000Y-77040000D03*
%TD*%
D10*
%TO.P,D33,1,K*%
%TO.N,COL_13*%
X75275000Y-46560000D03*
D11*
%TO.P,D33,2,A*%
%TO.N,ROW_02_ANODE*%
X73725000Y-46560000D03*
%TD*%
D10*
%TO.P,D313,1,K*%
%TO.N,COL_13*%
X75275000Y-82120000D03*
D11*
%TO.P,D313,2,A*%
%TO.N,ROW_16_ANODE*%
X73725000Y-82120000D03*
%TD*%
D10*
%TO.P,D298,1,K*%
%TO.N,COL_18*%
X87975000Y-79580000D03*
D11*
%TO.P,D298,2,A*%
%TO.N,ROW_15_ANODE*%
X86425000Y-79580000D03*
%TD*%
D10*
%TO.P,D206,1,K*%
%TO.N,COL_06*%
X57495000Y-69420000D03*
D11*
%TO.P,D206,2,A*%
%TO.N,ROW_11_ANODE*%
X55945000Y-69420000D03*
%TD*%
D10*
%TO.P,D366,1,K*%
%TO.N,COL_06*%
X57495000Y-89740000D03*
D11*
%TO.P,D366,2,A*%
%TO.N,ROW_19_ANODE*%
X55945000Y-89740000D03*
%TD*%
D10*
%TO.P,D29,1,K*%
%TO.N,COL_09*%
X65115000Y-46560000D03*
D11*
%TO.P,D29,2,A*%
%TO.N,ROW_02_ANODE*%
X63565000Y-46560000D03*
%TD*%
D10*
%TO.P,D350,1,K*%
%TO.N,COL_10*%
X67655000Y-87200000D03*
D11*
%TO.P,D350,2,A*%
%TO.N,ROW_18_ANODE*%
X66105000Y-87200000D03*
%TD*%
D10*
%TO.P,D21,1,K*%
%TO.N,COL_01*%
X44795000Y-46560000D03*
D11*
%TO.P,D21,2,A*%
%TO.N,ROW_02_ANODE*%
X43245000Y-46560000D03*
%TD*%
D10*
%TO.P,D338,1,K*%
%TO.N,COL_18*%
X87975000Y-84660000D03*
D11*
%TO.P,D338,2,A*%
%TO.N,ROW_17_ANODE*%
X86425000Y-84660000D03*
%TD*%
D10*
%TO.P,D277,1,K*%
%TO.N,COL_17*%
X85435000Y-77040000D03*
D11*
%TO.P,D277,2,A*%
%TO.N,ROW_14_ANODE*%
X83885000Y-77040000D03*
%TD*%
D10*
%TO.P,D153,1,K*%
%TO.N,COL_13*%
X75275000Y-61800000D03*
D11*
%TO.P,D153,2,A*%
%TO.N,ROW_08_ANODE*%
X73725000Y-61800000D03*
%TD*%
D10*
%TO.P,D103,1,K*%
%TO.N,COL_03*%
X49875000Y-56720000D03*
D11*
%TO.P,D103,2,A*%
%TO.N,ROW_06_ANODE*%
X48325000Y-56720000D03*
%TD*%
D10*
%TO.P,D310,1,K*%
%TO.N,COL_10*%
X67655000Y-82120000D03*
D11*
%TO.P,D310,2,A*%
%TO.N,ROW_16_ANODE*%
X66105000Y-82120000D03*
%TD*%
D10*
%TO.P,D329,1,K*%
%TO.N,COL_09*%
X65115000Y-84660000D03*
D11*
%TO.P,D329,2,A*%
%TO.N,ROW_17_ANODE*%
X63565000Y-84660000D03*
%TD*%
D10*
%TO.P,D186,1,K*%
%TO.N,COL_06*%
X57495000Y-66880000D03*
D11*
%TO.P,D186,2,A*%
%TO.N,ROW_10_ANODE*%
X55945000Y-66880000D03*
%TD*%
D10*
%TO.P,D314,1,K*%
%TO.N,COL_14*%
X77815000Y-82120000D03*
D11*
%TO.P,D314,2,A*%
%TO.N,ROW_16_ANODE*%
X76265000Y-82120000D03*
%TD*%
D10*
%TO.P,D83,1,K*%
%TO.N,COL_03*%
X49875000Y-54180000D03*
D11*
%TO.P,D83,2,A*%
%TO.N,ROW_05_ANODE*%
X48325000Y-54180000D03*
%TD*%
D10*
%TO.P,D114,1,K*%
%TO.N,COL_14*%
X77815000Y-56720000D03*
D11*
%TO.P,D114,2,A*%
%TO.N,ROW_06_ANODE*%
X76265000Y-56720000D03*
%TD*%
D10*
%TO.P,D222,1,K*%
%TO.N,COL_02*%
X47335000Y-71960000D03*
D11*
%TO.P,D222,2,A*%
%TO.N,ROW_12_ANODE*%
X45785000Y-71960000D03*
%TD*%
D10*
%TO.P,D345,1,K*%
%TO.N,COL_05*%
X54955000Y-87200000D03*
D11*
%TO.P,D345,2,A*%
%TO.N,ROW_18_ANODE*%
X53405000Y-87200000D03*
%TD*%
D10*
%TO.P,D123,1,K*%
%TO.N,COL_03*%
X49875000Y-59260000D03*
D11*
%TO.P,D123,2,A*%
%TO.N,ROW_07_ANODE*%
X48325000Y-59260000D03*
%TD*%
D10*
%TO.P,D239,1,K*%
%TO.N,COL_19*%
X90515000Y-71960000D03*
D11*
%TO.P,D239,2,A*%
%TO.N,ROW_12_ANODE*%
X88965000Y-71960000D03*
%TD*%
D10*
%TO.P,D34,1,K*%
%TO.N,COL_14*%
X77815000Y-46560000D03*
D11*
%TO.P,D34,2,A*%
%TO.N,ROW_02_ANODE*%
X76265000Y-46560000D03*
%TD*%
D10*
%TO.P,D192,1,K*%
%TO.N,COL_12*%
X72735000Y-66880000D03*
D11*
%TO.P,D192,2,A*%
%TO.N,ROW_10_ANODE*%
X71185000Y-66880000D03*
%TD*%
D10*
%TO.P,D166,1,K*%
%TO.N,COL_06*%
X57495000Y-64340000D03*
D11*
%TO.P,D166,2,A*%
%TO.N,ROW_09_ANODE*%
X55945000Y-64340000D03*
%TD*%
D10*
%TO.P,D151,1,K*%
%TO.N,COL_11*%
X70195000Y-61800000D03*
D11*
%TO.P,D151,2,A*%
%TO.N,ROW_08_ANODE*%
X68645000Y-61800000D03*
%TD*%
D10*
%TO.P,D119,1,K*%
%TO.N,COL_19*%
X90515000Y-56720000D03*
D11*
%TO.P,D119,2,A*%
%TO.N,ROW_06_ANODE*%
X88965000Y-56720000D03*
%TD*%
D10*
%TO.P,D371,1,K*%
%TO.N,COL_11*%
X70195000Y-89740000D03*
D11*
%TO.P,D371,2,A*%
%TO.N,ROW_19_ANODE*%
X68645000Y-89740000D03*
%TD*%
D10*
%TO.P,D161,1,K*%
%TO.N,COL_01*%
X44795000Y-64340000D03*
D11*
%TO.P,D161,2,A*%
%TO.N,ROW_09_ANODE*%
X43245000Y-64340000D03*
%TD*%
D10*
%TO.P,D262,1,K*%
%TO.N,COL_02*%
X47335000Y-77040000D03*
D11*
%TO.P,D262,2,A*%
%TO.N,ROW_14_ANODE*%
X45785000Y-77040000D03*
%TD*%
D10*
%TO.P,D40,1,K*%
%TO.N,COL_20*%
X93055000Y-46560000D03*
D11*
%TO.P,D40,2,A*%
%TO.N,ROW_02_ANODE*%
X91505000Y-46560000D03*
%TD*%
D10*
%TO.P,D52,1,K*%
%TO.N,COL_12*%
X72735000Y-49100000D03*
D11*
%TO.P,D52,2,A*%
%TO.N,ROW_03_ANODE*%
X71185000Y-49100000D03*
%TD*%
D10*
%TO.P,D201,1,K*%
%TO.N,COL_01*%
X44795000Y-69420000D03*
D11*
%TO.P,D201,2,A*%
%TO.N,ROW_11_ANODE*%
X43245000Y-69420000D03*
%TD*%
D10*
%TO.P,D175,1,K*%
%TO.N,COL_15*%
X80355000Y-64340000D03*
D11*
%TO.P,D175,2,A*%
%TO.N,ROW_09_ANODE*%
X78805000Y-64340000D03*
%TD*%
D10*
%TO.P,D238,1,K*%
%TO.N,COL_18*%
X87975000Y-71960000D03*
D11*
%TO.P,D238,2,A*%
%TO.N,ROW_12_ANODE*%
X86425000Y-71960000D03*
%TD*%
D10*
%TO.P,D283,1,K*%
%TO.N,COL_03*%
X49875000Y-79580000D03*
D11*
%TO.P,D283,2,A*%
%TO.N,ROW_15_ANODE*%
X48325000Y-79580000D03*
%TD*%
D10*
%TO.P,D49,1,K*%
%TO.N,COL_09*%
X65115000Y-49100000D03*
D11*
%TO.P,D49,2,A*%
%TO.N,ROW_03_ANODE*%
X63565000Y-49100000D03*
%TD*%
D10*
%TO.P,D41,1,K*%
%TO.N,COL_01*%
X44795000Y-49100000D03*
D11*
%TO.P,D41,2,A*%
%TO.N,ROW_03_ANODE*%
X43245000Y-49100000D03*
%TD*%
D10*
%TO.P,D341,1,K*%
%TO.N,COL_01*%
X44795000Y-87200000D03*
D11*
%TO.P,D341,2,A*%
%TO.N,ROW_18_ANODE*%
X43245000Y-87200000D03*
%TD*%
D10*
%TO.P,D150,1,K*%
%TO.N,COL_10*%
X67655000Y-61800000D03*
D11*
%TO.P,D150,2,A*%
%TO.N,ROW_08_ANODE*%
X66105000Y-61800000D03*
%TD*%
D10*
%TO.P,D141,1,K*%
%TO.N,COL_01*%
X44795000Y-61800000D03*
D11*
%TO.P,D141,2,A*%
%TO.N,ROW_08_ANODE*%
X43245000Y-61800000D03*
%TD*%
D10*
%TO.P,D253,1,K*%
%TO.N,COL_13*%
X75275000Y-74500000D03*
D11*
%TO.P,D253,2,A*%
%TO.N,ROW_13_ANODE*%
X73725000Y-74500000D03*
%TD*%
D10*
%TO.P,D91,1,K*%
%TO.N,COL_11*%
X70195000Y-54180000D03*
D11*
%TO.P,D91,2,A*%
%TO.N,ROW_05_ANODE*%
X68645000Y-54180000D03*
%TD*%
D10*
%TO.P,D142,1,K*%
%TO.N,COL_02*%
X47335000Y-61800000D03*
D11*
%TO.P,D142,2,A*%
%TO.N,ROW_08_ANODE*%
X45785000Y-61800000D03*
%TD*%
D10*
%TO.P,D58,1,K*%
%TO.N,COL_18*%
X87975000Y-49100000D03*
D11*
%TO.P,D58,2,A*%
%TO.N,ROW_03_ANODE*%
X86425000Y-49100000D03*
%TD*%
D10*
%TO.P,D15,1,K*%
%TO.N,COL_15*%
X80355000Y-44020000D03*
D11*
%TO.P,D15,2,A*%
%TO.N,ROW_01_ANODE*%
X78805000Y-44020000D03*
%TD*%
D10*
%TO.P,D131,1,K*%
%TO.N,COL_11*%
X70195000Y-59260000D03*
D11*
%TO.P,D131,2,A*%
%TO.N,ROW_07_ANODE*%
X68645000Y-59260000D03*
%TD*%
D10*
%TO.P,D249,1,K*%
%TO.N,COL_09*%
X65115000Y-74500000D03*
D11*
%TO.P,D249,2,A*%
%TO.N,ROW_13_ANODE*%
X63565000Y-74500000D03*
%TD*%
D10*
%TO.P,D296,1,K*%
%TO.N,COL_16*%
X82895000Y-79580000D03*
D11*
%TO.P,D296,2,A*%
%TO.N,ROW_15_ANODE*%
X81345000Y-79580000D03*
%TD*%
D10*
%TO.P,D122,1,K*%
%TO.N,COL_02*%
X47335000Y-59260000D03*
D11*
%TO.P,D122,2,A*%
%TO.N,ROW_07_ANODE*%
X45785000Y-59260000D03*
%TD*%
D10*
%TO.P,D311,1,K*%
%TO.N,COL_11*%
X70195000Y-82120000D03*
D11*
%TO.P,D311,2,A*%
%TO.N,ROW_16_ANODE*%
X68645000Y-82120000D03*
%TD*%
D10*
%TO.P,D267,1,K*%
%TO.N,COL_07*%
X60035000Y-77040000D03*
D11*
%TO.P,D267,2,A*%
%TO.N,ROW_14_ANODE*%
X58485000Y-77040000D03*
%TD*%
D10*
%TO.P,D258,1,K*%
%TO.N,COL_18*%
X87975000Y-74500000D03*
D11*
%TO.P,D258,2,A*%
%TO.N,ROW_13_ANODE*%
X86425000Y-74500000D03*
%TD*%
D10*
%TO.P,D163,1,K*%
%TO.N,COL_03*%
X49875000Y-64340000D03*
D11*
%TO.P,D163,2,A*%
%TO.N,ROW_09_ANODE*%
X48325000Y-64340000D03*
%TD*%
D10*
%TO.P,D157,1,K*%
%TO.N,COL_17*%
X85435000Y-61800000D03*
D11*
%TO.P,D157,2,A*%
%TO.N,ROW_08_ANODE*%
X83885000Y-61800000D03*
%TD*%
D10*
%TO.P,D389,1,K*%
%TO.N,COL_09*%
X65115000Y-92280000D03*
D11*
%TO.P,D389,2,A*%
%TO.N,ROW_20_ANODE*%
X63565000Y-92280000D03*
%TD*%
D10*
%TO.P,D211,1,K*%
%TO.N,COL_11*%
X70195000Y-69420000D03*
D11*
%TO.P,D211,2,A*%
%TO.N,ROW_11_ANODE*%
X68645000Y-69420000D03*
%TD*%
D10*
%TO.P,D104,1,K*%
%TO.N,COL_04*%
X52415000Y-56720000D03*
D11*
%TO.P,D104,2,A*%
%TO.N,ROW_06_ANODE*%
X50865000Y-56720000D03*
%TD*%
D10*
%TO.P,D256,1,K*%
%TO.N,COL_16*%
X82895000Y-74500000D03*
D11*
%TO.P,D256,2,A*%
%TO.N,ROW_13_ANODE*%
X81345000Y-74500000D03*
%TD*%
D10*
%TO.P,D64,1,K*%
%TO.N,COL_04*%
X52415000Y-51640000D03*
D11*
%TO.P,D64,2,A*%
%TO.N,ROW_04_ANODE*%
X50865000Y-51640000D03*
%TD*%
D10*
%TO.P,D53,1,K*%
%TO.N,COL_13*%
X75275000Y-49100000D03*
D11*
%TO.P,D53,2,A*%
%TO.N,ROW_03_ANODE*%
X73725000Y-49100000D03*
%TD*%
D10*
%TO.P,D8,1,K*%
%TO.N,COL_08*%
X62575000Y-44020000D03*
D11*
%TO.P,D8,2,A*%
%TO.N,ROW_01_ANODE*%
X61025000Y-44020000D03*
%TD*%
D10*
%TO.P,D297,1,K*%
%TO.N,COL_17*%
X85435000Y-79580000D03*
D11*
%TO.P,D297,2,A*%
%TO.N,ROW_15_ANODE*%
X83885000Y-79580000D03*
%TD*%
D10*
%TO.P,D1,1,K*%
%TO.N,COL_01*%
X44795000Y-44020000D03*
D11*
%TO.P,D1,2,A*%
%TO.N,ROW_01_ANODE*%
X43245000Y-44020000D03*
%TD*%
D10*
%TO.P,D379,1,K*%
%TO.N,COL_19*%
X90515000Y-89740000D03*
D11*
%TO.P,D379,2,A*%
%TO.N,ROW_19_ANODE*%
X88965000Y-89740000D03*
%TD*%
D10*
%TO.P,D48,1,K*%
%TO.N,COL_08*%
X62575000Y-49100000D03*
D11*
%TO.P,D48,2,A*%
%TO.N,ROW_03_ANODE*%
X61025000Y-49100000D03*
%TD*%
D10*
%TO.P,D356,1,K*%
%TO.N,COL_16*%
X82895000Y-87200000D03*
D11*
%TO.P,D356,2,A*%
%TO.N,ROW_18_ANODE*%
X81345000Y-87200000D03*
%TD*%
D10*
%TO.P,D67,1,K*%
%TO.N,COL_07*%
X60035000Y-51640000D03*
D11*
%TO.P,D67,2,A*%
%TO.N,ROW_04_ANODE*%
X58485000Y-51640000D03*
%TD*%
D10*
%TO.P,D80,1,K*%
%TO.N,COL_20*%
X93055000Y-51640000D03*
D11*
%TO.P,D80,2,A*%
%TO.N,ROW_04_ANODE*%
X91505000Y-51640000D03*
%TD*%
D10*
%TO.P,D24,1,K*%
%TO.N,COL_04*%
X52415000Y-46560000D03*
D11*
%TO.P,D24,2,A*%
%TO.N,ROW_02_ANODE*%
X50865000Y-46560000D03*
%TD*%
D10*
%TO.P,D138,1,K*%
%TO.N,COL_18*%
X87975000Y-59260000D03*
D11*
%TO.P,D138,2,A*%
%TO.N,ROW_07_ANODE*%
X86425000Y-59260000D03*
%TD*%
D10*
%TO.P,D300,1,K*%
%TO.N,COL_20*%
X93055000Y-79580000D03*
D11*
%TO.P,D300,2,A*%
%TO.N,ROW_15_ANODE*%
X91505000Y-79580000D03*
%TD*%
D10*
%TO.P,D95,1,K*%
%TO.N,COL_15*%
X80355000Y-54180000D03*
D11*
%TO.P,D95,2,A*%
%TO.N,ROW_05_ANODE*%
X78805000Y-54180000D03*
%TD*%
D10*
%TO.P,D190,1,K*%
%TO.N,COL_10*%
X67655000Y-66880000D03*
D11*
%TO.P,D190,2,A*%
%TO.N,ROW_10_ANODE*%
X66105000Y-66880000D03*
%TD*%
D10*
%TO.P,D380,1,K*%
%TO.N,COL_20*%
X93055000Y-89740000D03*
D11*
%TO.P,D380,2,A*%
%TO.N,ROW_19_ANODE*%
X91505000Y-89740000D03*
%TD*%
D10*
%TO.P,D173,1,K*%
%TO.N,COL_13*%
X75275000Y-64340000D03*
D11*
%TO.P,D173,2,A*%
%TO.N,ROW_09_ANODE*%
X73725000Y-64340000D03*
%TD*%
D10*
%TO.P,D386,1,K*%
%TO.N,COL_06*%
X57495000Y-92280000D03*
D11*
%TO.P,D386,2,A*%
%TO.N,ROW_20_ANODE*%
X55945000Y-92280000D03*
%TD*%
D10*
%TO.P,D105,1,K*%
%TO.N,COL_05*%
X54955000Y-56720000D03*
D11*
%TO.P,D105,2,A*%
%TO.N,ROW_06_ANODE*%
X53405000Y-56720000D03*
%TD*%
D10*
%TO.P,D13,1,K*%
%TO.N,COL_13*%
X75275000Y-44020000D03*
D11*
%TO.P,D13,2,A*%
%TO.N,ROW_01_ANODE*%
X73725000Y-44020000D03*
%TD*%
D10*
%TO.P,D214,1,K*%
%TO.N,COL_14*%
X77815000Y-69420000D03*
D11*
%TO.P,D214,2,A*%
%TO.N,ROW_11_ANODE*%
X76265000Y-69420000D03*
%TD*%
D10*
%TO.P,D321,1,K*%
%TO.N,COL_01*%
X44795000Y-84660000D03*
D11*
%TO.P,D321,2,A*%
%TO.N,ROW_17_ANODE*%
X43245000Y-84660000D03*
%TD*%
D10*
%TO.P,D374,1,K*%
%TO.N,COL_14*%
X77815000Y-89740000D03*
D11*
%TO.P,D374,2,A*%
%TO.N,ROW_19_ANODE*%
X76265000Y-89740000D03*
%TD*%
D10*
%TO.P,D145,1,K*%
%TO.N,COL_05*%
X54955000Y-61800000D03*
D11*
%TO.P,D145,2,A*%
%TO.N,ROW_08_ANODE*%
X53405000Y-61800000D03*
%TD*%
D10*
%TO.P,D30,1,K*%
%TO.N,COL_10*%
X67655000Y-46560000D03*
D11*
%TO.P,D30,2,A*%
%TO.N,ROW_02_ANODE*%
X66105000Y-46560000D03*
%TD*%
D10*
%TO.P,D217,1,K*%
%TO.N,COL_17*%
X85435000Y-69420000D03*
D11*
%TO.P,D217,2,A*%
%TO.N,ROW_11_ANODE*%
X83885000Y-69420000D03*
%TD*%
D10*
%TO.P,D388,1,K*%
%TO.N,COL_08*%
X62575000Y-92280000D03*
D11*
%TO.P,D388,2,A*%
%TO.N,ROW_20_ANODE*%
X61025000Y-92280000D03*
%TD*%
D10*
%TO.P,D336,1,K*%
%TO.N,COL_16*%
X82895000Y-84660000D03*
D11*
%TO.P,D336,2,A*%
%TO.N,ROW_17_ANODE*%
X81345000Y-84660000D03*
%TD*%
D10*
%TO.P,D254,1,K*%
%TO.N,COL_14*%
X77815000Y-74500000D03*
D11*
%TO.P,D254,2,A*%
%TO.N,ROW_13_ANODE*%
X76265000Y-74500000D03*
%TD*%
D10*
%TO.P,D36,1,K*%
%TO.N,COL_16*%
X82895000Y-46560000D03*
D11*
%TO.P,D36,2,A*%
%TO.N,ROW_02_ANODE*%
X81345000Y-46560000D03*
%TD*%
D10*
%TO.P,D304,1,K*%
%TO.N,COL_04*%
X52415000Y-82120000D03*
D11*
%TO.P,D304,2,A*%
%TO.N,ROW_16_ANODE*%
X50865000Y-82120000D03*
%TD*%
D10*
%TO.P,D177,1,K*%
%TO.N,COL_17*%
X85435000Y-64340000D03*
D11*
%TO.P,D177,2,A*%
%TO.N,ROW_09_ANODE*%
X83885000Y-64340000D03*
%TD*%
D10*
%TO.P,D148,1,K*%
%TO.N,COL_08*%
X62575000Y-61800000D03*
D11*
%TO.P,D148,2,A*%
%TO.N,ROW_08_ANODE*%
X61025000Y-61800000D03*
%TD*%
D10*
%TO.P,D269,1,K*%
%TO.N,COL_09*%
X65115000Y-77040000D03*
D11*
%TO.P,D269,2,A*%
%TO.N,ROW_14_ANODE*%
X63565000Y-77040000D03*
%TD*%
D10*
%TO.P,D107,1,K*%
%TO.N,COL_07*%
X60035000Y-56720000D03*
D11*
%TO.P,D107,2,A*%
%TO.N,ROW_06_ANODE*%
X58485000Y-56720000D03*
%TD*%
D10*
%TO.P,D90,1,K*%
%TO.N,COL_10*%
X67655000Y-54180000D03*
D11*
%TO.P,D90,2,A*%
%TO.N,ROW_05_ANODE*%
X66105000Y-54180000D03*
%TD*%
D10*
%TO.P,D270,1,K*%
%TO.N,COL_10*%
X67655000Y-77040000D03*
D11*
%TO.P,D270,2,A*%
%TO.N,ROW_14_ANODE*%
X66105000Y-77040000D03*
%TD*%
D10*
%TO.P,D54,1,K*%
%TO.N,COL_14*%
X77815000Y-49100000D03*
D11*
%TO.P,D54,2,A*%
%TO.N,ROW_03_ANODE*%
X76265000Y-49100000D03*
%TD*%
D10*
%TO.P,D126,1,K*%
%TO.N,COL_06*%
X57495000Y-59260000D03*
D11*
%TO.P,D126,2,A*%
%TO.N,ROW_07_ANODE*%
X55945000Y-59260000D03*
%TD*%
D10*
%TO.P,D124,1,K*%
%TO.N,COL_04*%
X52415000Y-59260000D03*
D11*
%TO.P,D124,2,A*%
%TO.N,ROW_07_ANODE*%
X50865000Y-59260000D03*
%TD*%
D10*
%TO.P,D235,1,K*%
%TO.N,COL_15*%
X80355000Y-71960000D03*
D11*
%TO.P,D235,2,A*%
%TO.N,ROW_12_ANODE*%
X78805000Y-71960000D03*
%TD*%
D10*
%TO.P,D61,1,K*%
%TO.N,COL_01*%
X44795000Y-51640000D03*
D11*
%TO.P,D61,2,A*%
%TO.N,ROW_04_ANODE*%
X43245000Y-51640000D03*
%TD*%
D10*
%TO.P,D286,1,K*%
%TO.N,COL_06*%
X57495000Y-79580000D03*
D11*
%TO.P,D286,2,A*%
%TO.N,ROW_15_ANODE*%
X55945000Y-79580000D03*
%TD*%
D10*
%TO.P,D197,1,K*%
%TO.N,COL_17*%
X85435000Y-66880000D03*
D11*
%TO.P,D197,2,A*%
%TO.N,ROW_10_ANODE*%
X83885000Y-66880000D03*
%TD*%
D10*
%TO.P,D227,1,K*%
%TO.N,COL_07*%
X60035000Y-71960000D03*
D11*
%TO.P,D227,2,A*%
%TO.N,ROW_12_ANODE*%
X58485000Y-71960000D03*
%TD*%
D10*
%TO.P,D263,1,K*%
%TO.N,COL_03*%
X49875000Y-77040000D03*
D11*
%TO.P,D263,2,A*%
%TO.N,ROW_14_ANODE*%
X48325000Y-77040000D03*
%TD*%
D10*
%TO.P,D22,1,K*%
%TO.N,COL_02*%
X47335000Y-46560000D03*
D11*
%TO.P,D22,2,A*%
%TO.N,ROW_02_ANODE*%
X45785000Y-46560000D03*
%TD*%
D10*
%TO.P,D295,1,K*%
%TO.N,COL_15*%
X80355000Y-79580000D03*
D11*
%TO.P,D295,2,A*%
%TO.N,ROW_15_ANODE*%
X78805000Y-79580000D03*
%TD*%
D10*
%TO.P,D88,1,K*%
%TO.N,COL_08*%
X62575000Y-54180000D03*
D11*
%TO.P,D88,2,A*%
%TO.N,ROW_05_ANODE*%
X61025000Y-54180000D03*
%TD*%
D10*
%TO.P,D5,1,K*%
%TO.N,COL_05*%
X54955000Y-44020000D03*
D11*
%TO.P,D5,2,A*%
%TO.N,ROW_01_ANODE*%
X53405000Y-44020000D03*
%TD*%
D10*
%TO.P,D372,1,K*%
%TO.N,COL_12*%
X72735000Y-89740000D03*
D11*
%TO.P,D372,2,A*%
%TO.N,ROW_19_ANODE*%
X71185000Y-89740000D03*
%TD*%
D10*
%TO.P,D47,1,K*%
%TO.N,COL_07*%
X60035000Y-49100000D03*
D11*
%TO.P,D47,2,A*%
%TO.N,ROW_03_ANODE*%
X58485000Y-49100000D03*
%TD*%
D10*
%TO.P,D101,1,K*%
%TO.N,COL_01*%
X44795000Y-56720000D03*
D11*
%TO.P,D101,2,A*%
%TO.N,ROW_06_ANODE*%
X43245000Y-56720000D03*
%TD*%
D10*
%TO.P,D233,1,K*%
%TO.N,COL_13*%
X75275000Y-71960000D03*
D11*
%TO.P,D233,2,A*%
%TO.N,ROW_12_ANODE*%
X73725000Y-71960000D03*
%TD*%
D10*
%TO.P,D208,1,K*%
%TO.N,COL_08*%
X62575000Y-69420000D03*
D11*
%TO.P,D208,2,A*%
%TO.N,ROW_11_ANODE*%
X61025000Y-69420000D03*
%TD*%
D10*
%TO.P,D287,1,K*%
%TO.N,COL_07*%
X60035000Y-79580000D03*
D11*
%TO.P,D287,2,A*%
%TO.N,ROW_15_ANODE*%
X58485000Y-79580000D03*
%TD*%
D10*
%TO.P,D50,1,K*%
%TO.N,COL_10*%
X67655000Y-49100000D03*
D11*
%TO.P,D50,2,A*%
%TO.N,ROW_03_ANODE*%
X66105000Y-49100000D03*
%TD*%
D10*
%TO.P,D200,1,K*%
%TO.N,COL_20*%
X93055000Y-66880000D03*
D11*
%TO.P,D200,2,A*%
%TO.N,ROW_10_ANODE*%
X91505000Y-66880000D03*
%TD*%
D10*
%TO.P,D324,1,K*%
%TO.N,COL_04*%
X52415000Y-84660000D03*
D11*
%TO.P,D324,2,A*%
%TO.N,ROW_17_ANODE*%
X50865000Y-84660000D03*
%TD*%
D10*
%TO.P,D115,1,K*%
%TO.N,COL_15*%
X80355000Y-56720000D03*
D11*
%TO.P,D115,2,A*%
%TO.N,ROW_06_ANODE*%
X78805000Y-56720000D03*
%TD*%
D10*
%TO.P,D289,1,K*%
%TO.N,COL_09*%
X65115000Y-79580000D03*
D11*
%TO.P,D289,2,A*%
%TO.N,ROW_15_ANODE*%
X63565000Y-79580000D03*
%TD*%
D10*
%TO.P,D391,1,K*%
%TO.N,COL_11*%
X70195000Y-92280000D03*
D11*
%TO.P,D391,2,A*%
%TO.N,ROW_20_ANODE*%
X68645000Y-92280000D03*
%TD*%
D10*
%TO.P,D89,1,K*%
%TO.N,COL_09*%
X65115000Y-54180000D03*
D11*
%TO.P,D89,2,A*%
%TO.N,ROW_05_ANODE*%
X63565000Y-54180000D03*
%TD*%
D10*
%TO.P,D358,1,K*%
%TO.N,COL_18*%
X87975000Y-87200000D03*
D11*
%TO.P,D358,2,A*%
%TO.N,ROW_18_ANODE*%
X86425000Y-87200000D03*
%TD*%
D10*
%TO.P,D160,1,K*%
%TO.N,COL_20*%
X93055000Y-61800000D03*
D11*
%TO.P,D160,2,A*%
%TO.N,ROW_08_ANODE*%
X91505000Y-61800000D03*
%TD*%
D10*
%TO.P,D274,1,K*%
%TO.N,COL_14*%
X77815000Y-77040000D03*
D11*
%TO.P,D274,2,A*%
%TO.N,ROW_14_ANODE*%
X76265000Y-77040000D03*
%TD*%
D10*
%TO.P,D14,1,K*%
%TO.N,COL_14*%
X77815000Y-44020000D03*
D11*
%TO.P,D14,2,A*%
%TO.N,ROW_01_ANODE*%
X76265000Y-44020000D03*
%TD*%
D10*
%TO.P,D181,1,K*%
%TO.N,COL_01*%
X44795000Y-66880000D03*
D11*
%TO.P,D181,2,A*%
%TO.N,ROW_10_ANODE*%
X43245000Y-66880000D03*
%TD*%
D10*
%TO.P,D229,1,K*%
%TO.N,COL_09*%
X65115000Y-71960000D03*
D11*
%TO.P,D229,2,A*%
%TO.N,ROW_12_ANODE*%
X63565000Y-71960000D03*
%TD*%
D10*
%TO.P,D397,1,K*%
%TO.N,COL_17*%
X85435000Y-92280000D03*
D11*
%TO.P,D397,2,A*%
%TO.N,ROW_20_ANODE*%
X83885000Y-92280000D03*
%TD*%
D10*
%TO.P,D172,1,K*%
%TO.N,COL_12*%
X72735000Y-64340000D03*
D11*
%TO.P,D172,2,A*%
%TO.N,ROW_09_ANODE*%
X71185000Y-64340000D03*
%TD*%
D10*
%TO.P,D38,1,K*%
%TO.N,COL_18*%
X87975000Y-46560000D03*
D11*
%TO.P,D38,2,A*%
%TO.N,ROW_02_ANODE*%
X86425000Y-46560000D03*
%TD*%
D10*
%TO.P,D305,1,K*%
%TO.N,COL_05*%
X54955000Y-82120000D03*
D11*
%TO.P,D305,2,A*%
%TO.N,ROW_16_ANODE*%
X53405000Y-82120000D03*
%TD*%
D10*
%TO.P,D312,1,K*%
%TO.N,COL_12*%
X72735000Y-82120000D03*
D11*
%TO.P,D312,2,A*%
%TO.N,ROW_16_ANODE*%
X71185000Y-82120000D03*
%TD*%
D10*
%TO.P,D159,1,K*%
%TO.N,COL_19*%
X90515000Y-61800000D03*
D11*
%TO.P,D159,2,A*%
%TO.N,ROW_08_ANODE*%
X88965000Y-61800000D03*
%TD*%
D10*
%TO.P,D268,1,K*%
%TO.N,COL_08*%
X62575000Y-77040000D03*
D11*
%TO.P,D268,2,A*%
%TO.N,ROW_14_ANODE*%
X61025000Y-77040000D03*
%TD*%
D10*
%TO.P,D121,1,K*%
%TO.N,COL_01*%
X44795000Y-59260000D03*
D11*
%TO.P,D121,2,A*%
%TO.N,ROW_07_ANODE*%
X43245000Y-59260000D03*
%TD*%
D10*
%TO.P,D94,1,K*%
%TO.N,COL_14*%
X77815000Y-54180000D03*
D11*
%TO.P,D94,2,A*%
%TO.N,ROW_05_ANODE*%
X76265000Y-54180000D03*
%TD*%
D10*
%TO.P,D99,1,K*%
%TO.N,COL_19*%
X90515000Y-54180000D03*
D11*
%TO.P,D99,2,A*%
%TO.N,ROW_05_ANODE*%
X88965000Y-54180000D03*
%TD*%
D10*
%TO.P,D203,1,K*%
%TO.N,COL_03*%
X49875000Y-69420000D03*
D11*
%TO.P,D203,2,A*%
%TO.N,ROW_11_ANODE*%
X48325000Y-69420000D03*
%TD*%
D10*
%TO.P,D346,1,K*%
%TO.N,COL_06*%
X57495000Y-87200000D03*
D11*
%TO.P,D346,2,A*%
%TO.N,ROW_18_ANODE*%
X55945000Y-87200000D03*
%TD*%
D10*
%TO.P,D156,1,K*%
%TO.N,COL_16*%
X82895000Y-61800000D03*
D11*
%TO.P,D156,2,A*%
%TO.N,ROW_08_ANODE*%
X81345000Y-61800000D03*
%TD*%
D10*
%TO.P,D2,1,K*%
%TO.N,COL_02*%
X47335000Y-44020000D03*
D11*
%TO.P,D2,2,A*%
%TO.N,ROW_01_ANODE*%
X45785000Y-44020000D03*
%TD*%
D10*
%TO.P,D335,1,K*%
%TO.N,COL_15*%
X80355000Y-84660000D03*
D11*
%TO.P,D335,2,A*%
%TO.N,ROW_17_ANODE*%
X78805000Y-84660000D03*
%TD*%
D10*
%TO.P,D113,1,K*%
%TO.N,COL_13*%
X75275000Y-56720000D03*
D11*
%TO.P,D113,2,A*%
%TO.N,ROW_06_ANODE*%
X73725000Y-56720000D03*
%TD*%
D10*
%TO.P,D363,1,K*%
%TO.N,COL_03*%
X49875000Y-89740000D03*
D11*
%TO.P,D363,2,A*%
%TO.N,ROW_19_ANODE*%
X48325000Y-89740000D03*
%TD*%
D10*
%TO.P,D77,1,K*%
%TO.N,COL_17*%
X85435000Y-51640000D03*
D11*
%TO.P,D77,2,A*%
%TO.N,ROW_04_ANODE*%
X83885000Y-51640000D03*
%TD*%
D10*
%TO.P,D288,1,K*%
%TO.N,COL_08*%
X62575000Y-79580000D03*
D11*
%TO.P,D288,2,A*%
%TO.N,ROW_15_ANODE*%
X61025000Y-79580000D03*
%TD*%
D10*
%TO.P,D169,1,K*%
%TO.N,COL_09*%
X65115000Y-64340000D03*
D11*
%TO.P,D169,2,A*%
%TO.N,ROW_09_ANODE*%
X63565000Y-64340000D03*
%TD*%
D10*
%TO.P,D71,1,K*%
%TO.N,COL_11*%
X70195000Y-51640000D03*
D11*
%TO.P,D71,2,A*%
%TO.N,ROW_04_ANODE*%
X68645000Y-51640000D03*
%TD*%
D10*
%TO.P,D120,1,K*%
%TO.N,COL_20*%
X93055000Y-56720000D03*
D11*
%TO.P,D120,2,A*%
%TO.N,ROW_06_ANODE*%
X91505000Y-56720000D03*
%TD*%
D10*
%TO.P,D266,1,K*%
%TO.N,COL_06*%
X57495000Y-77040000D03*
D11*
%TO.P,D266,2,A*%
%TO.N,ROW_14_ANODE*%
X55945000Y-77040000D03*
%TD*%
D10*
%TO.P,D230,1,K*%
%TO.N,COL_10*%
X67655000Y-71960000D03*
D11*
%TO.P,D230,2,A*%
%TO.N,ROW_12_ANODE*%
X66105000Y-71960000D03*
%TD*%
D10*
%TO.P,D43,1,K*%
%TO.N,COL_03*%
X49875000Y-49100000D03*
D11*
%TO.P,D43,2,A*%
%TO.N,ROW_03_ANODE*%
X48325000Y-49100000D03*
%TD*%
D10*
%TO.P,D93,1,K*%
%TO.N,COL_13*%
X75275000Y-54180000D03*
D11*
%TO.P,D93,2,A*%
%TO.N,ROW_05_ANODE*%
X73725000Y-54180000D03*
%TD*%
D10*
%TO.P,D368,1,K*%
%TO.N,COL_08*%
X62575000Y-89740000D03*
D11*
%TO.P,D368,2,A*%
%TO.N,ROW_19_ANODE*%
X61025000Y-89740000D03*
%TD*%
D10*
%TO.P,D293,1,K*%
%TO.N,COL_13*%
X75275000Y-79580000D03*
D11*
%TO.P,D293,2,A*%
%TO.N,ROW_15_ANODE*%
X73725000Y-79580000D03*
%TD*%
D10*
%TO.P,D109,1,K*%
%TO.N,COL_09*%
X65115000Y-56720000D03*
D11*
%TO.P,D109,2,A*%
%TO.N,ROW_06_ANODE*%
X63565000Y-56720000D03*
%TD*%
D10*
%TO.P,D98,1,K*%
%TO.N,COL_18*%
X87975000Y-54180000D03*
D11*
%TO.P,D98,2,A*%
%TO.N,ROW_05_ANODE*%
X86425000Y-54180000D03*
%TD*%
D10*
%TO.P,D185,1,K*%
%TO.N,COL_05*%
X54955000Y-66880000D03*
D11*
%TO.P,D185,2,A*%
%TO.N,ROW_10_ANODE*%
X53405000Y-66880000D03*
%TD*%
D10*
%TO.P,D396,1,K*%
%TO.N,COL_16*%
X82895000Y-92280000D03*
D11*
%TO.P,D396,2,A*%
%TO.N,ROW_20_ANODE*%
X81345000Y-92280000D03*
%TD*%
D10*
%TO.P,D291,1,K*%
%TO.N,COL_11*%
X70195000Y-79580000D03*
D11*
%TO.P,D291,2,A*%
%TO.N,ROW_15_ANODE*%
X68645000Y-79580000D03*
%TD*%
D10*
%TO.P,D75,1,K*%
%TO.N,COL_15*%
X80355000Y-51640000D03*
D11*
%TO.P,D75,2,A*%
%TO.N,ROW_04_ANODE*%
X78805000Y-51640000D03*
%TD*%
D10*
%TO.P,D149,1,K*%
%TO.N,COL_09*%
X65115000Y-61800000D03*
D11*
%TO.P,D149,2,A*%
%TO.N,ROW_08_ANODE*%
X63565000Y-61800000D03*
%TD*%
D10*
%TO.P,D328,1,K*%
%TO.N,COL_08*%
X62575000Y-84660000D03*
D11*
%TO.P,D328,2,A*%
%TO.N,ROW_17_ANODE*%
X61025000Y-84660000D03*
%TD*%
D10*
%TO.P,D343,1,K*%
%TO.N,COL_03*%
X49875000Y-87200000D03*
D11*
%TO.P,D343,2,A*%
%TO.N,ROW_18_ANODE*%
X48325000Y-87200000D03*
%TD*%
D10*
%TO.P,D400,1,K*%
%TO.N,COL_20*%
X93055000Y-92280000D03*
D11*
%TO.P,D400,2,A*%
%TO.N,ROW_20_ANODE*%
X91505000Y-92280000D03*
%TD*%
D10*
%TO.P,D137,1,K*%
%TO.N,COL_17*%
X85435000Y-59260000D03*
D11*
%TO.P,D137,2,A*%
%TO.N,ROW_07_ANODE*%
X83885000Y-59260000D03*
%TD*%
D10*
%TO.P,D257,1,K*%
%TO.N,COL_17*%
X85435000Y-74500000D03*
D11*
%TO.P,D257,2,A*%
%TO.N,ROW_13_ANODE*%
X83885000Y-74500000D03*
%TD*%
D10*
%TO.P,D35,1,K*%
%TO.N,COL_15*%
X80355000Y-46560000D03*
D11*
%TO.P,D35,2,A*%
%TO.N,ROW_02_ANODE*%
X78805000Y-46560000D03*
%TD*%
D10*
%TO.P,D31,1,K*%
%TO.N,COL_11*%
X70195000Y-46560000D03*
D11*
%TO.P,D31,2,A*%
%TO.N,ROW_02_ANODE*%
X68645000Y-46560000D03*
%TD*%
D10*
%TO.P,D325,1,K*%
%TO.N,COL_05*%
X54955000Y-84660000D03*
D11*
%TO.P,D325,2,A*%
%TO.N,ROW_17_ANODE*%
X53405000Y-84660000D03*
%TD*%
D10*
%TO.P,D117,1,K*%
%TO.N,COL_17*%
X85435000Y-56720000D03*
D11*
%TO.P,D117,2,A*%
%TO.N,ROW_06_ANODE*%
X83885000Y-56720000D03*
%TD*%
D10*
%TO.P,D307,1,K*%
%TO.N,COL_07*%
X60035000Y-82120000D03*
D11*
%TO.P,D307,2,A*%
%TO.N,ROW_16_ANODE*%
X58485000Y-82120000D03*
%TD*%
D10*
%TO.P,D65,1,K*%
%TO.N,COL_05*%
X54955000Y-51640000D03*
D11*
%TO.P,D65,2,A*%
%TO.N,ROW_04_ANODE*%
X53405000Y-51640000D03*
%TD*%
D10*
%TO.P,D12,1,K*%
%TO.N,COL_12*%
X72735000Y-44020000D03*
D11*
%TO.P,D12,2,A*%
%TO.N,ROW_01_ANODE*%
X71185000Y-44020000D03*
%TD*%
D10*
%TO.P,D340,1,K*%
%TO.N,COL_20*%
X93055000Y-84660000D03*
D11*
%TO.P,D340,2,A*%
%TO.N,ROW_17_ANODE*%
X91505000Y-84660000D03*
%TD*%
D10*
%TO.P,D392,1,K*%
%TO.N,COL_12*%
X72735000Y-92280000D03*
D11*
%TO.P,D392,2,A*%
%TO.N,ROW_20_ANODE*%
X71185000Y-92280000D03*
%TD*%
D10*
%TO.P,D63,1,K*%
%TO.N,COL_03*%
X49875000Y-51640000D03*
D11*
%TO.P,D63,2,A*%
%TO.N,ROW_04_ANODE*%
X48325000Y-51640000D03*
%TD*%
D10*
%TO.P,D198,1,K*%
%TO.N,COL_18*%
X87975000Y-66880000D03*
D11*
%TO.P,D198,2,A*%
%TO.N,ROW_10_ANODE*%
X86425000Y-66880000D03*
%TD*%
D10*
%TO.P,D73,1,K*%
%TO.N,COL_13*%
X75275000Y-51640000D03*
D11*
%TO.P,D73,2,A*%
%TO.N,ROW_04_ANODE*%
X73725000Y-51640000D03*
%TD*%
D10*
%TO.P,D154,1,K*%
%TO.N,COL_14*%
X77815000Y-61800000D03*
D11*
%TO.P,D154,2,A*%
%TO.N,ROW_08_ANODE*%
X76265000Y-61800000D03*
%TD*%
D10*
%TO.P,D241,1,K*%
%TO.N,COL_01*%
X44795000Y-74500000D03*
D11*
%TO.P,D241,2,A*%
%TO.N,ROW_13_ANODE*%
X43245000Y-74500000D03*
%TD*%
D10*
%TO.P,D272,1,K*%
%TO.N,COL_12*%
X72735000Y-77040000D03*
D11*
%TO.P,D272,2,A*%
%TO.N,ROW_14_ANODE*%
X71185000Y-77040000D03*
%TD*%
D10*
%TO.P,D365,1,K*%
%TO.N,COL_05*%
X54955000Y-89740000D03*
D11*
%TO.P,D365,2,A*%
%TO.N,ROW_19_ANODE*%
X53405000Y-89740000D03*
%TD*%
D10*
%TO.P,D245,1,K*%
%TO.N,COL_05*%
X54955000Y-74500000D03*
D11*
%TO.P,D245,2,A*%
%TO.N,ROW_13_ANODE*%
X53405000Y-74500000D03*
%TD*%
D10*
%TO.P,D284,1,K*%
%TO.N,COL_04*%
X52415000Y-79580000D03*
D11*
%TO.P,D284,2,A*%
%TO.N,ROW_15_ANODE*%
X50865000Y-79580000D03*
%TD*%
D10*
%TO.P,D370,1,K*%
%TO.N,COL_10*%
X67655000Y-89740000D03*
D11*
%TO.P,D370,2,A*%
%TO.N,ROW_19_ANODE*%
X66105000Y-89740000D03*
%TD*%
D10*
%TO.P,D140,1,K*%
%TO.N,COL_20*%
X93055000Y-59260000D03*
D11*
%TO.P,D140,2,A*%
%TO.N,ROW_07_ANODE*%
X91505000Y-59260000D03*
%TD*%
D10*
%TO.P,D196,1,K*%
%TO.N,COL_16*%
X82895000Y-66880000D03*
D11*
%TO.P,D196,2,A*%
%TO.N,ROW_10_ANODE*%
X81345000Y-66880000D03*
%TD*%
D10*
%TO.P,D285,1,K*%
%TO.N,COL_05*%
X54955000Y-79580000D03*
D11*
%TO.P,D285,2,A*%
%TO.N,ROW_15_ANODE*%
X53405000Y-79580000D03*
%TD*%
D10*
%TO.P,D28,1,K*%
%TO.N,COL_08*%
X62575000Y-46560000D03*
D11*
%TO.P,D28,2,A*%
%TO.N,ROW_02_ANODE*%
X61025000Y-46560000D03*
%TD*%
D10*
%TO.P,D16,1,K*%
%TO.N,COL_16*%
X82895000Y-44020000D03*
D11*
%TO.P,D16,2,A*%
%TO.N,ROW_01_ANODE*%
X81345000Y-44020000D03*
%TD*%
D10*
%TO.P,D32,1,K*%
%TO.N,COL_12*%
X72735000Y-46560000D03*
D11*
%TO.P,D32,2,A*%
%TO.N,ROW_02_ANODE*%
X71185000Y-46560000D03*
%TD*%
D10*
%TO.P,D334,1,K*%
%TO.N,COL_14*%
X77815000Y-84660000D03*
D11*
%TO.P,D334,2,A*%
%TO.N,ROW_17_ANODE*%
X76265000Y-84660000D03*
%TD*%
D10*
%TO.P,D168,1,K*%
%TO.N,COL_08*%
X62575000Y-64340000D03*
D11*
%TO.P,D168,2,A*%
%TO.N,ROW_09_ANODE*%
X61025000Y-64340000D03*
%TD*%
D10*
%TO.P,D128,1,K*%
%TO.N,COL_08*%
X62575000Y-59260000D03*
D11*
%TO.P,D128,2,A*%
%TO.N,ROW_07_ANODE*%
X61025000Y-59260000D03*
%TD*%
D10*
%TO.P,D82,1,K*%
%TO.N,COL_02*%
X47335000Y-54180000D03*
D11*
%TO.P,D82,2,A*%
%TO.N,ROW_05_ANODE*%
X45785000Y-54180000D03*
%TD*%
D10*
%TO.P,D248,1,K*%
%TO.N,COL_08*%
X62575000Y-74500000D03*
D11*
%TO.P,D248,2,A*%
%TO.N,ROW_13_ANODE*%
X61025000Y-74500000D03*
%TD*%
D10*
%TO.P,D339,1,K*%
%TO.N,COL_19*%
X90515000Y-84660000D03*
D11*
%TO.P,D339,2,A*%
%TO.N,ROW_17_ANODE*%
X88965000Y-84660000D03*
%TD*%
D10*
%TO.P,D193,1,K*%
%TO.N,COL_13*%
X75275000Y-66880000D03*
D11*
%TO.P,D193,2,A*%
%TO.N,ROW_10_ANODE*%
X73725000Y-66880000D03*
%TD*%
D10*
%TO.P,D3,1,K*%
%TO.N,COL_03*%
X49875000Y-44020000D03*
D11*
%TO.P,D3,2,A*%
%TO.N,ROW_01_ANODE*%
X48325000Y-44020000D03*
%TD*%
D10*
%TO.P,D383,1,K*%
%TO.N,COL_03*%
X49875000Y-92280000D03*
D11*
%TO.P,D383,2,A*%
%TO.N,ROW_20_ANODE*%
X48325000Y-92280000D03*
%TD*%
D10*
%TO.P,D10,1,K*%
%TO.N,COL_10*%
X67655000Y-44020000D03*
D11*
%TO.P,D10,2,A*%
%TO.N,ROW_01_ANODE*%
X66105000Y-44020000D03*
%TD*%
D10*
%TO.P,D349,1,K*%
%TO.N,COL_09*%
X65115000Y-87200000D03*
D11*
%TO.P,D349,2,A*%
%TO.N,ROW_18_ANODE*%
X63565000Y-87200000D03*
%TD*%
D10*
%TO.P,D344,1,K*%
%TO.N,COL_04*%
X52415000Y-87200000D03*
D11*
%TO.P,D344,2,A*%
%TO.N,ROW_18_ANODE*%
X50865000Y-87200000D03*
%TD*%
D10*
%TO.P,D194,1,K*%
%TO.N,COL_14*%
X77815000Y-66880000D03*
D11*
%TO.P,D194,2,A*%
%TO.N,ROW_10_ANODE*%
X76265000Y-66880000D03*
%TD*%
D10*
%TO.P,D4,1,K*%
%TO.N,COL_04*%
X52415000Y-44020000D03*
D11*
%TO.P,D4,2,A*%
%TO.N,ROW_01_ANODE*%
X50865000Y-44020000D03*
%TD*%
D10*
%TO.P,D42,1,K*%
%TO.N,COL_02*%
X47335000Y-49100000D03*
D11*
%TO.P,D42,2,A*%
%TO.N,ROW_03_ANODE*%
X45785000Y-49100000D03*
%TD*%
D10*
%TO.P,D18,1,K*%
%TO.N,COL_18*%
X87975000Y-44020000D03*
D11*
%TO.P,D18,2,A*%
%TO.N,ROW_01_ANODE*%
X86425000Y-44020000D03*
%TD*%
D10*
%TO.P,D398,1,K*%
%TO.N,COL_18*%
X87975000Y-92280000D03*
D11*
%TO.P,D398,2,A*%
%TO.N,ROW_20_ANODE*%
X86425000Y-92280000D03*
%TD*%
D10*
%TO.P,D81,1,K*%
%TO.N,COL_01*%
X44795000Y-54180000D03*
D11*
%TO.P,D81,2,A*%
%TO.N,ROW_05_ANODE*%
X43245000Y-54180000D03*
%TD*%
D10*
%TO.P,D85,1,K*%
%TO.N,COL_05*%
X54955000Y-54180000D03*
D11*
%TO.P,D85,2,A*%
%TO.N,ROW_05_ANODE*%
X53405000Y-54180000D03*
%TD*%
D10*
%TO.P,D373,1,K*%
%TO.N,COL_13*%
X75275000Y-89740000D03*
D11*
%TO.P,D373,2,A*%
%TO.N,ROW_19_ANODE*%
X73725000Y-89740000D03*
%TD*%
D10*
%TO.P,D252,1,K*%
%TO.N,COL_12*%
X72735000Y-74500000D03*
D11*
%TO.P,D252,2,A*%
%TO.N,ROW_13_ANODE*%
X71185000Y-74500000D03*
%TD*%
D10*
%TO.P,D112,1,K*%
%TO.N,COL_12*%
X72735000Y-56720000D03*
D11*
%TO.P,D112,2,A*%
%TO.N,ROW_06_ANODE*%
X71185000Y-56720000D03*
%TD*%
D10*
%TO.P,D215,1,K*%
%TO.N,COL_15*%
X80355000Y-69420000D03*
D11*
%TO.P,D215,2,A*%
%TO.N,ROW_11_ANODE*%
X78805000Y-69420000D03*
%TD*%
D10*
%TO.P,D86,1,K*%
%TO.N,COL_06*%
X57495000Y-54180000D03*
D11*
%TO.P,D86,2,A*%
%TO.N,ROW_05_ANODE*%
X55945000Y-54180000D03*
%TD*%
D10*
%TO.P,D84,1,K*%
%TO.N,COL_04*%
X52415000Y-54180000D03*
D11*
%TO.P,D84,2,A*%
%TO.N,ROW_05_ANODE*%
X50865000Y-54180000D03*
%TD*%
D10*
%TO.P,D188,1,K*%
%TO.N,COL_08*%
X62575000Y-66880000D03*
D11*
%TO.P,D188,2,A*%
%TO.N,ROW_10_ANODE*%
X61025000Y-66880000D03*
%TD*%
D10*
%TO.P,D191,1,K*%
%TO.N,COL_11*%
X70195000Y-66880000D03*
D11*
%TO.P,D191,2,A*%
%TO.N,ROW_10_ANODE*%
X68645000Y-66880000D03*
%TD*%
D10*
%TO.P,D246,1,K*%
%TO.N,COL_06*%
X57495000Y-74500000D03*
D11*
%TO.P,D246,2,A*%
%TO.N,ROW_13_ANODE*%
X55945000Y-74500000D03*
%TD*%
D10*
%TO.P,D280,1,K*%
%TO.N,COL_20*%
X93055000Y-77040000D03*
D11*
%TO.P,D280,2,A*%
%TO.N,ROW_14_ANODE*%
X91505000Y-77040000D03*
%TD*%
D10*
%TO.P,D361,1,K*%
%TO.N,COL_01*%
X44795000Y-89740000D03*
D11*
%TO.P,D361,2,A*%
%TO.N,ROW_19_ANODE*%
X43245000Y-89740000D03*
%TD*%
D10*
%TO.P,D158,1,K*%
%TO.N,COL_18*%
X87975000Y-61800000D03*
D11*
%TO.P,D158,2,A*%
%TO.N,ROW_08_ANODE*%
X86425000Y-61800000D03*
%TD*%
D10*
%TO.P,D376,1,K*%
%TO.N,COL_16*%
X82895000Y-89740000D03*
D11*
%TO.P,D376,2,A*%
%TO.N,ROW_19_ANODE*%
X81345000Y-89740000D03*
%TD*%
D10*
%TO.P,D78,1,K*%
%TO.N,COL_18*%
X87975000Y-51640000D03*
D11*
%TO.P,D78,2,A*%
%TO.N,ROW_04_ANODE*%
X86425000Y-51640000D03*
%TD*%
D10*
%TO.P,D6,1,K*%
%TO.N,COL_06*%
X57495000Y-44020000D03*
D11*
%TO.P,D6,2,A*%
%TO.N,ROW_01_ANODE*%
X55945000Y-44020000D03*
%TD*%
D10*
%TO.P,D301,1,K*%
%TO.N,COL_01*%
X44795000Y-82120000D03*
D11*
%TO.P,D301,2,A*%
%TO.N,ROW_16_ANODE*%
X43245000Y-82120000D03*
%TD*%
D10*
%TO.P,D184,1,K*%
%TO.N,COL_04*%
X52415000Y-66880000D03*
D11*
%TO.P,D184,2,A*%
%TO.N,ROW_10_ANODE*%
X50865000Y-66880000D03*
%TD*%
D10*
%TO.P,D394,1,K*%
%TO.N,COL_14*%
X77815000Y-92280000D03*
D11*
%TO.P,D394,2,A*%
%TO.N,ROW_20_ANODE*%
X76265000Y-92280000D03*
%TD*%
D10*
%TO.P,D255,1,K*%
%TO.N,COL_15*%
X80355000Y-74500000D03*
D11*
%TO.P,D255,2,A*%
%TO.N,ROW_13_ANODE*%
X78805000Y-74500000D03*
%TD*%
D10*
%TO.P,D306,1,K*%
%TO.N,COL_06*%
X57495000Y-82120000D03*
D11*
%TO.P,D306,2,A*%
%TO.N,ROW_16_ANODE*%
X55945000Y-82120000D03*
%TD*%
D10*
%TO.P,D282,1,K*%
%TO.N,COL_02*%
X47335000Y-79580000D03*
D11*
%TO.P,D282,2,A*%
%TO.N,ROW_15_ANODE*%
X45785000Y-79580000D03*
%TD*%
D10*
%TO.P,D265,1,K*%
%TO.N,COL_05*%
X54955000Y-77040000D03*
D11*
%TO.P,D265,2,A*%
%TO.N,ROW_14_ANODE*%
X53405000Y-77040000D03*
%TD*%
D10*
%TO.P,D223,1,K*%
%TO.N,COL_03*%
X49875000Y-71960000D03*
D11*
%TO.P,D223,2,A*%
%TO.N,ROW_12_ANODE*%
X48325000Y-71960000D03*
%TD*%
D10*
%TO.P,D26,1,K*%
%TO.N,COL_06*%
X57495000Y-46560000D03*
D11*
%TO.P,D26,2,A*%
%TO.N,ROW_02_ANODE*%
X55945000Y-46560000D03*
%TD*%
D10*
%TO.P,D395,1,K*%
%TO.N,COL_15*%
X80355000Y-92280000D03*
D11*
%TO.P,D395,2,A*%
%TO.N,ROW_20_ANODE*%
X78805000Y-92280000D03*
%TD*%
D10*
%TO.P,D189,1,K*%
%TO.N,COL_09*%
X65115000Y-66880000D03*
D11*
%TO.P,D189,2,A*%
%TO.N,ROW_10_ANODE*%
X63565000Y-66880000D03*
%TD*%
D10*
%TO.P,D378,1,K*%
%TO.N,COL_18*%
X87975000Y-89740000D03*
D11*
%TO.P,D378,2,A*%
%TO.N,ROW_19_ANODE*%
X86425000Y-89740000D03*
%TD*%
D10*
%TO.P,D353,1,K*%
%TO.N,COL_13*%
X75275000Y-87200000D03*
D11*
%TO.P,D353,2,A*%
%TO.N,ROW_18_ANODE*%
X73725000Y-87200000D03*
%TD*%
D10*
%TO.P,D178,1,K*%
%TO.N,COL_18*%
X87975000Y-64340000D03*
D11*
%TO.P,D178,2,A*%
%TO.N,ROW_09_ANODE*%
X86425000Y-64340000D03*
%TD*%
D10*
%TO.P,D116,1,K*%
%TO.N,COL_16*%
X82895000Y-56720000D03*
D11*
%TO.P,D116,2,A*%
%TO.N,ROW_06_ANODE*%
X81345000Y-56720000D03*
%TD*%
D10*
%TO.P,D225,1,K*%
%TO.N,COL_05*%
X54955000Y-71960000D03*
D11*
%TO.P,D225,2,A*%
%TO.N,ROW_12_ANODE*%
X53405000Y-71960000D03*
%TD*%
D10*
%TO.P,D342,1,K*%
%TO.N,COL_02*%
X47335000Y-87200000D03*
D11*
%TO.P,D342,2,A*%
%TO.N,ROW_18_ANODE*%
X45785000Y-87200000D03*
%TD*%
D10*
%TO.P,D364,1,K*%
%TO.N,COL_04*%
X52415000Y-89740000D03*
D11*
%TO.P,D364,2,A*%
%TO.N,ROW_19_ANODE*%
X50865000Y-89740000D03*
%TD*%
D10*
%TO.P,D393,1,K*%
%TO.N,COL_13*%
X75275000Y-92280000D03*
D11*
%TO.P,D393,2,A*%
%TO.N,ROW_20_ANODE*%
X73725000Y-92280000D03*
%TD*%
D10*
%TO.P,D299,1,K*%
%TO.N,COL_19*%
X90515000Y-79580000D03*
D11*
%TO.P,D299,2,A*%
%TO.N,ROW_15_ANODE*%
X88965000Y-79580000D03*
%TD*%
D10*
%TO.P,D68,1,K*%
%TO.N,COL_08*%
X62575000Y-51640000D03*
D11*
%TO.P,D68,2,A*%
%TO.N,ROW_04_ANODE*%
X61025000Y-51640000D03*
%TD*%
D10*
%TO.P,D9,1,K*%
%TO.N,COL_09*%
X65115000Y-44020000D03*
D11*
%TO.P,D9,2,A*%
%TO.N,ROW_01_ANODE*%
X63565000Y-44020000D03*
%TD*%
D10*
%TO.P,D237,1,K*%
%TO.N,COL_17*%
X85435000Y-71960000D03*
D11*
%TO.P,D237,2,A*%
%TO.N,ROW_12_ANODE*%
X83885000Y-71960000D03*
%TD*%
D10*
%TO.P,D59,1,K*%
%TO.N,COL_19*%
X90515000Y-49100000D03*
D11*
%TO.P,D59,2,A*%
%TO.N,ROW_03_ANODE*%
X88965000Y-49100000D03*
%TD*%
D10*
%TO.P,D170,1,K*%
%TO.N,COL_10*%
X67655000Y-64340000D03*
D11*
%TO.P,D170,2,A*%
%TO.N,ROW_09_ANODE*%
X66105000Y-64340000D03*
%TD*%
D10*
%TO.P,D333,1,K*%
%TO.N,COL_13*%
X75275000Y-84660000D03*
D11*
%TO.P,D333,2,A*%
%TO.N,ROW_17_ANODE*%
X73725000Y-84660000D03*
%TD*%
D10*
%TO.P,D281,1,K*%
%TO.N,COL_01*%
X44795000Y-79580000D03*
D11*
%TO.P,D281,2,A*%
%TO.N,ROW_15_ANODE*%
X43245000Y-79580000D03*
%TD*%
D10*
%TO.P,D354,1,K*%
%TO.N,COL_14*%
X77815000Y-87200000D03*
D11*
%TO.P,D354,2,A*%
%TO.N,ROW_18_ANODE*%
X76265000Y-87200000D03*
%TD*%
D10*
%TO.P,D182,1,K*%
%TO.N,COL_02*%
X47335000Y-66880000D03*
D11*
%TO.P,D182,2,A*%
%TO.N,ROW_10_ANODE*%
X45785000Y-66880000D03*
%TD*%
D10*
%TO.P,D110,1,K*%
%TO.N,COL_10*%
X67655000Y-56720000D03*
D11*
%TO.P,D110,2,A*%
%TO.N,ROW_06_ANODE*%
X66105000Y-56720000D03*
%TD*%
D10*
%TO.P,D174,1,K*%
%TO.N,COL_14*%
X77815000Y-64340000D03*
D11*
%TO.P,D174,2,A*%
%TO.N,ROW_09_ANODE*%
X76265000Y-64340000D03*
%TD*%
D10*
%TO.P,D100,1,K*%
%TO.N,COL_20*%
X93055000Y-54180000D03*
D11*
%TO.P,D100,2,A*%
%TO.N,ROW_05_ANODE*%
X91505000Y-54180000D03*
%TD*%
D10*
%TO.P,D226,1,K*%
%TO.N,COL_06*%
X57495000Y-71960000D03*
D11*
%TO.P,D226,2,A*%
%TO.N,ROW_12_ANODE*%
X55945000Y-71960000D03*
%TD*%
D10*
%TO.P,D326,1,K*%
%TO.N,COL_06*%
X57495000Y-84660000D03*
D11*
%TO.P,D326,2,A*%
%TO.N,ROW_17_ANODE*%
X55945000Y-84660000D03*
%TD*%
D10*
%TO.P,D357,1,K*%
%TO.N,COL_17*%
X85435000Y-87200000D03*
D11*
%TO.P,D357,2,A*%
%TO.N,ROW_18_ANODE*%
X83885000Y-87200000D03*
%TD*%
D10*
%TO.P,D224,1,K*%
%TO.N,COL_04*%
X52415000Y-71960000D03*
D11*
%TO.P,D224,2,A*%
%TO.N,ROW_12_ANODE*%
X50865000Y-71960000D03*
%TD*%
D10*
%TO.P,D171,1,K*%
%TO.N,COL_11*%
X70195000Y-64340000D03*
D11*
%TO.P,D171,2,A*%
%TO.N,ROW_09_ANODE*%
X68645000Y-64340000D03*
%TD*%
D10*
%TO.P,D183,1,K*%
%TO.N,COL_03*%
X49875000Y-66880000D03*
D11*
%TO.P,D183,2,A*%
%TO.N,ROW_10_ANODE*%
X48325000Y-66880000D03*
%TD*%
D10*
%TO.P,D213,1,K*%
%TO.N,COL_13*%
X75275000Y-69420000D03*
D11*
%TO.P,D213,2,A*%
%TO.N,ROW_11_ANODE*%
X73725000Y-69420000D03*
%TD*%
D10*
%TO.P,D348,1,K*%
%TO.N,COL_08*%
X62575000Y-87200000D03*
D11*
%TO.P,D348,2,A*%
%TO.N,ROW_18_ANODE*%
X61025000Y-87200000D03*
%TD*%
D10*
%TO.P,D164,1,K*%
%TO.N,COL_04*%
X52415000Y-64340000D03*
D11*
%TO.P,D164,2,A*%
%TO.N,ROW_09_ANODE*%
X50865000Y-64340000D03*
%TD*%
D10*
%TO.P,D74,1,K*%
%TO.N,COL_14*%
X77815000Y-51640000D03*
D11*
%TO.P,D74,2,A*%
%TO.N,ROW_04_ANODE*%
X76265000Y-51640000D03*
%TD*%
D10*
%TO.P,D96,1,K*%
%TO.N,COL_16*%
X82895000Y-54180000D03*
D11*
%TO.P,D96,2,A*%
%TO.N,ROW_05_ANODE*%
X81345000Y-54180000D03*
%TD*%
D10*
%TO.P,D118,1,K*%
%TO.N,COL_18*%
X87975000Y-56720000D03*
D11*
%TO.P,D118,2,A*%
%TO.N,ROW_06_ANODE*%
X86425000Y-56720000D03*
%TD*%
D10*
%TO.P,D66,1,K*%
%TO.N,COL_06*%
X57495000Y-51640000D03*
D11*
%TO.P,D66,2,A*%
%TO.N,ROW_04_ANODE*%
X55945000Y-51640000D03*
%TD*%
D10*
%TO.P,D132,1,K*%
%TO.N,COL_12*%
X72735000Y-59260000D03*
D11*
%TO.P,D132,2,A*%
%TO.N,ROW_07_ANODE*%
X71185000Y-59260000D03*
%TD*%
D10*
%TO.P,D382,1,K*%
%TO.N,COL_02*%
X47335000Y-92280000D03*
D11*
%TO.P,D382,2,A*%
%TO.N,ROW_20_ANODE*%
X45785000Y-92280000D03*
%TD*%
D10*
%TO.P,D276,1,K*%
%TO.N,COL_16*%
X82895000Y-77040000D03*
D11*
%TO.P,D276,2,A*%
%TO.N,ROW_14_ANODE*%
X81345000Y-77040000D03*
%TD*%
D10*
%TO.P,D39,1,K*%
%TO.N,COL_19*%
X90515000Y-46560000D03*
D11*
%TO.P,D39,2,A*%
%TO.N,ROW_02_ANODE*%
X88965000Y-46560000D03*
%TD*%
D10*
%TO.P,D202,1,K*%
%TO.N,COL_02*%
X47335000Y-69420000D03*
D11*
%TO.P,D202,2,A*%
%TO.N,ROW_11_ANODE*%
X45785000Y-69420000D03*
%TD*%
D10*
%TO.P,D319,1,K*%
%TO.N,COL_19*%
X90515000Y-82120000D03*
D11*
%TO.P,D319,2,A*%
%TO.N,ROW_16_ANODE*%
X88965000Y-82120000D03*
%TD*%
D10*
%TO.P,D102,1,K*%
%TO.N,COL_02*%
X47335000Y-56720000D03*
D11*
%TO.P,D102,2,A*%
%TO.N,ROW_06_ANODE*%
X45785000Y-56720000D03*
%TD*%
D10*
%TO.P,D134,1,K*%
%TO.N,COL_14*%
X77815000Y-59260000D03*
D11*
%TO.P,D134,2,A*%
%TO.N,ROW_07_ANODE*%
X76265000Y-59260000D03*
%TD*%
D10*
%TO.P,D155,1,K*%
%TO.N,COL_15*%
X80355000Y-61800000D03*
D11*
%TO.P,D155,2,A*%
%TO.N,ROW_08_ANODE*%
X78805000Y-61800000D03*
%TD*%
D10*
%TO.P,D108,1,K*%
%TO.N,COL_08*%
X62575000Y-56720000D03*
D11*
%TO.P,D108,2,A*%
%TO.N,ROW_06_ANODE*%
X61025000Y-56720000D03*
%TD*%
D10*
%TO.P,D236,1,K*%
%TO.N,COL_16*%
X82895000Y-71960000D03*
D11*
%TO.P,D236,2,A*%
%TO.N,ROW_12_ANODE*%
X81345000Y-71960000D03*
%TD*%
D10*
%TO.P,D139,1,K*%
%TO.N,COL_19*%
X90515000Y-59260000D03*
D11*
%TO.P,D139,2,A*%
%TO.N,ROW_07_ANODE*%
X88965000Y-59260000D03*
%TD*%
D10*
%TO.P,D187,1,K*%
%TO.N,COL_07*%
X60035000Y-66880000D03*
D11*
%TO.P,D187,2,A*%
%TO.N,ROW_10_ANODE*%
X58485000Y-66880000D03*
%TD*%
D10*
%TO.P,D228,1,K*%
%TO.N,COL_08*%
X62575000Y-71960000D03*
D11*
%TO.P,D228,2,A*%
%TO.N,ROW_12_ANODE*%
X61025000Y-71960000D03*
%TD*%
D10*
%TO.P,D69,1,K*%
%TO.N,COL_09*%
X65115000Y-51640000D03*
D11*
%TO.P,D69,2,A*%
%TO.N,ROW_04_ANODE*%
X63565000Y-51640000D03*
%TD*%
D10*
%TO.P,D242,1,K*%
%TO.N,COL_02*%
X47335000Y-74500000D03*
D11*
%TO.P,D242,2,A*%
%TO.N,ROW_13_ANODE*%
X45785000Y-74500000D03*
%TD*%
D10*
%TO.P,D147,1,K*%
%TO.N,COL_07*%
X60035000Y-61800000D03*
D11*
%TO.P,D147,2,A*%
%TO.N,ROW_08_ANODE*%
X58485000Y-61800000D03*
%TD*%
D10*
%TO.P,D221,1,K*%
%TO.N,COL_01*%
X44795000Y-71960000D03*
D11*
%TO.P,D221,2,A*%
%TO.N,ROW_12_ANODE*%
X43245000Y-71960000D03*
%TD*%
D10*
%TO.P,D377,1,K*%
%TO.N,COL_17*%
X85435000Y-89740000D03*
D11*
%TO.P,D377,2,A*%
%TO.N,ROW_19_ANODE*%
X83885000Y-89740000D03*
%TD*%
D10*
%TO.P,D320,1,K*%
%TO.N,COL_20*%
X93055000Y-82120000D03*
D11*
%TO.P,D320,2,A*%
%TO.N,ROW_16_ANODE*%
X91505000Y-82120000D03*
%TD*%
D10*
%TO.P,D44,1,K*%
%TO.N,COL_04*%
X52415000Y-49100000D03*
D11*
%TO.P,D44,2,A*%
%TO.N,ROW_03_ANODE*%
X50865000Y-49100000D03*
%TD*%
D10*
%TO.P,D72,1,K*%
%TO.N,COL_12*%
X72735000Y-51640000D03*
D11*
%TO.P,D72,2,A*%
%TO.N,ROW_04_ANODE*%
X71185000Y-51640000D03*
%TD*%
D10*
%TO.P,D243,1,K*%
%TO.N,COL_03*%
X49875000Y-74500000D03*
D11*
%TO.P,D243,2,A*%
%TO.N,ROW_13_ANODE*%
X48325000Y-74500000D03*
%TD*%
D10*
%TO.P,D275,1,K*%
%TO.N,COL_15*%
X80355000Y-77040000D03*
D11*
%TO.P,D275,2,A*%
%TO.N,ROW_14_ANODE*%
X78805000Y-77040000D03*
%TD*%
D10*
%TO.P,D330,1,K*%
%TO.N,COL_10*%
X67655000Y-84660000D03*
D11*
%TO.P,D330,2,A*%
%TO.N,ROW_17_ANODE*%
X66105000Y-84660000D03*
%TD*%
D10*
%TO.P,D55,1,K*%
%TO.N,COL_15*%
X80355000Y-49100000D03*
D11*
%TO.P,D55,2,A*%
%TO.N,ROW_03_ANODE*%
X78805000Y-49100000D03*
%TD*%
D10*
%TO.P,D133,1,K*%
%TO.N,COL_13*%
X75275000Y-59260000D03*
D11*
%TO.P,D133,2,A*%
%TO.N,ROW_07_ANODE*%
X73725000Y-59260000D03*
%TD*%
D10*
%TO.P,D143,1,K*%
%TO.N,COL_03*%
X49875000Y-61800000D03*
D11*
%TO.P,D143,2,A*%
%TO.N,ROW_08_ANODE*%
X48325000Y-61800000D03*
%TD*%
D10*
%TO.P,D204,1,K*%
%TO.N,COL_04*%
X52415000Y-69420000D03*
D11*
%TO.P,D204,2,A*%
%TO.N,ROW_11_ANODE*%
X50865000Y-69420000D03*
%TD*%
D10*
%TO.P,D220,1,K*%
%TO.N,COL_20*%
X93055000Y-69420000D03*
D11*
%TO.P,D220,2,A*%
%TO.N,ROW_11_ANODE*%
X91505000Y-69420000D03*
%TD*%
D10*
%TO.P,D247,1,K*%
%TO.N,COL_07*%
X60035000Y-74500000D03*
D11*
%TO.P,D247,2,A*%
%TO.N,ROW_13_ANODE*%
X58485000Y-74500000D03*
%TD*%
D10*
%TO.P,D362,1,K*%
%TO.N,COL_02*%
X47335000Y-89740000D03*
D11*
%TO.P,D362,2,A*%
%TO.N,ROW_19_ANODE*%
X45785000Y-89740000D03*
%TD*%
D10*
%TO.P,D209,1,K*%
%TO.N,COL_09*%
X65115000Y-69420000D03*
D11*
%TO.P,D209,2,A*%
%TO.N,ROW_11_ANODE*%
X63565000Y-69420000D03*
%TD*%
D10*
%TO.P,D251,1,K*%
%TO.N,COL_11*%
X70195000Y-74500000D03*
D11*
%TO.P,D251,2,A*%
%TO.N,ROW_13_ANODE*%
X68645000Y-74500000D03*
%TD*%
D10*
%TO.P,D292,1,K*%
%TO.N,COL_12*%
X72735000Y-79580000D03*
D11*
%TO.P,D292,2,A*%
%TO.N,ROW_15_ANODE*%
X71185000Y-79580000D03*
%TD*%
D10*
%TO.P,D244,1,K*%
%TO.N,COL_04*%
X52415000Y-74500000D03*
D11*
%TO.P,D244,2,A*%
%TO.N,ROW_13_ANODE*%
X50865000Y-74500000D03*
%TD*%
D10*
%TO.P,D111,1,K*%
%TO.N,COL_11*%
X70195000Y-56720000D03*
D11*
%TO.P,D111,2,A*%
%TO.N,ROW_06_ANODE*%
X68645000Y-56720000D03*
%TD*%
D10*
%TO.P,D316,1,K*%
%TO.N,COL_16*%
X82895000Y-82120000D03*
D11*
%TO.P,D316,2,A*%
%TO.N,ROW_16_ANODE*%
X81345000Y-82120000D03*
%TD*%
D10*
%TO.P,D385,1,K*%
%TO.N,COL_05*%
X54955000Y-92280000D03*
D11*
%TO.P,D385,2,A*%
%TO.N,ROW_20_ANODE*%
X53405000Y-92280000D03*
%TD*%
D10*
%TO.P,D240,1,K*%
%TO.N,COL_20*%
X93055000Y-71960000D03*
D11*
%TO.P,D240,2,A*%
%TO.N,ROW_12_ANODE*%
X91505000Y-71960000D03*
%TD*%
D10*
%TO.P,D308,1,K*%
%TO.N,COL_08*%
X62575000Y-82120000D03*
D11*
%TO.P,D308,2,A*%
%TO.N,ROW_16_ANODE*%
X61025000Y-82120000D03*
%TD*%
D10*
%TO.P,D309,1,K*%
%TO.N,COL_09*%
X65115000Y-82120000D03*
D11*
%TO.P,D309,2,A*%
%TO.N,ROW_16_ANODE*%
X63565000Y-82120000D03*
%TD*%
D10*
%TO.P,D56,1,K*%
%TO.N,COL_16*%
X82895000Y-49100000D03*
D11*
%TO.P,D56,2,A*%
%TO.N,ROW_03_ANODE*%
X81345000Y-49100000D03*
%TD*%
D10*
%TO.P,D384,1,K*%
%TO.N,COL_04*%
X52415000Y-92280000D03*
D11*
%TO.P,D384,2,A*%
%TO.N,ROW_20_ANODE*%
X50865000Y-92280000D03*
%TD*%
D10*
%TO.P,D337,1,K*%
%TO.N,COL_17*%
X85435000Y-84660000D03*
D11*
%TO.P,D337,2,A*%
%TO.N,ROW_17_ANODE*%
X83885000Y-84660000D03*
%TD*%
D10*
%TO.P,D207,1,K*%
%TO.N,COL_07*%
X60035000Y-69420000D03*
D11*
%TO.P,D207,2,A*%
%TO.N,ROW_11_ANODE*%
X58485000Y-69420000D03*
%TD*%
D10*
%TO.P,D87,1,K*%
%TO.N,COL_07*%
X60035000Y-54180000D03*
D11*
%TO.P,D87,2,A*%
%TO.N,ROW_05_ANODE*%
X58485000Y-54180000D03*
%TD*%
D10*
%TO.P,D278,1,K*%
%TO.N,COL_18*%
X87975000Y-77040000D03*
D11*
%TO.P,D278,2,A*%
%TO.N,ROW_14_ANODE*%
X86425000Y-77040000D03*
%TD*%
D10*
%TO.P,D146,1,K*%
%TO.N,COL_06*%
X57495000Y-61800000D03*
D11*
%TO.P,D146,2,A*%
%TO.N,ROW_08_ANODE*%
X55945000Y-61800000D03*
%TD*%
D10*
%TO.P,D97,1,K*%
%TO.N,COL_17*%
X85435000Y-54180000D03*
D11*
%TO.P,D97,2,A*%
%TO.N,ROW_05_ANODE*%
X83885000Y-54180000D03*
%TD*%
D10*
%TO.P,D332,1,K*%
%TO.N,COL_12*%
X72735000Y-84660000D03*
D11*
%TO.P,D332,2,A*%
%TO.N,ROW_17_ANODE*%
X71185000Y-84660000D03*
%TD*%
D10*
%TO.P,D7,1,K*%
%TO.N,COL_07*%
X60035000Y-44020000D03*
D11*
%TO.P,D7,2,A*%
%TO.N,ROW_01_ANODE*%
X58485000Y-44020000D03*
%TD*%
D10*
%TO.P,D136,1,K*%
%TO.N,COL_16*%
X82895000Y-59260000D03*
D11*
%TO.P,D136,2,A*%
%TO.N,ROW_07_ANODE*%
X81345000Y-59260000D03*
%TD*%
D10*
%TO.P,D79,1,K*%
%TO.N,COL_19*%
X90515000Y-51640000D03*
D11*
%TO.P,D79,2,A*%
%TO.N,ROW_04_ANODE*%
X88965000Y-51640000D03*
%TD*%
D10*
%TO.P,D152,1,K*%
%TO.N,COL_12*%
X72735000Y-61800000D03*
D11*
%TO.P,D152,2,A*%
%TO.N,ROW_08_ANODE*%
X71185000Y-61800000D03*
%TD*%
D10*
%TO.P,D216,1,K*%
%TO.N,COL_16*%
X82895000Y-69420000D03*
D11*
%TO.P,D216,2,A*%
%TO.N,ROW_11_ANODE*%
X81345000Y-69420000D03*
%TD*%
D10*
%TO.P,D369,1,K*%
%TO.N,COL_09*%
X65115000Y-89740000D03*
D11*
%TO.P,D369,2,A*%
%TO.N,ROW_19_ANODE*%
X63565000Y-89740000D03*
%TD*%
D10*
%TO.P,D210,1,K*%
%TO.N,COL_10*%
X67655000Y-69420000D03*
D11*
%TO.P,D210,2,A*%
%TO.N,ROW_11_ANODE*%
X66105000Y-69420000D03*
%TD*%
D10*
%TO.P,D390,1,K*%
%TO.N,COL_10*%
X67655000Y-92280000D03*
D11*
%TO.P,D390,2,A*%
%TO.N,ROW_20_ANODE*%
X66105000Y-92280000D03*
%TD*%
D10*
%TO.P,D180,1,K*%
%TO.N,COL_20*%
X93055000Y-64340000D03*
D11*
%TO.P,D180,2,A*%
%TO.N,ROW_09_ANODE*%
X91505000Y-64340000D03*
%TD*%
D10*
%TO.P,D347,1,K*%
%TO.N,COL_07*%
X60035000Y-87200000D03*
D11*
%TO.P,D347,2,A*%
%TO.N,ROW_18_ANODE*%
X58485000Y-87200000D03*
%TD*%
D10*
%TO.P,D331,1,K*%
%TO.N,COL_11*%
X70195000Y-84660000D03*
D11*
%TO.P,D331,2,A*%
%TO.N,ROW_17_ANODE*%
X68645000Y-84660000D03*
%TD*%
D10*
%TO.P,D322,1,K*%
%TO.N,COL_02*%
X47335000Y-84660000D03*
D11*
%TO.P,D322,2,A*%
%TO.N,ROW_17_ANODE*%
X45785000Y-84660000D03*
%TD*%
D10*
%TO.P,D367,1,K*%
%TO.N,COL_07*%
X60035000Y-89740000D03*
D11*
%TO.P,D367,2,A*%
%TO.N,ROW_19_ANODE*%
X58485000Y-89740000D03*
%TD*%
D10*
%TO.P,D165,1,K*%
%TO.N,COL_05*%
X54955000Y-64340000D03*
D11*
%TO.P,D165,2,A*%
%TO.N,ROW_09_ANODE*%
X53405000Y-64340000D03*
%TD*%
D10*
%TO.P,D317,1,K*%
%TO.N,COL_17*%
X85435000Y-82120000D03*
D11*
%TO.P,D317,2,A*%
%TO.N,ROW_16_ANODE*%
X83885000Y-82120000D03*
%TD*%
D10*
%TO.P,D62,1,K*%
%TO.N,COL_02*%
X47335000Y-51640000D03*
D11*
%TO.P,D62,2,A*%
%TO.N,ROW_04_ANODE*%
X45785000Y-51640000D03*
%TD*%
D10*
%TO.P,D259,1,K*%
%TO.N,COL_19*%
X90515000Y-74500000D03*
D11*
%TO.P,D259,2,A*%
%TO.N,ROW_13_ANODE*%
X88965000Y-74500000D03*
%TD*%
D10*
%TO.P,D212,1,K*%
%TO.N,COL_12*%
X72735000Y-69420000D03*
D11*
%TO.P,D212,2,A*%
%TO.N,ROW_11_ANODE*%
X71185000Y-69420000D03*
%TD*%
D10*
%TO.P,D27,1,K*%
%TO.N,COL_07*%
X60035000Y-46560000D03*
D11*
%TO.P,D27,2,A*%
%TO.N,ROW_02_ANODE*%
X58485000Y-46560000D03*
%TD*%
D10*
%TO.P,D399,1,K*%
%TO.N,COL_19*%
X90515000Y-92280000D03*
D11*
%TO.P,D399,2,A*%
%TO.N,ROW_20_ANODE*%
X88965000Y-92280000D03*
%TD*%
D10*
%TO.P,D19,1,K*%
%TO.N,COL_19*%
X90515000Y-44020000D03*
D11*
%TO.P,D19,2,A*%
%TO.N,ROW_01_ANODE*%
X88965000Y-44020000D03*
%TD*%
D10*
%TO.P,D219,1,K*%
%TO.N,COL_19*%
X90515000Y-69420000D03*
D11*
%TO.P,D219,2,A*%
%TO.N,ROW_11_ANODE*%
X88965000Y-69420000D03*
%TD*%
D10*
%TO.P,D125,1,K*%
%TO.N,COL_05*%
X54955000Y-59260000D03*
D11*
%TO.P,D125,2,A*%
%TO.N,ROW_07_ANODE*%
X53405000Y-59260000D03*
%TD*%
D10*
%TO.P,D232,1,K*%
%TO.N,COL_12*%
X72735000Y-71960000D03*
D11*
%TO.P,D232,2,A*%
%TO.N,ROW_12_ANODE*%
X71185000Y-71960000D03*
%TD*%
D10*
%TO.P,D323,1,K*%
%TO.N,COL_03*%
X49875000Y-84660000D03*
D11*
%TO.P,D323,2,A*%
%TO.N,ROW_17_ANODE*%
X48325000Y-84660000D03*
%TD*%
D10*
%TO.P,D167,1,K*%
%TO.N,COL_07*%
X60035000Y-64340000D03*
D11*
%TO.P,D167,2,A*%
%TO.N,ROW_09_ANODE*%
X58485000Y-64340000D03*
%TD*%
D10*
%TO.P,D130,1,K*%
%TO.N,COL_10*%
X67655000Y-59260000D03*
D11*
%TO.P,D130,2,A*%
%TO.N,ROW_07_ANODE*%
X66105000Y-59260000D03*
%TD*%
D10*
%TO.P,D195,1,K*%
%TO.N,COL_15*%
X80355000Y-66880000D03*
D11*
%TO.P,D195,2,A*%
%TO.N,ROW_10_ANODE*%
X78805000Y-66880000D03*
%TD*%
D10*
%TO.P,D129,1,K*%
%TO.N,COL_09*%
X65115000Y-59260000D03*
D11*
%TO.P,D129,2,A*%
%TO.N,ROW_07_ANODE*%
X63565000Y-59260000D03*
%TD*%
D10*
%TO.P,D260,1,K*%
%TO.N,COL_20*%
X93055000Y-74500000D03*
D11*
%TO.P,D260,2,A*%
%TO.N,ROW_13_ANODE*%
X91505000Y-74500000D03*
%TD*%
D10*
%TO.P,D250,1,K*%
%TO.N,COL_10*%
X67655000Y-74500000D03*
D11*
%TO.P,D250,2,A*%
%TO.N,ROW_13_ANODE*%
X66105000Y-74500000D03*
%TD*%
D10*
%TO.P,D351,1,K*%
%TO.N,COL_11*%
X70195000Y-87200000D03*
D11*
%TO.P,D351,2,A*%
%TO.N,ROW_18_ANODE*%
X68645000Y-87200000D03*
%TD*%
D10*
%TO.P,D106,1,K*%
%TO.N,COL_06*%
X57495000Y-56720000D03*
D11*
%TO.P,D106,2,A*%
%TO.N,ROW_06_ANODE*%
X55945000Y-56720000D03*
%TD*%
D10*
%TO.P,D375,1,K*%
%TO.N,COL_15*%
X80355000Y-89740000D03*
D11*
%TO.P,D375,2,A*%
%TO.N,ROW_19_ANODE*%
X78805000Y-89740000D03*
%TD*%
D10*
%TO.P,D37,1,K*%
%TO.N,COL_17*%
X85435000Y-46560000D03*
D11*
%TO.P,D37,2,A*%
%TO.N,ROW_02_ANODE*%
X83885000Y-46560000D03*
%TD*%
D10*
%TO.P,D45,1,K*%
%TO.N,COL_05*%
X54955000Y-49100000D03*
D11*
%TO.P,D45,2,A*%
%TO.N,ROW_03_ANODE*%
X53405000Y-49100000D03*
%TD*%
D10*
%TO.P,D352,1,K*%
%TO.N,COL_12*%
X72735000Y-87200000D03*
D11*
%TO.P,D352,2,A*%
%TO.N,ROW_18_ANODE*%
X71185000Y-87200000D03*
%TD*%
D10*
%TO.P,D51,1,K*%
%TO.N,COL_11*%
X70195000Y-49100000D03*
D11*
%TO.P,D51,2,A*%
%TO.N,ROW_03_ANODE*%
X68645000Y-49100000D03*
%TD*%
D10*
%TO.P,D302,1,K*%
%TO.N,COL_02*%
X47335000Y-82120000D03*
D11*
%TO.P,D302,2,A*%
%TO.N,ROW_16_ANODE*%
X45785000Y-82120000D03*
%TD*%
D10*
%TO.P,D271,1,K*%
%TO.N,COL_11*%
X70195000Y-77040000D03*
D11*
%TO.P,D271,2,A*%
%TO.N,ROW_14_ANODE*%
X68645000Y-77040000D03*
%TD*%
D10*
%TO.P,D261,1,K*%
%TO.N,COL_01*%
X44795000Y-77040000D03*
D11*
%TO.P,D261,2,A*%
%TO.N,ROW_14_ANODE*%
X43245000Y-77040000D03*
%TD*%
D10*
%TO.P,D279,1,K*%
%TO.N,COL_19*%
X90515000Y-77040000D03*
D11*
%TO.P,D279,2,A*%
%TO.N,ROW_14_ANODE*%
X88965000Y-77040000D03*
%TD*%
D10*
%TO.P,D199,1,K*%
%TO.N,COL_19*%
X90515000Y-66880000D03*
D11*
%TO.P,D199,2,A*%
%TO.N,ROW_10_ANODE*%
X88965000Y-66880000D03*
%TD*%
D10*
%TO.P,D179,1,K*%
%TO.N,COL_19*%
X90515000Y-64340000D03*
D11*
%TO.P,D179,2,A*%
%TO.N,ROW_09_ANODE*%
X88965000Y-64340000D03*
%TD*%
D10*
%TO.P,D176,1,K*%
%TO.N,COL_16*%
X82895000Y-64340000D03*
D11*
%TO.P,D176,2,A*%
%TO.N,ROW_09_ANODE*%
X81345000Y-64340000D03*
%TD*%
D10*
%TO.P,D162,1,K*%
%TO.N,COL_02*%
X47335000Y-64340000D03*
D11*
%TO.P,D162,2,A*%
%TO.N,ROW_09_ANODE*%
X45785000Y-64340000D03*
%TD*%
D10*
%TO.P,D303,1,K*%
%TO.N,COL_03*%
X49875000Y-82120000D03*
D11*
%TO.P,D303,2,A*%
%TO.N,ROW_16_ANODE*%
X48325000Y-82120000D03*
%TD*%
D10*
%TO.P,D60,1,K*%
%TO.N,COL_20*%
X93055000Y-49100000D03*
D11*
%TO.P,D60,2,A*%
%TO.N,ROW_03_ANODE*%
X91505000Y-49100000D03*
%TD*%
D12*
%TO.N,ROW_01_ANODE*%
X13200000Y-16000000D03*
%TO.N,ROW_02_ANODE*%
X13750000Y-16000000D03*
%TO.N,ROW_03_ANODE*%
X14299999Y-16000000D03*
%TO.N,ROW_04_ANODE*%
X14850000Y-16000000D03*
%TO.N,ROW_05_ANODE*%
X15399999Y-16000000D03*
%TO.N,ROW_06_ANODE*%
X15950000Y-16000000D03*
%TO.N,ROW_07_ANODE*%
X16500000Y-16000000D03*
%TO.N,ROW_08_ANODE*%
X17050000Y-16000000D03*
%TO.N,ROW_09_ANODE*%
X17600000Y-16000000D03*
%TO.N,ROW_10_ANODE*%
X18150000Y-16000000D03*
%TO.N,ROW_11_ANODE*%
X18700000Y-16000000D03*
%TO.N,ROW_12_ANODE*%
X19250000Y-16000000D03*
%TO.N,ROW_13_ANODE*%
X19800000Y-16000000D03*
%TO.N,ROW_14_ANODE*%
X20350000Y-16000000D03*
%TO.N,ROW_15_ANODE*%
X20900000Y-16000000D03*
%TO.N,ROW_16_ANODE*%
X21450000Y-16000000D03*
%TO.N,ROW_17_ANODE*%
X22000000Y-16000000D03*
%TO.N,ROW_18_ANODE*%
X22550000Y-16000000D03*
%TO.N,ROW_19_ANODE*%
X23100000Y-16000000D03*
%TO.N,ROW_20_ANODE*%
X23650000Y-16000000D03*
%TO.N,COL_01*%
X44795000Y-55280000D03*
X44795000Y-52740000D03*
X44795000Y-80680000D03*
X44795000Y-57820000D03*
X44795000Y-50200000D03*
X44795000Y-45120000D03*
X44795000Y-73059999D03*
X44795000Y-90839999D03*
X44795000Y-85759999D03*
X44795000Y-93380000D03*
X44795000Y-70520000D03*
X44795000Y-62900000D03*
X44795000Y-88300000D03*
X44795000Y-65440000D03*
X44795000Y-60360000D03*
X44795000Y-75600000D03*
X44795000Y-47660000D03*
X44795000Y-78140000D03*
X44795000Y-83220000D03*
X44795000Y-67979999D03*
%TO.N,COL_02*%
X47335000Y-57820000D03*
X47335000Y-45120000D03*
X47335000Y-60360000D03*
X47335000Y-78140000D03*
X47335000Y-83220000D03*
X47335000Y-52740000D03*
X47335000Y-70520000D03*
X47335000Y-88300000D03*
X47335000Y-80680000D03*
X47335000Y-62900000D03*
X47335000Y-90839999D03*
X47335000Y-75600000D03*
X47335000Y-50200000D03*
X47335000Y-93380000D03*
X47335000Y-85759999D03*
X47335000Y-47660000D03*
X47335000Y-73059999D03*
X47335000Y-67979999D03*
X47335000Y-65440000D03*
X47335000Y-55280000D03*
%TO.N,COL_03*%
X49875000Y-45120000D03*
X49875000Y-88300000D03*
X49875000Y-52740000D03*
X49875000Y-67979999D03*
X49875000Y-65440000D03*
X49875000Y-60360000D03*
X49875000Y-93380000D03*
X49875000Y-78140000D03*
X49875000Y-55280000D03*
X49875000Y-50200000D03*
X49875000Y-73059999D03*
X49875000Y-80680000D03*
X49875000Y-90839999D03*
X49875000Y-75600000D03*
X49875000Y-85759999D03*
X49875000Y-83220000D03*
X49875000Y-47660000D03*
X49875000Y-62900000D03*
X49875000Y-57820000D03*
X49875000Y-70520000D03*
%TO.N,COL_04*%
X52415000Y-90839999D03*
X52415000Y-45120000D03*
X52415000Y-70520000D03*
X52415000Y-83220000D03*
X52415000Y-47660000D03*
X52415000Y-50200000D03*
X52415000Y-93380000D03*
X52415000Y-55280000D03*
X52415000Y-60360000D03*
X52415000Y-67979999D03*
X52415000Y-73059999D03*
X52415000Y-57820000D03*
X52415000Y-65440000D03*
X52415000Y-88300000D03*
X52415000Y-52740000D03*
X52415000Y-75600000D03*
X52415000Y-80680000D03*
X52415000Y-78140000D03*
X52415000Y-62900000D03*
X52415000Y-85759999D03*
%TO.N,COL_05*%
X54955000Y-80680000D03*
X54955000Y-78140000D03*
X54955000Y-70520000D03*
X54955000Y-93380000D03*
X54955000Y-47660000D03*
X54955000Y-88300000D03*
X54955000Y-60360000D03*
X54955000Y-57820000D03*
X54955000Y-67979999D03*
X54955000Y-73059999D03*
X54955000Y-90839999D03*
X54955000Y-55280000D03*
X54955000Y-85759999D03*
X54955000Y-62900000D03*
X54955000Y-52740000D03*
X54955000Y-65440000D03*
X54955000Y-83220000D03*
X54955000Y-50200000D03*
X54955000Y-45120000D03*
X54955000Y-75600000D03*
%TO.N,COL_06*%
X57495000Y-85759999D03*
X57495000Y-55280000D03*
X57495000Y-83220000D03*
X57495000Y-73059999D03*
X57495000Y-90839999D03*
X57495000Y-52740000D03*
X57495000Y-75600000D03*
X57495000Y-45120000D03*
X57495000Y-57820000D03*
X57495000Y-70520000D03*
X57495000Y-60360000D03*
X57495000Y-50200000D03*
X57495000Y-62900000D03*
X57495000Y-93380000D03*
X57495000Y-65440000D03*
X57495000Y-80680000D03*
X57495000Y-47660000D03*
X57495000Y-67979999D03*
X57495000Y-88300000D03*
X57495000Y-78140000D03*
%TO.N,COL_07*%
X60035000Y-78140000D03*
X60035000Y-67979999D03*
X60035000Y-45120000D03*
X60035000Y-65440000D03*
X60035000Y-57820000D03*
X60035000Y-50200000D03*
X60035000Y-75600000D03*
X60035000Y-80680000D03*
X60035000Y-90839999D03*
X60035000Y-73059999D03*
X60035000Y-62900000D03*
X60035000Y-55280000D03*
X60035000Y-52740000D03*
X60035000Y-88300000D03*
X60035000Y-70520000D03*
X60035000Y-60360000D03*
X60035000Y-93380000D03*
X60035000Y-83220000D03*
X60035000Y-85759999D03*
X60035000Y-47660000D03*
%TO.N,COL_08*%
X62575000Y-85759999D03*
X62575000Y-78140000D03*
X62575000Y-47660000D03*
X62575000Y-67979999D03*
X62575000Y-70520000D03*
X62575000Y-80680000D03*
X62575000Y-55280000D03*
X62575000Y-73059999D03*
X62575000Y-57820000D03*
X62575000Y-50200000D03*
X62575000Y-65440000D03*
X62575000Y-88300000D03*
X62575000Y-75600000D03*
X62575000Y-93380000D03*
X62575000Y-90839999D03*
X62575000Y-52740000D03*
X62575000Y-45120000D03*
X62575000Y-60360000D03*
X62575000Y-62900000D03*
X62575000Y-83220000D03*
%TO.N,COL_09*%
X65114999Y-62900000D03*
X65114999Y-70520000D03*
X65114999Y-88300000D03*
X65114999Y-78140000D03*
X65114999Y-75600000D03*
X65114999Y-67979999D03*
X65114999Y-65440000D03*
X65114999Y-60360000D03*
X65114999Y-80680000D03*
X65114999Y-55280000D03*
X65114999Y-93380000D03*
X65114999Y-52740000D03*
X65114999Y-73059999D03*
X65114999Y-57820000D03*
X65114999Y-83220000D03*
X65114999Y-47660000D03*
X65114999Y-45120000D03*
X65114999Y-90839999D03*
X65114999Y-85759999D03*
X65114999Y-50200000D03*
%TO.N,COL_10*%
X67655000Y-67979999D03*
X67655000Y-52740000D03*
X67655000Y-83220000D03*
X67655000Y-88300000D03*
X67655000Y-70520000D03*
X67655000Y-75600000D03*
X67655000Y-65440000D03*
X67655000Y-62900000D03*
X67655000Y-60360000D03*
X67655000Y-90839999D03*
X67655000Y-50200000D03*
X67655000Y-47660000D03*
X67655000Y-93380000D03*
X67655000Y-85759999D03*
X67655000Y-45120000D03*
X67655000Y-80680000D03*
X67655000Y-78140000D03*
X67655000Y-73059999D03*
X67655000Y-57820000D03*
X67655000Y-55280000D03*
%TO.N,COL_11*%
X70195000Y-78140000D03*
X70195000Y-70520000D03*
X70195000Y-50200000D03*
X70195000Y-93380000D03*
X70195000Y-67979999D03*
X70195000Y-62900000D03*
X70195000Y-57820000D03*
X70195000Y-73059999D03*
X70195000Y-45120000D03*
X70195000Y-52740000D03*
X70195000Y-85759999D03*
X70195000Y-90839999D03*
X70195000Y-47660000D03*
X70195000Y-65440000D03*
X70195000Y-60360000D03*
X70195000Y-83220000D03*
X70195000Y-80680000D03*
X70195000Y-75600000D03*
X70195000Y-55280000D03*
X70195000Y-88300000D03*
%TO.N,COL_12*%
X72735000Y-90839999D03*
X72735000Y-50200000D03*
X72735000Y-73059999D03*
X72735000Y-80680000D03*
X72735000Y-47660000D03*
X72735000Y-62900000D03*
X72735000Y-75600000D03*
X72735000Y-65440000D03*
X72735000Y-93380000D03*
X72735000Y-55280000D03*
X72735000Y-78140000D03*
X72735000Y-45120000D03*
X72735000Y-57820000D03*
X72735000Y-70520000D03*
X72735000Y-88300000D03*
X72735000Y-52740000D03*
X72735000Y-67979999D03*
X72735000Y-60360000D03*
X72735000Y-83220000D03*
X72735000Y-85759999D03*
%TO.N,COL_13*%
X75275000Y-55280000D03*
X75275000Y-73059999D03*
X75275000Y-75600000D03*
X75275000Y-52740000D03*
X75275000Y-80680000D03*
X75275000Y-50200000D03*
X75275000Y-90839999D03*
X75275000Y-93380000D03*
X75275000Y-47660000D03*
X75275000Y-67979999D03*
X75275000Y-45120000D03*
X75275000Y-60360000D03*
X75275000Y-57820000D03*
X75275000Y-78140000D03*
X75275000Y-85759999D03*
X75275000Y-65440000D03*
X75275000Y-70520000D03*
X75275000Y-62900000D03*
X75275000Y-88300000D03*
X75275000Y-83220000D03*
%TO.N,COL_14*%
X77815000Y-85759999D03*
X77815000Y-62900000D03*
X77815000Y-73059999D03*
X77815000Y-93380000D03*
X77815000Y-55280000D03*
X77815000Y-83220000D03*
X77815000Y-50200000D03*
X77815000Y-70520000D03*
X77815000Y-65440000D03*
X77815000Y-52740000D03*
X77815000Y-45120000D03*
X77815000Y-57820000D03*
X77815000Y-80680000D03*
X77815000Y-90839999D03*
X77815000Y-78140000D03*
X77815000Y-47660000D03*
X77815000Y-88300000D03*
X77815000Y-67979999D03*
X77815000Y-75600000D03*
X77815000Y-60360000D03*
%TO.N,COL_15*%
X80355000Y-83220000D03*
X80355000Y-62900000D03*
X80355000Y-57820000D03*
X80355000Y-93380000D03*
X80355000Y-70520000D03*
X80355000Y-55280000D03*
X80355000Y-50200000D03*
X80355000Y-85759999D03*
X80355000Y-47660000D03*
X80355000Y-90839999D03*
X80355000Y-45120000D03*
X80355000Y-52740000D03*
X80355000Y-88300000D03*
X80355000Y-75600000D03*
X80355000Y-80680000D03*
X80355000Y-60360000D03*
X80355000Y-73059999D03*
X80355000Y-67979999D03*
X80355000Y-78140000D03*
X80355000Y-65440000D03*
%TO.N,COL_16*%
X82895000Y-57820000D03*
X82895000Y-70520000D03*
X82895000Y-60360000D03*
X82895000Y-65440000D03*
X82895000Y-85759999D03*
X82895000Y-93380000D03*
X82895000Y-90839999D03*
X82895000Y-55280000D03*
X82895000Y-75600000D03*
X82895000Y-67979999D03*
X82895000Y-88300000D03*
X82895000Y-52740000D03*
X82895000Y-83220000D03*
X82895000Y-50200000D03*
X82895000Y-45120000D03*
X82895000Y-78140000D03*
X82895000Y-62900000D03*
X82895000Y-80680000D03*
X82895000Y-73059999D03*
X82895000Y-47660000D03*
%TO.N,COL_17*%
X85435000Y-52740000D03*
X85435000Y-55280000D03*
X85435000Y-65440000D03*
X85435000Y-90839999D03*
X85435000Y-67979999D03*
X85435000Y-83220000D03*
X85435000Y-93380000D03*
X85435000Y-45120000D03*
X85435000Y-85759999D03*
X85435000Y-75600000D03*
X85435000Y-57820000D03*
X85435000Y-47660000D03*
X85435000Y-80680000D03*
X85435000Y-88300000D03*
X85435000Y-78140000D03*
X85435000Y-60360000D03*
X85435000Y-73059999D03*
X85435000Y-70520000D03*
X85435000Y-50200000D03*
X85435000Y-62900000D03*
%TO.N,COL_18*%
X87975000Y-73059999D03*
X87975000Y-78140000D03*
X87975000Y-83220000D03*
X87975000Y-88300000D03*
X87975000Y-45120000D03*
X87975000Y-52740000D03*
X87975000Y-80680000D03*
X87975000Y-60360000D03*
X87975000Y-47660000D03*
X87975000Y-62900000D03*
X87975000Y-90839999D03*
X87975000Y-67979999D03*
X87975000Y-93380000D03*
X87975000Y-55280000D03*
X87975000Y-85759999D03*
X87975000Y-70520000D03*
X87975000Y-65440000D03*
X87975000Y-75600000D03*
X87975000Y-50200000D03*
X87975000Y-57820000D03*
%TO.N,COL_19*%
X90515000Y-88300000D03*
X90515000Y-75600000D03*
X90515000Y-83220000D03*
X90515000Y-85759999D03*
X90515000Y-55280000D03*
X90515000Y-62900000D03*
X90515000Y-60360000D03*
X90515000Y-93380000D03*
X90515000Y-52740000D03*
X90515000Y-57820000D03*
X90515000Y-45120000D03*
X90515000Y-90839999D03*
X90515000Y-70520000D03*
X90515000Y-80680000D03*
X90515000Y-47660000D03*
X90515000Y-67979999D03*
X90515000Y-78140000D03*
X90515000Y-73059999D03*
X90515000Y-65440000D03*
X90515000Y-50200000D03*
%TO.N,COL_20*%
X93055000Y-85759999D03*
X93055000Y-80680000D03*
X93055000Y-67979999D03*
X93055000Y-45120000D03*
X93055000Y-90839999D03*
X93055000Y-57820000D03*
X93055000Y-70520000D03*
X93055000Y-73059999D03*
X93055000Y-88300000D03*
X93055000Y-52740000D03*
X93055000Y-78140000D03*
X93055000Y-47660000D03*
X93055000Y-83220000D03*
X93055000Y-62900000D03*
X93055000Y-55280000D03*
X93055000Y-60360000D03*
X93055000Y-50200000D03*
X93055000Y-65440000D03*
X93055000Y-75600000D03*
X93055000Y-93380000D03*
%TD*%
%TO.N,ROW_01_ANODE*%
D13*
X42140000Y-4000000D02*
X13200000Y-4000000D01*
D14*
X78805000Y-44020000D02*
X78805000Y-43120000D01*
D13*
X42140000Y-43120000D02*
X42140000Y-4000000D01*
D14*
X66105000Y-44020000D02*
X66105000Y-43120000D01*
X91505000Y-44020000D02*
X91505000Y-43120000D01*
X50865000Y-44020000D02*
X50865000Y-43120000D01*
D15*
X43245000Y-43120000D02*
X42420000Y-43120000D01*
D14*
X45785000Y-44020000D02*
X45785000Y-43120000D01*
X81345000Y-44020000D02*
X81345000Y-43120000D01*
X88965000Y-44020000D02*
X88965000Y-43120000D01*
X86425000Y-44020000D02*
X86425000Y-43120000D01*
X53405000Y-44020000D02*
X53405000Y-43120000D01*
D13*
X13200000Y-4000000D02*
X13200000Y-16000000D01*
X42420000Y-43120000D02*
X42140000Y-43120000D01*
D15*
X43245000Y-43120000D02*
X91505000Y-43120000D01*
D14*
X55945000Y-44020000D02*
X55945000Y-43120000D01*
X43245000Y-44020000D02*
X43245000Y-43120000D01*
X76265000Y-44020000D02*
X76265000Y-43120000D01*
X83885000Y-44020000D02*
X83885000Y-43120000D01*
X63565000Y-44020000D02*
X63565000Y-43120000D01*
X73725000Y-44020000D02*
X73725000Y-43120000D01*
X48325000Y-44020000D02*
X48325000Y-43120000D01*
X71185000Y-44020000D02*
X71185000Y-43120000D01*
X58485000Y-44020000D02*
X58485000Y-43120000D01*
X68645000Y-44020000D02*
X68645000Y-43120000D01*
X61025000Y-44020000D02*
X61025000Y-43120000D01*
%TO.N,ROW_02_ANODE*%
X71185000Y-46560000D02*
X71185000Y-45660000D01*
D13*
X13750000Y-4280000D02*
X13750000Y-16000000D01*
D14*
X68645000Y-46560000D02*
X68645000Y-45660000D01*
X53405000Y-46560000D02*
X53405000Y-45660000D01*
X88965000Y-46560000D02*
X88965000Y-45660000D01*
X43245000Y-46560000D02*
X43245000Y-45660000D01*
X45785000Y-46560000D02*
X45785000Y-45660000D01*
D13*
X41860000Y-45660000D02*
X41860000Y-4280000D01*
D14*
X61025000Y-46560000D02*
X61025000Y-45660000D01*
D13*
X41860000Y-4280000D02*
X13750000Y-4280000D01*
D15*
X43245000Y-45660000D02*
X91505000Y-45660000D01*
D14*
X48325000Y-46560000D02*
X48325000Y-45660000D01*
X91505000Y-46560000D02*
X91505000Y-45660000D01*
X58485000Y-46560000D02*
X58485000Y-45660000D01*
X55945000Y-46560000D02*
X55945000Y-45660000D01*
X86425000Y-46560000D02*
X86425000Y-45660000D01*
X63565000Y-46560000D02*
X63565000Y-45660000D01*
X76265000Y-46560000D02*
X76265000Y-45660000D01*
D15*
X43245000Y-45660000D02*
X42420000Y-45660000D01*
D13*
X42420000Y-45660000D02*
X41860000Y-45660000D01*
D14*
X78805000Y-46560000D02*
X78805000Y-45660000D01*
X66105000Y-46560000D02*
X66105000Y-45660000D01*
X81345000Y-46560000D02*
X81345000Y-45660000D01*
X73725000Y-46560000D02*
X73725000Y-45660000D01*
X50865000Y-46560000D02*
X50865000Y-45660000D01*
X83885000Y-46560000D02*
X83885000Y-45660000D01*
%TO.N,ROW_03_ANODE*%
D13*
X41580000Y-4560000D02*
X14299999Y-4560000D01*
X41580000Y-48200000D02*
X41580000Y-4560000D01*
D15*
X43245000Y-48200000D02*
X91505000Y-48200000D01*
D14*
X86425000Y-49100000D02*
X86425000Y-48200000D01*
D15*
X43245000Y-48200000D02*
X42420000Y-48200000D01*
D14*
X43245000Y-49100000D02*
X43245000Y-48200000D01*
D13*
X14299999Y-4560000D02*
X14299999Y-16000000D01*
D14*
X61025000Y-49100000D02*
X61025000Y-48200000D01*
X91505000Y-49100000D02*
X91505000Y-48200000D01*
X48325000Y-49100000D02*
X48325000Y-48200000D01*
X63565000Y-49100000D02*
X63565000Y-48200000D01*
X73725000Y-49100000D02*
X73725000Y-48200000D01*
X76265000Y-49100000D02*
X76265000Y-48200000D01*
X45785000Y-49100000D02*
X45785000Y-48200000D01*
D13*
X42420000Y-48200000D02*
X41580000Y-48200000D01*
D14*
X88965000Y-49100000D02*
X88965000Y-48200000D01*
X78805000Y-49100000D02*
X78805000Y-48200000D01*
X71185000Y-49100000D02*
X71185000Y-48200000D01*
X58485000Y-49100000D02*
X58485000Y-48200000D01*
X50865000Y-49100000D02*
X50865000Y-48200000D01*
X66105000Y-49100000D02*
X66105000Y-48200000D01*
X53405000Y-49100000D02*
X53405000Y-48200000D01*
X81345000Y-49100000D02*
X81345000Y-48200000D01*
X68645000Y-49100000D02*
X68645000Y-48200000D01*
X83885000Y-49100000D02*
X83885000Y-48200000D01*
X55945000Y-49100000D02*
X55945000Y-48200000D01*
%TO.N,ROW_04_ANODE*%
X61025000Y-51640000D02*
X61025000Y-50740000D01*
X68645000Y-51640000D02*
X68645000Y-50740000D01*
X45785000Y-51640000D02*
X45785000Y-50740000D01*
D13*
X14850000Y-4840000D02*
X14850000Y-16000000D01*
D14*
X63565000Y-51640000D02*
X63565000Y-50740000D01*
X58485000Y-51640000D02*
X58485000Y-50740000D01*
D13*
X41300000Y-50740000D02*
X41300000Y-4840000D01*
D14*
X86425000Y-51640000D02*
X86425000Y-50740000D01*
X53405000Y-51640000D02*
X53405000Y-50740000D01*
X83885000Y-51640000D02*
X83885000Y-50740000D01*
D13*
X41300000Y-4840000D02*
X14850000Y-4840000D01*
D14*
X43245000Y-51640000D02*
X43245000Y-50740000D01*
X88965000Y-51640000D02*
X88965000Y-50740000D01*
X91505000Y-51640000D02*
X91505000Y-50740000D01*
D15*
X43245000Y-50740000D02*
X42420000Y-50740000D01*
D14*
X78805000Y-51640000D02*
X78805000Y-50740000D01*
D15*
X43245000Y-50740000D02*
X91505000Y-50740000D01*
D14*
X50865000Y-51640000D02*
X50865000Y-50740000D01*
X76265000Y-51640000D02*
X76265000Y-50740000D01*
X81345000Y-51640000D02*
X81345000Y-50740000D01*
X71185000Y-51640000D02*
X71185000Y-50740000D01*
X55945000Y-51640000D02*
X55945000Y-50740000D01*
X48325000Y-51640000D02*
X48325000Y-50740000D01*
X73725000Y-51640000D02*
X73725000Y-50740000D01*
X66105000Y-51640000D02*
X66105000Y-50740000D01*
D13*
X42420000Y-50740000D02*
X41300000Y-50740000D01*
%TO.N,ROW_05_ANODE*%
D14*
X91505000Y-54180000D02*
X91505000Y-53280000D01*
X71185000Y-54180000D02*
X71185000Y-53280000D01*
X88965000Y-54180000D02*
X88965000Y-53280000D01*
X53405000Y-54180000D02*
X53405000Y-53280000D01*
X66105000Y-54180000D02*
X66105000Y-53280000D01*
X58485000Y-54180000D02*
X58485000Y-53280000D01*
X43245000Y-54180000D02*
X43245000Y-53280000D01*
D13*
X42420000Y-53280000D02*
X41020000Y-53280000D01*
D14*
X76265000Y-54180000D02*
X76265000Y-53280000D01*
X83885000Y-54180000D02*
X83885000Y-53280000D01*
X73725000Y-54180000D02*
X73725000Y-53280000D01*
D15*
X43245000Y-53280000D02*
X91505000Y-53280000D01*
D14*
X48325000Y-54180000D02*
X48325000Y-53280000D01*
X63565000Y-54180000D02*
X63565000Y-53280000D01*
D15*
X43245000Y-53280000D02*
X42420000Y-53280000D01*
D14*
X68645000Y-54180000D02*
X68645000Y-53280000D01*
X45785000Y-54180000D02*
X45785000Y-53280000D01*
X81345000Y-54180000D02*
X81345000Y-53280000D01*
X50865000Y-54180000D02*
X50865000Y-53280000D01*
X61025000Y-54180000D02*
X61025000Y-53280000D01*
D13*
X15399999Y-5120000D02*
X15399999Y-16000000D01*
D14*
X78805000Y-54180000D02*
X78805000Y-53280000D01*
D13*
X41020000Y-5120000D02*
X15399999Y-5120000D01*
X41020000Y-53280000D02*
X41020000Y-5120000D01*
D14*
X55945000Y-54180000D02*
X55945000Y-53280000D01*
X86425000Y-54180000D02*
X86425000Y-53280000D01*
%TO.N,ROW_06_ANODE*%
X86425000Y-56720000D02*
X86425000Y-55820000D01*
D13*
X42420000Y-55820000D02*
X40740000Y-55820000D01*
D14*
X73725000Y-56720000D02*
X73725000Y-55820000D01*
D13*
X40740000Y-55820000D02*
X40740000Y-5400000D01*
D14*
X83885000Y-56720000D02*
X83885000Y-55820000D01*
D15*
X43245000Y-55820000D02*
X91505000Y-55820000D01*
D14*
X50865000Y-56720000D02*
X50865000Y-55820000D01*
X48325000Y-56720000D02*
X48325000Y-55820000D01*
X43245000Y-56720000D02*
X43245000Y-55820000D01*
X58485000Y-56720000D02*
X58485000Y-55820000D01*
X81345000Y-56720000D02*
X81345000Y-55820000D01*
X53405000Y-56720000D02*
X53405000Y-55820000D01*
D15*
X43245000Y-55820000D02*
X42420000Y-55820000D01*
D14*
X63565000Y-56720000D02*
X63565000Y-55820000D01*
X91505000Y-56720000D02*
X91505000Y-55820000D01*
X55945000Y-56720000D02*
X55945000Y-55820000D01*
D13*
X15950000Y-5400000D02*
X15950000Y-16000000D01*
D14*
X68645000Y-56720000D02*
X68645000Y-55820000D01*
X76265000Y-56720000D02*
X76265000Y-55820000D01*
X78805000Y-56720000D02*
X78805000Y-55820000D01*
X88965000Y-56720000D02*
X88965000Y-55820000D01*
X45785000Y-56720000D02*
X45785000Y-55820000D01*
X61025000Y-56720000D02*
X61025000Y-55820000D01*
X71185000Y-56720000D02*
X71185000Y-55820000D01*
X66105000Y-56720000D02*
X66105000Y-55820000D01*
D13*
X40740000Y-5400000D02*
X15950000Y-5400000D01*
%TO.N,ROW_07_ANODE*%
D14*
X83885000Y-59260000D02*
X83885000Y-58360000D01*
X50865000Y-59260000D02*
X50865000Y-58360000D01*
D15*
X43245000Y-58360000D02*
X42420000Y-58360000D01*
D14*
X43245000Y-59260000D02*
X43245000Y-58360000D01*
X48325000Y-59260000D02*
X48325000Y-58360000D01*
X76265000Y-59260000D02*
X76265000Y-58360000D01*
X68645000Y-59260000D02*
X68645000Y-58360000D01*
X45785000Y-59260000D02*
X45785000Y-58360000D01*
X88965000Y-59260000D02*
X88965000Y-58360000D01*
X61025000Y-59260000D02*
X61025000Y-58360000D01*
X81345000Y-59260000D02*
X81345000Y-58360000D01*
X86425000Y-59260000D02*
X86425000Y-58360000D01*
X91505000Y-59260000D02*
X91505000Y-58360000D01*
X71185000Y-59260000D02*
X71185000Y-58360000D01*
D13*
X42420000Y-58360000D02*
X40460000Y-58360000D01*
D14*
X53405000Y-59260000D02*
X53405000Y-58360000D01*
D13*
X40460000Y-58360000D02*
X40460000Y-5680000D01*
D14*
X73725000Y-59260000D02*
X73725000Y-58360000D01*
X58485000Y-59260000D02*
X58485000Y-58360000D01*
D13*
X16500000Y-5680000D02*
X16500000Y-16000000D01*
D14*
X78805000Y-59260000D02*
X78805000Y-58360000D01*
D13*
X40460000Y-5680000D02*
X16500000Y-5680000D01*
D14*
X63565000Y-59260000D02*
X63565000Y-58360000D01*
X66105000Y-59260000D02*
X66105000Y-58360000D01*
D15*
X43245000Y-58360000D02*
X91505000Y-58360000D01*
D14*
X55945000Y-59260000D02*
X55945000Y-58360000D01*
%TO.N,ROW_08_ANODE*%
X86425000Y-61800000D02*
X86425000Y-60900000D01*
X88965000Y-61800000D02*
X88965000Y-60900000D01*
X78805000Y-61800000D02*
X78805000Y-60900000D01*
X91505000Y-61800000D02*
X91505000Y-60900000D01*
X66105000Y-61800000D02*
X66105000Y-60900000D01*
D13*
X17050000Y-5960000D02*
X17050000Y-16000000D01*
D14*
X53405000Y-61800000D02*
X53405000Y-60900000D01*
D13*
X40180000Y-60900000D02*
X40180000Y-5960000D01*
X42420000Y-60900000D02*
X40180000Y-60900000D01*
D15*
X43245000Y-60900000D02*
X42420000Y-60900000D01*
D14*
X76265000Y-61800000D02*
X76265000Y-60900000D01*
X81345000Y-61800000D02*
X81345000Y-60900000D01*
X50865000Y-61800000D02*
X50865000Y-60900000D01*
X58485000Y-61800000D02*
X58485000Y-60900000D01*
D13*
X40180000Y-5960000D02*
X17050000Y-5960000D01*
D14*
X68645000Y-61800000D02*
X68645000Y-60900000D01*
X55945000Y-61800000D02*
X55945000Y-60900000D01*
X83885000Y-61800000D02*
X83885000Y-60900000D01*
X73725000Y-61800000D02*
X73725000Y-60900000D01*
D15*
X43245000Y-60900000D02*
X91505000Y-60900000D01*
D14*
X61025000Y-61800000D02*
X61025000Y-60900000D01*
X48325000Y-61800000D02*
X48325000Y-60900000D01*
X45785000Y-61800000D02*
X45785000Y-60900000D01*
X43245000Y-61800000D02*
X43245000Y-60900000D01*
X71185000Y-61800000D02*
X71185000Y-60900000D01*
X63565000Y-61800000D02*
X63565000Y-60900000D01*
%TO.N,ROW_09_ANODE*%
D15*
X43245000Y-63440000D02*
X42420000Y-63440000D01*
D14*
X86425000Y-64340000D02*
X86425000Y-63440000D01*
X63565000Y-64340000D02*
X63565000Y-63440000D01*
X55945000Y-64340000D02*
X55945000Y-63440000D01*
D13*
X17600000Y-6240000D02*
X17600000Y-16000000D01*
D14*
X66105000Y-64340000D02*
X66105000Y-63440000D01*
X58485000Y-64340000D02*
X58485000Y-63440000D01*
X81345000Y-64340000D02*
X81345000Y-63440000D01*
X50865000Y-64340000D02*
X50865000Y-63440000D01*
D13*
X42420000Y-63440000D02*
X39900000Y-63440000D01*
D14*
X43245000Y-64340000D02*
X43245000Y-63440000D01*
X88965000Y-64340000D02*
X88965000Y-63440000D01*
D15*
X43245000Y-63440000D02*
X91505000Y-63440000D01*
D14*
X78805000Y-64340000D02*
X78805000Y-63440000D01*
X61025000Y-64340000D02*
X61025000Y-63440000D01*
X76265000Y-64340000D02*
X76265000Y-63440000D01*
X83885000Y-64340000D02*
X83885000Y-63440000D01*
X91505000Y-64340000D02*
X91505000Y-63440000D01*
X45785000Y-64340000D02*
X45785000Y-63440000D01*
X53405000Y-64340000D02*
X53405000Y-63440000D01*
X73725000Y-64340000D02*
X73725000Y-63440000D01*
X71185000Y-64340000D02*
X71185000Y-63440000D01*
D13*
X39900000Y-63440000D02*
X39900000Y-6240000D01*
D14*
X68645000Y-64340000D02*
X68645000Y-63440000D01*
X48325000Y-64340000D02*
X48325000Y-63440000D01*
D13*
X39900000Y-6240000D02*
X17600000Y-6240000D01*
%TO.N,ROW_10_ANODE*%
D14*
X48325000Y-66879999D02*
X48325000Y-65979999D01*
X71185000Y-66879999D02*
X71185000Y-65979999D01*
X76265000Y-66879999D02*
X76265000Y-65979999D01*
D13*
X42420000Y-65979999D02*
X39620000Y-65979999D01*
D14*
X91505000Y-66879999D02*
X91505000Y-65979999D01*
X45785000Y-66879999D02*
X45785000Y-65979999D01*
X61025000Y-66879999D02*
X61025000Y-65979999D01*
X53405000Y-66879999D02*
X53405000Y-65979999D01*
X73725000Y-66879999D02*
X73725000Y-65979999D01*
X88965000Y-66879999D02*
X88965000Y-65979999D01*
X78805000Y-66879999D02*
X78805000Y-65979999D01*
D15*
X43245000Y-65979999D02*
X42420000Y-65979999D01*
D13*
X39620000Y-65979999D02*
X39620000Y-6520000D01*
X18150000Y-6520000D02*
X18150000Y-16000000D01*
D14*
X50865000Y-66879999D02*
X50865000Y-65979999D01*
X43245000Y-66879999D02*
X43245000Y-65979999D01*
X68645000Y-66879999D02*
X68645000Y-65979999D01*
X81345000Y-66879999D02*
X81345000Y-65979999D01*
D15*
X43245000Y-65979999D02*
X91505000Y-65979999D01*
D13*
X39620000Y-6520000D02*
X18150000Y-6520000D01*
D14*
X83885000Y-66879999D02*
X83885000Y-65979999D01*
X58485000Y-66879999D02*
X58485000Y-65979999D01*
X86425000Y-66879999D02*
X86425000Y-65979999D01*
X55945000Y-66879999D02*
X55945000Y-65979999D01*
X63565000Y-66879999D02*
X63565000Y-65979999D01*
X66105000Y-66879999D02*
X66105000Y-65979999D01*
%TO.N,ROW_11_ANODE*%
X43245000Y-69420000D02*
X43245000Y-68520000D01*
X73725000Y-69420000D02*
X73725000Y-68520000D01*
X88965000Y-69420000D02*
X88965000Y-68520000D01*
X61025000Y-69420000D02*
X61025000Y-68520000D01*
D13*
X39340000Y-6800000D02*
X18700000Y-6800000D01*
D14*
X91505000Y-69420000D02*
X91505000Y-68520000D01*
D15*
X43245000Y-68520000D02*
X91505000Y-68520000D01*
D14*
X66105000Y-69420000D02*
X66105000Y-68520000D01*
X76265000Y-69420000D02*
X76265000Y-68520000D01*
X48325000Y-69420000D02*
X48325000Y-68520000D01*
X63565000Y-69420000D02*
X63565000Y-68520000D01*
X55945000Y-69420000D02*
X55945000Y-68520000D01*
X58485000Y-69420000D02*
X58485000Y-68520000D01*
X71185000Y-69420000D02*
X71185000Y-68520000D01*
X86425000Y-69420000D02*
X86425000Y-68520000D01*
X53405000Y-69420000D02*
X53405000Y-68520000D01*
D13*
X18700000Y-6800000D02*
X18700000Y-16000000D01*
D14*
X78805000Y-69420000D02*
X78805000Y-68520000D01*
D15*
X43245000Y-68520000D02*
X42420000Y-68520000D01*
D13*
X42420000Y-68520000D02*
X39340000Y-68520000D01*
D14*
X81345000Y-69420000D02*
X81345000Y-68520000D01*
X83885000Y-69420000D02*
X83885000Y-68520000D01*
X50865000Y-69420000D02*
X50865000Y-68520000D01*
X68645000Y-69420000D02*
X68645000Y-68520000D01*
D13*
X39340000Y-68520000D02*
X39340000Y-6800000D01*
D14*
X45785000Y-69420000D02*
X45785000Y-68520000D01*
%TO.N,ROW_12_ANODE*%
X68645000Y-71960000D02*
X68645000Y-71059999D01*
D13*
X42420000Y-71059999D02*
X39060000Y-71059999D01*
D14*
X55945000Y-71960000D02*
X55945000Y-71059999D01*
X45785000Y-71960000D02*
X45785000Y-71059999D01*
X88965000Y-71960000D02*
X88965000Y-71059999D01*
X71185000Y-71960000D02*
X71185000Y-71059999D01*
D15*
X43245000Y-71059999D02*
X42420000Y-71059999D01*
D13*
X19250000Y-7080000D02*
X19250000Y-16000000D01*
D14*
X91505000Y-71960000D02*
X91505000Y-71059999D01*
X58485000Y-71960000D02*
X58485000Y-71059999D01*
X86425000Y-71960000D02*
X86425000Y-71059999D01*
X43245000Y-71960000D02*
X43245000Y-71059999D01*
X63565000Y-71960000D02*
X63565000Y-71059999D01*
X61025000Y-71960000D02*
X61025000Y-71059999D01*
X78805000Y-71960000D02*
X78805000Y-71059999D01*
X76265000Y-71960000D02*
X76265000Y-71059999D01*
X66105000Y-71960000D02*
X66105000Y-71059999D01*
D13*
X39060000Y-7080000D02*
X19250000Y-7080000D01*
D14*
X53405000Y-71960000D02*
X53405000Y-71059999D01*
X73725000Y-71960000D02*
X73725000Y-71059999D01*
X50865000Y-71960000D02*
X50865000Y-71059999D01*
X83885000Y-71960000D02*
X83885000Y-71059999D01*
D13*
X39060000Y-71059999D02*
X39060000Y-7080000D01*
D14*
X81345000Y-71960000D02*
X81345000Y-71059999D01*
D15*
X43245000Y-71059999D02*
X91505000Y-71059999D01*
D14*
X48325000Y-71960000D02*
X48325000Y-71059999D01*
%TO.N,ROW_13_ANODE*%
X73725000Y-74500000D02*
X73725000Y-73600000D01*
X58485000Y-74500000D02*
X58485000Y-73600000D01*
X63565000Y-74500000D02*
X63565000Y-73600000D01*
X76265000Y-74500000D02*
X76265000Y-73600000D01*
X45785000Y-74500000D02*
X45785000Y-73600000D01*
D13*
X19800000Y-7360000D02*
X19800000Y-16000000D01*
D14*
X50865000Y-74500000D02*
X50865000Y-73600000D01*
X61025000Y-74500000D02*
X61025000Y-73600000D01*
X68645000Y-74500000D02*
X68645000Y-73600000D01*
X53405000Y-74500000D02*
X53405000Y-73600000D01*
D13*
X42420000Y-73600000D02*
X38780000Y-73600000D01*
D14*
X91505000Y-74500000D02*
X91505000Y-73600000D01*
X71185000Y-74500000D02*
X71185000Y-73600000D01*
X48325000Y-74500000D02*
X48325000Y-73600000D01*
D13*
X38780000Y-73600000D02*
X38780000Y-7360000D01*
D14*
X66105000Y-74500000D02*
X66105000Y-73600000D01*
X88965000Y-74500000D02*
X88965000Y-73600000D01*
X78805000Y-74500000D02*
X78805000Y-73600000D01*
X83885000Y-74500000D02*
X83885000Y-73600000D01*
X86425000Y-74500000D02*
X86425000Y-73600000D01*
D15*
X43245000Y-73600000D02*
X91505000Y-73600000D01*
D14*
X55945000Y-74500000D02*
X55945000Y-73600000D01*
D13*
X38780000Y-7360000D02*
X19800000Y-7360000D01*
D15*
X43245000Y-73600000D02*
X42420000Y-73600000D01*
D14*
X43245000Y-74500000D02*
X43245000Y-73600000D01*
X81345000Y-74500000D02*
X81345000Y-73600000D01*
%TO.N,ROW_14_ANODE*%
X48325000Y-77040000D02*
X48325000Y-76140000D01*
X86425000Y-77040000D02*
X86425000Y-76140000D01*
X71185000Y-77040000D02*
X71185000Y-76140000D01*
X55945000Y-77040000D02*
X55945000Y-76140000D01*
X63565000Y-77040000D02*
X63565000Y-76140000D01*
X61025000Y-77040000D02*
X61025000Y-76140000D01*
D13*
X20350000Y-7640000D02*
X20350000Y-16000000D01*
X38500000Y-7640000D02*
X20350000Y-7640000D01*
D14*
X45785000Y-77040000D02*
X45785000Y-76140000D01*
X73725000Y-77040000D02*
X73725000Y-76140000D01*
D13*
X38500000Y-76140000D02*
X38500000Y-7640000D01*
D15*
X43245000Y-76140000D02*
X42420000Y-76140000D01*
D14*
X83885000Y-77040000D02*
X83885000Y-76140000D01*
X50865000Y-77040000D02*
X50865000Y-76140000D01*
X66105000Y-77040000D02*
X66105000Y-76140000D01*
X43245000Y-77040000D02*
X43245000Y-76140000D01*
X91505000Y-77040000D02*
X91505000Y-76140000D01*
X58485000Y-77040000D02*
X58485000Y-76140000D01*
X68645000Y-77040000D02*
X68645000Y-76140000D01*
X81345000Y-77040000D02*
X81345000Y-76140000D01*
X76265000Y-77040000D02*
X76265000Y-76140000D01*
X78805000Y-77040000D02*
X78805000Y-76140000D01*
D13*
X42420000Y-76140000D02*
X38500000Y-76140000D01*
D15*
X43245000Y-76140000D02*
X91505000Y-76140000D01*
D14*
X53405000Y-77040000D02*
X53405000Y-76140000D01*
X88965000Y-77040000D02*
X88965000Y-76140000D01*
%TO.N,ROW_15_ANODE*%
X86425000Y-79580000D02*
X86425000Y-78680000D01*
X61025000Y-79580000D02*
X61025000Y-78680000D01*
X78805000Y-79580000D02*
X78805000Y-78680000D01*
D15*
X43245000Y-78680000D02*
X91505000Y-78680000D01*
D14*
X45785000Y-79580000D02*
X45785000Y-78680000D01*
X50865000Y-79580000D02*
X50865000Y-78680000D01*
X58485000Y-79580000D02*
X58485000Y-78680000D01*
X76265000Y-79580000D02*
X76265000Y-78680000D01*
X91505000Y-79580000D02*
X91505000Y-78680000D01*
D13*
X20900000Y-7920000D02*
X20900000Y-16000000D01*
D14*
X43245000Y-79580000D02*
X43245000Y-78680000D01*
X53405000Y-79580000D02*
X53405000Y-78680000D01*
X68645000Y-79580000D02*
X68645000Y-78680000D01*
X48325000Y-79580000D02*
X48325000Y-78680000D01*
X63565000Y-79580000D02*
X63565000Y-78680000D01*
X88965000Y-79580000D02*
X88965000Y-78680000D01*
X55945000Y-79580000D02*
X55945000Y-78680000D01*
D13*
X38220000Y-7920000D02*
X20900000Y-7920000D01*
D14*
X73725000Y-79580000D02*
X73725000Y-78680000D01*
X81345000Y-79580000D02*
X81345000Y-78680000D01*
X83885000Y-79580000D02*
X83885000Y-78680000D01*
X71185000Y-79580000D02*
X71185000Y-78680000D01*
D13*
X42420000Y-78680000D02*
X38220000Y-78680000D01*
D14*
X66105000Y-79580000D02*
X66105000Y-78680000D01*
D15*
X43245000Y-78680000D02*
X42420000Y-78680000D01*
D13*
X38220000Y-78680000D02*
X38220000Y-7920000D01*
%TO.N,ROW_16_ANODE*%
D14*
X50865000Y-82120000D02*
X50865000Y-81220000D01*
X45785000Y-82120000D02*
X45785000Y-81220000D01*
X55945000Y-82120000D02*
X55945000Y-81220000D01*
D15*
X43245000Y-81220000D02*
X42420000Y-81220000D01*
D14*
X61025000Y-82120000D02*
X61025000Y-81220000D01*
X63565000Y-82120000D02*
X63565000Y-81220000D01*
X91505000Y-82120000D02*
X91505000Y-81220000D01*
X81345000Y-82120000D02*
X81345000Y-81220000D01*
D13*
X21450000Y-8199999D02*
X21450000Y-16000000D01*
X37940000Y-8199999D02*
X21450000Y-8199999D01*
D14*
X53405000Y-82120000D02*
X53405000Y-81220000D01*
D15*
X43245000Y-81220000D02*
X91505000Y-81220000D01*
D14*
X68645000Y-82120000D02*
X68645000Y-81220000D01*
D13*
X42420000Y-81220000D02*
X37940000Y-81220000D01*
D14*
X43245000Y-82120000D02*
X43245000Y-81220000D01*
X76265000Y-82120000D02*
X76265000Y-81220000D01*
X58485000Y-82120000D02*
X58485000Y-81220000D01*
X83885000Y-82120000D02*
X83885000Y-81220000D01*
X48325000Y-82120000D02*
X48325000Y-81220000D01*
X71185000Y-82120000D02*
X71185000Y-81220000D01*
D13*
X37940000Y-81220000D02*
X37940000Y-8199999D01*
D14*
X73725000Y-82120000D02*
X73725000Y-81220000D01*
X78805000Y-82120000D02*
X78805000Y-81220000D01*
X86425000Y-82120000D02*
X86425000Y-81220000D01*
X88965000Y-82120000D02*
X88965000Y-81220000D01*
X66105000Y-82120000D02*
X66105000Y-81220000D01*
%TO.N,ROW_17_ANODE*%
X68645000Y-84660000D02*
X68645000Y-83759999D01*
D15*
X43245000Y-83759999D02*
X91505000Y-83759999D01*
D14*
X48325000Y-84660000D02*
X48325000Y-83759999D01*
X43245000Y-84660000D02*
X43245000Y-83759999D01*
X91505000Y-84660000D02*
X91505000Y-83759999D01*
X78805000Y-84660000D02*
X78805000Y-83759999D01*
X86425000Y-84660000D02*
X86425000Y-83759999D01*
X81345000Y-84660000D02*
X81345000Y-83759999D01*
X53405000Y-84660000D02*
X53405000Y-83759999D01*
X63565000Y-84660000D02*
X63565000Y-83759999D01*
X45785000Y-84660000D02*
X45785000Y-83759999D01*
D15*
X43245000Y-83759999D02*
X42420000Y-83759999D01*
D14*
X83885000Y-84660000D02*
X83885000Y-83759999D01*
X61025000Y-84660000D02*
X61025000Y-83759999D01*
X58485000Y-84660000D02*
X58485000Y-83759999D01*
D13*
X42420000Y-83759999D02*
X37660000Y-83759999D01*
D14*
X71185000Y-84660000D02*
X71185000Y-83759999D01*
D13*
X22000000Y-8480000D02*
X22000000Y-16000000D01*
D14*
X50865000Y-84660000D02*
X50865000Y-83759999D01*
D13*
X37660000Y-83759999D02*
X37660000Y-8480000D01*
X37660000Y-8480000D02*
X22000000Y-8480000D01*
D14*
X55945000Y-84660000D02*
X55945000Y-83759999D01*
X73725000Y-84660000D02*
X73725000Y-83759999D01*
X88965000Y-84660000D02*
X88965000Y-83759999D01*
X66105000Y-84660000D02*
X66105000Y-83759999D01*
X76265000Y-84660000D02*
X76265000Y-83759999D01*
%TO.N,ROW_18_ANODE*%
X48325000Y-87200000D02*
X48325000Y-86300000D01*
X61025000Y-87200000D02*
X61025000Y-86300000D01*
X58485000Y-87200000D02*
X58485000Y-86300000D01*
X91505000Y-87200000D02*
X91505000Y-86300000D01*
X88965000Y-87200000D02*
X88965000Y-86300000D01*
D15*
X43245000Y-86300000D02*
X42420000Y-86300000D01*
D14*
X76265000Y-87200000D02*
X76265000Y-86300000D01*
D13*
X37380000Y-86300000D02*
X37380000Y-8760000D01*
D14*
X68645000Y-87200000D02*
X68645000Y-86300000D01*
D13*
X37380000Y-8760000D02*
X22550000Y-8760000D01*
D14*
X53405000Y-87200000D02*
X53405000Y-86300000D01*
D13*
X42420000Y-86300000D02*
X37380000Y-86300000D01*
D14*
X73725000Y-87200000D02*
X73725000Y-86300000D01*
X86425000Y-87200000D02*
X86425000Y-86300000D01*
D15*
X43245000Y-86300000D02*
X91505000Y-86300000D01*
D14*
X50865000Y-87200000D02*
X50865000Y-86300000D01*
X66105000Y-87200000D02*
X66105000Y-86300000D01*
X71185000Y-87200000D02*
X71185000Y-86300000D01*
X81345000Y-87200000D02*
X81345000Y-86300000D01*
X55945000Y-87200000D02*
X55945000Y-86300000D01*
X63565000Y-87200000D02*
X63565000Y-86300000D01*
X45785000Y-87200000D02*
X45785000Y-86300000D01*
X43245000Y-87200000D02*
X43245000Y-86300000D01*
X83885000Y-87200000D02*
X83885000Y-86300000D01*
X78805000Y-87200000D02*
X78805000Y-86300000D01*
D13*
X22550000Y-8760000D02*
X22550000Y-16000000D01*
%TO.N,ROW_19_ANODE*%
D14*
X53405000Y-89740000D02*
X53405000Y-88839999D01*
X50865000Y-89740000D02*
X50865000Y-88839999D01*
X55945000Y-89740000D02*
X55945000Y-88839999D01*
X81345000Y-89740000D02*
X81345000Y-88839999D01*
X68645000Y-89740000D02*
X68645000Y-88839999D01*
X66105000Y-89740000D02*
X66105000Y-88839999D01*
D13*
X23100000Y-9040000D02*
X23100000Y-16000000D01*
D15*
X43245000Y-88839999D02*
X91505000Y-88839999D01*
X43245000Y-88839999D02*
X42420000Y-88839999D01*
D14*
X58485000Y-89740000D02*
X58485000Y-88839999D01*
D13*
X37100000Y-9040000D02*
X23100000Y-9040000D01*
D14*
X91505000Y-89740000D02*
X91505000Y-88839999D01*
X45785000Y-89740000D02*
X45785000Y-88839999D01*
X43245000Y-89740000D02*
X43245000Y-88839999D01*
X86425000Y-89740000D02*
X86425000Y-88839999D01*
X83885000Y-89740000D02*
X83885000Y-88839999D01*
X78805000Y-89740000D02*
X78805000Y-88839999D01*
X63565000Y-89740000D02*
X63565000Y-88839999D01*
X61025000Y-89740000D02*
X61025000Y-88839999D01*
X71185000Y-89740000D02*
X71185000Y-88839999D01*
D13*
X42420000Y-88839999D02*
X37100000Y-88839999D01*
D14*
X88965000Y-89740000D02*
X88965000Y-88839999D01*
X48325000Y-89740000D02*
X48325000Y-88839999D01*
D13*
X37100000Y-88839999D02*
X37100000Y-9040000D01*
D14*
X73725000Y-89740000D02*
X73725000Y-88839999D01*
X76265000Y-89740000D02*
X76265000Y-88839999D01*
%TO.N,ROW_20_ANODE*%
X63565000Y-92280000D02*
X63565000Y-91380000D01*
X61025000Y-92280000D02*
X61025000Y-91380000D01*
X73725000Y-92280000D02*
X73725000Y-91380000D01*
X50865000Y-92280000D02*
X50865000Y-91380000D01*
X83885000Y-92280000D02*
X83885000Y-91380000D01*
X66105000Y-92280000D02*
X66105000Y-91380000D01*
X45785000Y-92280000D02*
X45785000Y-91380000D01*
D13*
X36820000Y-9320000D02*
X23650000Y-9320000D01*
X42420000Y-91380000D02*
X36820000Y-91380000D01*
D14*
X53405000Y-92280000D02*
X53405000Y-91380000D01*
X71185000Y-92280000D02*
X71185000Y-91380000D01*
D13*
X23650000Y-9320000D02*
X23650000Y-16000000D01*
D14*
X43245000Y-92280000D02*
X43245000Y-91380000D01*
D15*
X43245000Y-91380000D02*
X91505000Y-91380000D01*
D14*
X55945000Y-92280000D02*
X55945000Y-91380000D01*
X86425000Y-92280000D02*
X86425000Y-91380000D01*
X88965000Y-92280000D02*
X88965000Y-91380000D01*
X76265000Y-92280000D02*
X76265000Y-91380000D01*
X58485000Y-92280000D02*
X58485000Y-91380000D01*
X91505000Y-92280000D02*
X91505000Y-91380000D01*
X81345000Y-92280000D02*
X81345000Y-91380000D01*
D13*
X36820000Y-91380000D02*
X36820000Y-9320000D01*
D14*
X48325000Y-92280000D02*
X48325000Y-91380000D01*
X78805000Y-92280000D02*
X78805000Y-91380000D01*
D15*
X43245000Y-91380000D02*
X42420000Y-91380000D01*
D14*
X68645000Y-92280000D02*
X68645000Y-91380000D01*
%TO.N,COL_01*%
X44795000Y-59260000D02*
X44795000Y-60360000D01*
X44795000Y-79580000D02*
X44795000Y-80680000D01*
X44795000Y-44020000D02*
X44795000Y-45120000D01*
X44795000Y-74500000D02*
X44795000Y-75600000D01*
X44795000Y-84660000D02*
X44795000Y-85759999D01*
X44795000Y-71960000D02*
X44795000Y-73059999D01*
X44795000Y-69420000D02*
X44795000Y-70520000D01*
X44795000Y-46560000D02*
X44795000Y-47660000D01*
X44795000Y-92280000D02*
X44795000Y-93380000D01*
X44795000Y-87200000D02*
X44795000Y-88300000D01*
X44795000Y-77040000D02*
X44795000Y-78140000D01*
X44795000Y-49100000D02*
X44795000Y-50200000D01*
X44795000Y-56720000D02*
X44795000Y-57820000D01*
X44795000Y-54180000D02*
X44795000Y-55280000D01*
X44795000Y-64340000D02*
X44795000Y-65440000D01*
X44795000Y-51640000D02*
X44795000Y-52740000D01*
X44795000Y-66879999D02*
X44795000Y-67979999D01*
X44795000Y-89740000D02*
X44795000Y-90839999D01*
X44795000Y-82120000D02*
X44795000Y-83220000D01*
X44795000Y-61800000D02*
X44795000Y-62900000D01*
%TO.N,COL_02*%
X47335000Y-79580000D02*
X47335000Y-80680000D01*
X47335000Y-46560000D02*
X47335000Y-47660000D01*
X47335000Y-82120000D02*
X47335000Y-83220000D01*
X47335000Y-51640000D02*
X47335000Y-52740000D01*
X47335000Y-74500000D02*
X47335000Y-75600000D01*
X47335000Y-49100000D02*
X47335000Y-50200000D01*
X47335000Y-59260000D02*
X47335000Y-60360000D01*
X47335000Y-64340000D02*
X47335000Y-65440000D01*
X47335000Y-69420000D02*
X47335000Y-70520000D01*
X47335000Y-77040000D02*
X47335000Y-78140000D01*
X47335000Y-89740000D02*
X47335000Y-90839999D01*
X47335000Y-87200000D02*
X47335000Y-88300000D01*
X47335000Y-54180000D02*
X47335000Y-55280000D01*
X47335000Y-44020000D02*
X47335000Y-45120000D01*
X47335000Y-71960000D02*
X47335000Y-73059999D01*
X47335000Y-56720000D02*
X47335000Y-57820000D01*
X47335000Y-66879999D02*
X47335000Y-67979999D01*
X47335000Y-84660000D02*
X47335000Y-85759999D01*
X47335000Y-92280000D02*
X47335000Y-93380000D01*
X47335000Y-61800000D02*
X47335000Y-62900000D01*
%TO.N,COL_03*%
X49875000Y-56720000D02*
X49875000Y-57820000D01*
X49875000Y-59260000D02*
X49875000Y-60360000D01*
X49875000Y-77040000D02*
X49875000Y-78140000D01*
X49875000Y-84660000D02*
X49875000Y-85759999D01*
X49875000Y-49100000D02*
X49875000Y-50200000D01*
X49875000Y-61800000D02*
X49875000Y-62900000D01*
X49875000Y-54180000D02*
X49875000Y-55280000D01*
X49875000Y-82120000D02*
X49875000Y-83220000D01*
X49875000Y-64340000D02*
X49875000Y-65440000D01*
X49875000Y-87200000D02*
X49875000Y-88300000D01*
X49875000Y-44020000D02*
X49875000Y-45120000D01*
X49875000Y-89740000D02*
X49875000Y-90839999D01*
X49875000Y-46560000D02*
X49875000Y-47660000D01*
X49875000Y-69420000D02*
X49875000Y-70520000D01*
X49875000Y-71960000D02*
X49875000Y-73059999D01*
X49875000Y-92280000D02*
X49875000Y-93380000D01*
X49875000Y-79580000D02*
X49875000Y-80680000D01*
X49875000Y-51640000D02*
X49875000Y-52740000D01*
X49875000Y-66879999D02*
X49875000Y-67979999D01*
X49875000Y-74500000D02*
X49875000Y-75600000D01*
%TO.N,COL_04*%
X52415000Y-92280000D02*
X52415000Y-93380000D01*
X52415000Y-79580000D02*
X52415000Y-80680000D01*
X52415000Y-61800000D02*
X52415000Y-62900000D01*
X52415000Y-84660000D02*
X52415000Y-85759999D01*
X52415000Y-66879999D02*
X52415000Y-67979999D01*
X52415000Y-46560000D02*
X52415000Y-47660000D01*
X52415000Y-69420000D02*
X52415000Y-70520000D01*
X52415000Y-51640000D02*
X52415000Y-52740000D01*
X52415000Y-74500000D02*
X52415000Y-75600000D01*
X52415000Y-59260000D02*
X52415000Y-60360000D01*
X52415000Y-71960000D02*
X52415000Y-73059999D01*
X52415000Y-49100000D02*
X52415000Y-50200000D01*
X52415000Y-87200000D02*
X52415000Y-88300000D01*
X52415000Y-54180000D02*
X52415000Y-55280000D01*
X52415000Y-64340000D02*
X52415000Y-65440000D01*
X52415000Y-82120000D02*
X52415000Y-83220000D01*
X52415000Y-56720000D02*
X52415000Y-57820000D01*
X52415000Y-89740000D02*
X52415000Y-90839999D01*
X52415000Y-44020000D02*
X52415000Y-45120000D01*
X52415000Y-77040000D02*
X52415000Y-78140000D01*
%TO.N,COL_05*%
X54955000Y-66879999D02*
X54955000Y-67979999D01*
X54955000Y-79580000D02*
X54955000Y-80680000D01*
X54955000Y-71960000D02*
X54955000Y-73059999D01*
X54955000Y-59260000D02*
X54955000Y-60360000D01*
X54955000Y-46560000D02*
X54955000Y-47660000D01*
X54955000Y-82120000D02*
X54955000Y-83220000D01*
X54955000Y-64340000D02*
X54955000Y-65440000D01*
X54955000Y-56720000D02*
X54955000Y-57820000D01*
X54955000Y-61800000D02*
X54955000Y-62900000D01*
X54955000Y-89740000D02*
X54955000Y-90839999D01*
X54955000Y-49100000D02*
X54955000Y-50200000D01*
X54955000Y-44020000D02*
X54955000Y-45120000D01*
X54955000Y-87200000D02*
X54955000Y-88300000D01*
X54955000Y-77040000D02*
X54955000Y-78140000D01*
X54955000Y-92280000D02*
X54955000Y-93380000D01*
X54955000Y-69420000D02*
X54955000Y-70520000D01*
X54955000Y-51640000D02*
X54955000Y-52740000D01*
X54955000Y-54180000D02*
X54955000Y-55280000D01*
X54955000Y-74500000D02*
X54955000Y-75600000D01*
X54955000Y-84660000D02*
X54955000Y-85759999D01*
%TO.N,COL_06*%
X57495000Y-61800000D02*
X57495000Y-62900000D01*
X57495000Y-89740000D02*
X57495000Y-90839999D01*
X57495000Y-56720000D02*
X57495000Y-57820000D01*
X57495000Y-49100000D02*
X57495000Y-50200000D01*
X57495000Y-59260000D02*
X57495000Y-60360000D01*
X57495000Y-51640000D02*
X57495000Y-52740000D01*
X57495000Y-71960000D02*
X57495000Y-73059999D01*
X57495000Y-82120000D02*
X57495000Y-83220000D01*
X57495000Y-77040000D02*
X57495000Y-78140000D01*
X57495000Y-54180000D02*
X57495000Y-55280000D01*
X57495000Y-74500000D02*
X57495000Y-75600000D01*
X57495000Y-87200000D02*
X57495000Y-88300000D01*
X57495000Y-69420000D02*
X57495000Y-70520000D01*
X57495000Y-92280000D02*
X57495000Y-93380000D01*
X57495000Y-46560000D02*
X57495000Y-47660000D01*
X57495000Y-79580000D02*
X57495000Y-80680000D01*
X57495000Y-84660000D02*
X57495000Y-85759999D01*
X57495000Y-64340000D02*
X57495000Y-65440000D01*
X57495000Y-66879999D02*
X57495000Y-67979999D01*
X57495000Y-44020000D02*
X57495000Y-45120000D01*
%TO.N,COL_07*%
X60035000Y-54180000D02*
X60035000Y-55280000D01*
X60035000Y-82120000D02*
X60035000Y-83220000D01*
X60035000Y-61800000D02*
X60035000Y-62900000D01*
X60035000Y-92280000D02*
X60035000Y-93380000D01*
X60035000Y-56720000D02*
X60035000Y-57820000D01*
X60035000Y-89740000D02*
X60035000Y-90839999D01*
X60035000Y-66879999D02*
X60035000Y-67979999D01*
X60035000Y-46560000D02*
X60035000Y-47660000D01*
X60035000Y-69420000D02*
X60035000Y-70520000D01*
X60035000Y-71960000D02*
X60035000Y-73059999D01*
X60035000Y-64340000D02*
X60035000Y-65440000D01*
X60035000Y-84660000D02*
X60035000Y-85759999D01*
X60035000Y-77040000D02*
X60035000Y-78140000D01*
X60035000Y-51640000D02*
X60035000Y-52740000D01*
X60035000Y-59260000D02*
X60035000Y-60360000D01*
X60035000Y-74500000D02*
X60035000Y-75600000D01*
X60035000Y-44020000D02*
X60035000Y-45120000D01*
X60035000Y-49100000D02*
X60035000Y-50200000D01*
X60035000Y-87200000D02*
X60035000Y-88300000D01*
X60035000Y-79580000D02*
X60035000Y-80680000D01*
%TO.N,COL_08*%
X62575000Y-64340000D02*
X62575000Y-65440000D01*
X62575000Y-77040000D02*
X62575000Y-78140000D01*
X62575000Y-49100000D02*
X62575000Y-50200000D01*
X62575000Y-82120000D02*
X62575000Y-83220000D01*
X62575000Y-74500000D02*
X62575000Y-75600000D01*
X62575000Y-61800000D02*
X62575000Y-62900000D01*
X62575000Y-59260000D02*
X62575000Y-60360000D01*
X62575000Y-46560000D02*
X62575000Y-47660000D01*
X62575000Y-84660000D02*
X62575000Y-85759999D01*
X62575000Y-79580000D02*
X62575000Y-80680000D01*
X62575000Y-66879999D02*
X62575000Y-67979999D01*
X62575000Y-87200000D02*
X62575000Y-88300000D01*
X62575000Y-56720000D02*
X62575000Y-57820000D01*
X62575000Y-92280000D02*
X62575000Y-93380000D01*
X62575000Y-54180000D02*
X62575000Y-55280000D01*
X62575000Y-69420000D02*
X62575000Y-70520000D01*
X62575000Y-89740000D02*
X62575000Y-90839999D01*
X62575000Y-44020000D02*
X62575000Y-45120000D01*
X62575000Y-71960000D02*
X62575000Y-73059999D01*
X62575000Y-51640000D02*
X62575000Y-52740000D01*
%TO.N,COL_09*%
X65114999Y-69420000D02*
X65114999Y-70520000D01*
X65114999Y-84660000D02*
X65114999Y-85759999D01*
X65114999Y-59260000D02*
X65114999Y-60360000D01*
X65114999Y-51640000D02*
X65114999Y-52740000D01*
X65114999Y-56720000D02*
X65114999Y-57820000D01*
X65114999Y-82120000D02*
X65114999Y-83220000D01*
X65114999Y-79580000D02*
X65114999Y-80680000D01*
X65114999Y-92280000D02*
X65114999Y-93380000D01*
X65114999Y-49100000D02*
X65114999Y-50200000D01*
X65114999Y-61800000D02*
X65114999Y-62900000D01*
X65114999Y-89740000D02*
X65114999Y-90839999D01*
X65114999Y-77040000D02*
X65114999Y-78140000D01*
X65114999Y-71960000D02*
X65114999Y-73059999D01*
X65114999Y-66879999D02*
X65114999Y-67979999D01*
X65114999Y-74500000D02*
X65114999Y-75600000D01*
X65114999Y-54180000D02*
X65114999Y-55280000D01*
X65114999Y-46560000D02*
X65114999Y-47660000D01*
X65114999Y-64340000D02*
X65114999Y-65440000D01*
X65114999Y-87200000D02*
X65114999Y-88300000D01*
X65114999Y-44020000D02*
X65114999Y-45120000D01*
%TO.N,COL_10*%
X67655000Y-92280000D02*
X67655000Y-93380000D01*
X67655000Y-79580000D02*
X67655000Y-80680000D01*
X67655000Y-46560000D02*
X67655000Y-47660000D01*
X67655000Y-69420000D02*
X67655000Y-70520000D01*
X67655000Y-82120000D02*
X67655000Y-83220000D01*
X67655000Y-44020000D02*
X67655000Y-45120000D01*
X67655000Y-84660000D02*
X67655000Y-85759999D01*
X67655000Y-54180000D02*
X67655000Y-55280000D01*
X67655000Y-71960000D02*
X67655000Y-73059999D01*
X67655000Y-56720000D02*
X67655000Y-57820000D01*
X67655000Y-49100000D02*
X67655000Y-50200000D01*
X67655000Y-77040000D02*
X67655000Y-78140000D01*
X67655000Y-74500000D02*
X67655000Y-75600000D01*
X67655000Y-64340000D02*
X67655000Y-65440000D01*
X67655000Y-66879999D02*
X67655000Y-67979999D01*
X67655000Y-61800000D02*
X67655000Y-62900000D01*
X67655000Y-87200000D02*
X67655000Y-88300000D01*
X67655000Y-51640000D02*
X67655000Y-52740000D01*
X67655000Y-89740000D02*
X67655000Y-90839999D01*
X67655000Y-59260000D02*
X67655000Y-60360000D01*
%TO.N,COL_11*%
X70195000Y-64340000D02*
X70195000Y-65440000D01*
X70195000Y-66879999D02*
X70195000Y-67979999D01*
X70195000Y-82120000D02*
X70195000Y-83220000D01*
X70195000Y-59260000D02*
X70195000Y-60360000D01*
X70195000Y-79580000D02*
X70195000Y-80680000D01*
X70195000Y-49100000D02*
X70195000Y-50200000D01*
X70195000Y-46560000D02*
X70195000Y-47660000D01*
X70195000Y-51640000D02*
X70195000Y-52740000D01*
X70195000Y-54180000D02*
X70195000Y-55280000D01*
X70195000Y-69420000D02*
X70195000Y-70520000D01*
X70195000Y-77040000D02*
X70195000Y-78140000D01*
X70195000Y-56720000D02*
X70195000Y-57820000D01*
X70195000Y-44020000D02*
X70195000Y-45120000D01*
X70195000Y-61800000D02*
X70195000Y-62900000D01*
X70195000Y-74500000D02*
X70195000Y-75600000D01*
X70195000Y-92280000D02*
X70195000Y-93380000D01*
X70195000Y-89740000D02*
X70195000Y-90839999D01*
X70195000Y-71960000D02*
X70195000Y-73059999D01*
X70195000Y-84660000D02*
X70195000Y-85759999D01*
X70195000Y-87200000D02*
X70195000Y-88300000D01*
%TO.N,COL_12*%
X72735000Y-64340000D02*
X72735000Y-65440000D01*
X72735000Y-77040000D02*
X72735000Y-78140000D01*
X72735000Y-49100000D02*
X72735000Y-50200000D01*
X72735000Y-79580000D02*
X72735000Y-80680000D01*
X72735000Y-66879999D02*
X72735000Y-67979999D01*
X72735000Y-69420000D02*
X72735000Y-70520000D01*
X72735000Y-44020000D02*
X72735000Y-45120000D01*
X72735000Y-61800000D02*
X72735000Y-62900000D01*
X72735000Y-71960000D02*
X72735000Y-73059999D01*
X72735000Y-59260000D02*
X72735000Y-60360000D01*
X72735000Y-74500000D02*
X72735000Y-75600000D01*
X72735000Y-89740000D02*
X72735000Y-90839999D01*
X72735000Y-92280000D02*
X72735000Y-93380000D01*
X72735000Y-84660000D02*
X72735000Y-85759999D01*
X72735000Y-87200000D02*
X72735000Y-88300000D01*
X72735000Y-51640000D02*
X72735000Y-52740000D01*
X72735000Y-54180000D02*
X72735000Y-55280000D01*
X72735000Y-82120000D02*
X72735000Y-83220000D01*
X72735000Y-46560000D02*
X72735000Y-47660000D01*
X72735000Y-56720000D02*
X72735000Y-57820000D01*
%TO.N,COL_13*%
X75275000Y-79580000D02*
X75275000Y-80680000D01*
X75275000Y-59260000D02*
X75275000Y-60360000D01*
X75275000Y-61800000D02*
X75275000Y-62900000D01*
X75275000Y-54180000D02*
X75275000Y-55280000D01*
X75275000Y-89740000D02*
X75275000Y-90839999D01*
X75275000Y-82120000D02*
X75275000Y-83220000D01*
X75275000Y-66879999D02*
X75275000Y-67979999D01*
X75275000Y-46560000D02*
X75275000Y-47660000D01*
X75275000Y-56720000D02*
X75275000Y-57820000D01*
X75275000Y-69420000D02*
X75275000Y-70520000D01*
X75275000Y-71960000D02*
X75275000Y-73059999D01*
X75275000Y-51640000D02*
X75275000Y-52740000D01*
X75275000Y-77040000D02*
X75275000Y-78140000D01*
X75275000Y-74500000D02*
X75275000Y-75600000D01*
X75275000Y-87200000D02*
X75275000Y-88300000D01*
X75275000Y-64340000D02*
X75275000Y-65440000D01*
X75275000Y-92280000D02*
X75275000Y-93380000D01*
X75275000Y-49100000D02*
X75275000Y-50200000D01*
X75275000Y-44020000D02*
X75275000Y-45120000D01*
X75275000Y-84660000D02*
X75275000Y-85759999D01*
%TO.N,COL_14*%
X77815000Y-79580000D02*
X77815000Y-80680000D01*
X77815000Y-77040000D02*
X77815000Y-78140000D01*
X77815000Y-84660000D02*
X77815000Y-85759999D01*
X77815000Y-61800000D02*
X77815000Y-62900000D01*
X77815000Y-66879999D02*
X77815000Y-67979999D01*
X77815000Y-51640000D02*
X77815000Y-52740000D01*
X77815000Y-49100000D02*
X77815000Y-50200000D01*
X77815000Y-87200000D02*
X77815000Y-88300000D01*
X77815000Y-44020000D02*
X77815000Y-45120000D01*
X77815000Y-64340000D02*
X77815000Y-65440000D01*
X77815000Y-71960000D02*
X77815000Y-73059999D01*
X77815000Y-46560000D02*
X77815000Y-47660000D01*
X77815000Y-59260000D02*
X77815000Y-60360000D01*
X77815000Y-54180000D02*
X77815000Y-55280000D01*
X77815000Y-82120000D02*
X77815000Y-83220000D01*
X77815000Y-74500000D02*
X77815000Y-75600000D01*
X77815000Y-89740000D02*
X77815000Y-90839999D01*
X77815000Y-56720000D02*
X77815000Y-57820000D01*
X77815000Y-92280000D02*
X77815000Y-93380000D01*
X77815000Y-69420000D02*
X77815000Y-70520000D01*
%TO.N,COL_15*%
X80355000Y-64340000D02*
X80355000Y-65440000D01*
X80355000Y-71960000D02*
X80355000Y-73059999D01*
X80355000Y-84660000D02*
X80355000Y-85759999D01*
X80355000Y-89740000D02*
X80355000Y-90839999D01*
X80355000Y-49100000D02*
X80355000Y-50200000D01*
X80355000Y-77040000D02*
X80355000Y-78140000D01*
X80355000Y-66879999D02*
X80355000Y-67979999D01*
X80355000Y-79580000D02*
X80355000Y-80680000D01*
X80355000Y-61800000D02*
X80355000Y-62900000D01*
X80355000Y-69420000D02*
X80355000Y-70520000D01*
X80355000Y-82120000D02*
X80355000Y-83220000D01*
X80355000Y-92280000D02*
X80355000Y-93380000D01*
X80355000Y-46560000D02*
X80355000Y-47660000D01*
X80355000Y-56720000D02*
X80355000Y-57820000D01*
X80355000Y-87200000D02*
X80355000Y-88300000D01*
X80355000Y-54180000D02*
X80355000Y-55280000D01*
X80355000Y-44020000D02*
X80355000Y-45120000D01*
X80355000Y-59260000D02*
X80355000Y-60360000D01*
X80355000Y-74500000D02*
X80355000Y-75600000D01*
X80355000Y-51640000D02*
X80355000Y-52740000D01*
%TO.N,COL_16*%
X82895000Y-54180000D02*
X82895000Y-55280000D01*
X82895000Y-44020000D02*
X82895000Y-45120000D01*
X82895000Y-87200000D02*
X82895000Y-88300000D01*
X82895000Y-46560000D02*
X82895000Y-47660000D01*
X82895000Y-82120000D02*
X82895000Y-83220000D01*
X82895000Y-64340000D02*
X82895000Y-65440000D01*
X82895000Y-59260000D02*
X82895000Y-60360000D01*
X82895000Y-49100000D02*
X82895000Y-50200000D01*
X82895000Y-71960000D02*
X82895000Y-73059999D01*
X82895000Y-92280000D02*
X82895000Y-93380000D01*
X82895000Y-74500000D02*
X82895000Y-75600000D01*
X82895000Y-61800000D02*
X82895000Y-62900000D01*
X82895000Y-69420000D02*
X82895000Y-70520000D01*
X82895000Y-77040000D02*
X82895000Y-78140000D01*
X82895000Y-66879999D02*
X82895000Y-67979999D01*
X82895000Y-89740000D02*
X82895000Y-90839999D01*
X82895000Y-79580000D02*
X82895000Y-80680000D01*
X82895000Y-84660000D02*
X82895000Y-85759999D01*
X82895000Y-56720000D02*
X82895000Y-57820000D01*
X82895000Y-51640000D02*
X82895000Y-52740000D01*
%TO.N,COL_17*%
X85435000Y-69420000D02*
X85435000Y-70520000D01*
X85435000Y-64340000D02*
X85435000Y-65440000D01*
X85435000Y-71960000D02*
X85435000Y-73059999D01*
X85435000Y-59260000D02*
X85435000Y-60360000D01*
X85435000Y-49100000D02*
X85435000Y-50200000D01*
X85435000Y-66879999D02*
X85435000Y-67979999D01*
X85435000Y-84660000D02*
X85435000Y-85759999D01*
X85435000Y-46560000D02*
X85435000Y-47660000D01*
X85435000Y-44020000D02*
X85435000Y-45120000D01*
X85435000Y-87200000D02*
X85435000Y-88300000D01*
X85435000Y-79580000D02*
X85435000Y-80680000D01*
X85435000Y-56720000D02*
X85435000Y-57820000D01*
X85435000Y-74500000D02*
X85435000Y-75600000D01*
X85435000Y-92280000D02*
X85435000Y-93380000D01*
X85435000Y-89740000D02*
X85435000Y-90839999D01*
X85435000Y-77040000D02*
X85435000Y-78140000D01*
X85435000Y-82120000D02*
X85435000Y-83220000D01*
X85435000Y-51640000D02*
X85435000Y-52740000D01*
X85435000Y-54180000D02*
X85435000Y-55280000D01*
X85435000Y-61800000D02*
X85435000Y-62900000D01*
%TO.N,COL_18*%
X87975000Y-44020000D02*
X87975000Y-45120000D01*
X87975000Y-74500000D02*
X87975000Y-75600000D01*
X87975000Y-79580000D02*
X87975000Y-80680000D01*
X87975000Y-69420000D02*
X87975000Y-70520000D01*
X87975000Y-46560000D02*
X87975000Y-47660000D01*
X87975000Y-56720000D02*
X87975000Y-57820000D01*
X87975000Y-89740000D02*
X87975000Y-90839999D01*
X87975000Y-87200000D02*
X87975000Y-88300000D01*
X87975000Y-92280000D02*
X87975000Y-93380000D01*
X87975000Y-71960000D02*
X87975000Y-73059999D01*
X87975000Y-84660000D02*
X87975000Y-85759999D01*
X87975000Y-64340000D02*
X87975000Y-65440000D01*
X87975000Y-59260000D02*
X87975000Y-60360000D01*
X87975000Y-82120000D02*
X87975000Y-83220000D01*
X87975000Y-51640000D02*
X87975000Y-52740000D01*
X87975000Y-77040000D02*
X87975000Y-78140000D01*
X87975000Y-61800000D02*
X87975000Y-62900000D01*
X87975000Y-66879999D02*
X87975000Y-67979999D01*
X87975000Y-49100000D02*
X87975000Y-50200000D01*
X87975000Y-54180000D02*
X87975000Y-55280000D01*
%TO.N,COL_19*%
X90515000Y-77040000D02*
X90515000Y-78140000D01*
X90515000Y-87200000D02*
X90515000Y-88300000D01*
X90515000Y-66879999D02*
X90515000Y-67979999D01*
X90515000Y-71960000D02*
X90515000Y-73059999D01*
X90515000Y-92280000D02*
X90515000Y-93380000D01*
X90515000Y-89740000D02*
X90515000Y-90839999D01*
X90515000Y-59260000D02*
X90515000Y-60360000D01*
X90515000Y-82120000D02*
X90515000Y-83220000D01*
X90515000Y-51640000D02*
X90515000Y-52740000D01*
X90515000Y-49100000D02*
X90515000Y-50200000D01*
X90515000Y-44020000D02*
X90515000Y-45120000D01*
X90515000Y-84660000D02*
X90515000Y-85759999D01*
X90515000Y-74500000D02*
X90515000Y-75600000D01*
X90515000Y-46560000D02*
X90515000Y-47660000D01*
X90515000Y-64340000D02*
X90515000Y-65440000D01*
X90515000Y-79580000D02*
X90515000Y-80680000D01*
X90515000Y-54180000D02*
X90515000Y-55280000D01*
X90515000Y-56720000D02*
X90515000Y-57820000D01*
X90515000Y-69420000D02*
X90515000Y-70520000D01*
X90515000Y-61800000D02*
X90515000Y-62900000D01*
%TO.N,COL_20*%
X93055000Y-56720000D02*
X93055000Y-57820000D01*
X93055000Y-74500000D02*
X93055000Y-75600000D01*
X93055000Y-79580000D02*
X93055000Y-80680000D01*
X93055000Y-59260000D02*
X93055000Y-60360000D01*
X93055000Y-44020000D02*
X93055000Y-45120000D01*
X93055000Y-61800000D02*
X93055000Y-62900000D01*
X93055000Y-77040000D02*
X93055000Y-78140000D01*
X93055000Y-69420000D02*
X93055000Y-70520000D01*
X93055000Y-82120000D02*
X93055000Y-83220000D01*
X93055000Y-84660000D02*
X93055000Y-85759999D01*
X93055000Y-46560000D02*
X93055000Y-47660000D01*
X93055000Y-54180000D02*
X93055000Y-55280000D01*
X93055000Y-66879999D02*
X93055000Y-67979999D01*
X93055000Y-89740000D02*
X93055000Y-90839999D01*
X93055000Y-51640000D02*
X93055000Y-52740000D01*
X93055000Y-92280000D02*
X93055000Y-93380000D01*
X93055000Y-87200000D02*
X93055000Y-88300000D01*
X93055000Y-64340000D02*
X93055000Y-65440000D01*
X93055000Y-71960000D02*
X93055000Y-73059999D01*
X93055000Y-49100000D02*
X93055000Y-50200000D01*
%TD*%
D16*
X13200000Y-16000000D03*
X13750000Y-16000000D03*
X14299999Y-16000000D03*
X14850000Y-16000000D03*
X15399999Y-16000000D03*
X15950000Y-16000000D03*
X16500000Y-16000000D03*
X17050000Y-16000000D03*
X17600000Y-16000000D03*
X18150000Y-16000000D03*
X18700000Y-16000000D03*
X19250000Y-16000000D03*
X19800000Y-16000000D03*
X20350000Y-16000000D03*
X20900000Y-16000000D03*
X21450000Y-16000000D03*
X22000000Y-16000000D03*
X22550000Y-16000000D03*
X23100000Y-16000000D03*
X23650000Y-16000000D03*
X44795000Y-55280000D03*
X44795000Y-52740000D03*
X44795000Y-80680000D03*
X44795000Y-57820000D03*
X44795000Y-50200000D03*
X44795000Y-45120000D03*
X44795000Y-73059999D03*
X44795000Y-90839999D03*
X44795000Y-85759999D03*
X44795000Y-93380000D03*
X44795000Y-70520000D03*
X44795000Y-62900000D03*
X44795000Y-88300000D03*
X44795000Y-65440000D03*
X44795000Y-60360000D03*
X44795000Y-75600000D03*
X44795000Y-47660000D03*
X44795000Y-78140000D03*
X44795000Y-83220000D03*
X44795000Y-67979999D03*
X47335000Y-57820000D03*
X47335000Y-45120000D03*
X47335000Y-60360000D03*
X47335000Y-78140000D03*
X47335000Y-83220000D03*
X47335000Y-52740000D03*
X47335000Y-70520000D03*
X47335000Y-88300000D03*
X47335000Y-80680000D03*
X47335000Y-62900000D03*
X47335000Y-90839999D03*
X47335000Y-75600000D03*
X47335000Y-50200000D03*
X47335000Y-93380000D03*
X47335000Y-85759999D03*
X47335000Y-47660000D03*
X47335000Y-73059999D03*
X47335000Y-67979999D03*
X47335000Y-65440000D03*
X47335000Y-55280000D03*
X49875000Y-45120000D03*
X49875000Y-88300000D03*
X49875000Y-52740000D03*
X49875000Y-67979999D03*
X49875000Y-65440000D03*
X49875000Y-60360000D03*
X49875000Y-93380000D03*
X49875000Y-78140000D03*
X49875000Y-55280000D03*
X49875000Y-50200000D03*
X49875000Y-73059999D03*
X49875000Y-80680000D03*
X49875000Y-90839999D03*
X49875000Y-75600000D03*
X49875000Y-85759999D03*
X49875000Y-83220000D03*
X49875000Y-47660000D03*
X49875000Y-62900000D03*
X49875000Y-57820000D03*
X49875000Y-70520000D03*
X52415000Y-90839999D03*
X52415000Y-45120000D03*
X52415000Y-70520000D03*
X52415000Y-83220000D03*
X52415000Y-47660000D03*
X52415000Y-50200000D03*
X52415000Y-93380000D03*
X52415000Y-55280000D03*
X52415000Y-60360000D03*
X52415000Y-67979999D03*
X52415000Y-73059999D03*
X52415000Y-57820000D03*
X52415000Y-65440000D03*
X52415000Y-88300000D03*
X52415000Y-52740000D03*
X52415000Y-75600000D03*
X52415000Y-80680000D03*
X52415000Y-78140000D03*
X52415000Y-62900000D03*
X52415000Y-85759999D03*
X54955000Y-80680000D03*
X54955000Y-78140000D03*
X54955000Y-70520000D03*
X54955000Y-93380000D03*
X54955000Y-47660000D03*
X54955000Y-88300000D03*
X54955000Y-60360000D03*
X54955000Y-57820000D03*
X54955000Y-67979999D03*
X54955000Y-73059999D03*
X54955000Y-90839999D03*
X54955000Y-55280000D03*
X54955000Y-85759999D03*
X54955000Y-62900000D03*
X54955000Y-52740000D03*
X54955000Y-65440000D03*
X54955000Y-83220000D03*
X54955000Y-50200000D03*
X54955000Y-45120000D03*
X54955000Y-75600000D03*
X57495000Y-85759999D03*
X57495000Y-55280000D03*
X57495000Y-83220000D03*
X57495000Y-73059999D03*
X57495000Y-90839999D03*
X57495000Y-52740000D03*
X57495000Y-75600000D03*
X57495000Y-45120000D03*
X57495000Y-57820000D03*
X57495000Y-70520000D03*
X57495000Y-60360000D03*
X57495000Y-50200000D03*
X57495000Y-62900000D03*
X57495000Y-93380000D03*
X57495000Y-65440000D03*
X57495000Y-80680000D03*
X57495000Y-47660000D03*
X57495000Y-67979999D03*
X57495000Y-88300000D03*
X57495000Y-78140000D03*
X60035000Y-78140000D03*
X60035000Y-67979999D03*
X60035000Y-45120000D03*
X60035000Y-65440000D03*
X60035000Y-57820000D03*
X60035000Y-50200000D03*
X60035000Y-75600000D03*
X60035000Y-80680000D03*
X60035000Y-90839999D03*
X60035000Y-73059999D03*
X60035000Y-62900000D03*
X60035000Y-55280000D03*
X60035000Y-52740000D03*
X60035000Y-88300000D03*
X60035000Y-70520000D03*
X60035000Y-60360000D03*
X60035000Y-93380000D03*
X60035000Y-83220000D03*
X60035000Y-85759999D03*
X60035000Y-47660000D03*
X62575000Y-85759999D03*
X62575000Y-78140000D03*
X62575000Y-47660000D03*
X62575000Y-67979999D03*
X62575000Y-70520000D03*
X62575000Y-80680000D03*
X62575000Y-55280000D03*
X62575000Y-73059999D03*
X62575000Y-57820000D03*
X62575000Y-50200000D03*
X62575000Y-65440000D03*
X62575000Y-88300000D03*
X62575000Y-75600000D03*
X62575000Y-93380000D03*
X62575000Y-90839999D03*
X62575000Y-52740000D03*
X62575000Y-45120000D03*
X62575000Y-60360000D03*
X62575000Y-62900000D03*
X62575000Y-83220000D03*
X65114999Y-62900000D03*
X65114999Y-70520000D03*
X65114999Y-88300000D03*
X65114999Y-78140000D03*
X65114999Y-75600000D03*
X65114999Y-67979999D03*
X65114999Y-65440000D03*
X65114999Y-60360000D03*
X65114999Y-80680000D03*
X65114999Y-55280000D03*
X65114999Y-93380000D03*
X65114999Y-52740000D03*
X65114999Y-73059999D03*
X65114999Y-57820000D03*
X65114999Y-83220000D03*
X65114999Y-47660000D03*
X65114999Y-45120000D03*
X65114999Y-90839999D03*
X65114999Y-85759999D03*
X65114999Y-50200000D03*
X67655000Y-67979999D03*
X67655000Y-52740000D03*
X67655000Y-83220000D03*
X67655000Y-88300000D03*
X67655000Y-70520000D03*
X67655000Y-75600000D03*
X67655000Y-65440000D03*
X67655000Y-62900000D03*
X67655000Y-60360000D03*
X67655000Y-90839999D03*
X67655000Y-50200000D03*
X67655000Y-47660000D03*
X67655000Y-93380000D03*
X67655000Y-85759999D03*
X67655000Y-45120000D03*
X67655000Y-80680000D03*
X67655000Y-78140000D03*
X67655000Y-73059999D03*
X67655000Y-57820000D03*
X67655000Y-55280000D03*
X70195000Y-78140000D03*
X70195000Y-70520000D03*
X70195000Y-50200000D03*
X70195000Y-93380000D03*
X70195000Y-67979999D03*
X70195000Y-62900000D03*
X70195000Y-57820000D03*
X70195000Y-73059999D03*
X70195000Y-45120000D03*
X70195000Y-52740000D03*
X70195000Y-85759999D03*
X70195000Y-90839999D03*
X70195000Y-47660000D03*
X70195000Y-65440000D03*
X70195000Y-60360000D03*
X70195000Y-83220000D03*
X70195000Y-80680000D03*
X70195000Y-75600000D03*
X70195000Y-55280000D03*
X70195000Y-88300000D03*
X72735000Y-90839999D03*
X72735000Y-50200000D03*
X72735000Y-73059999D03*
X72735000Y-80680000D03*
X72735000Y-47660000D03*
X72735000Y-62900000D03*
X72735000Y-75600000D03*
X72735000Y-65440000D03*
X72735000Y-93380000D03*
X72735000Y-55280000D03*
X72735000Y-78140000D03*
X72735000Y-45120000D03*
X72735000Y-57820000D03*
X72735000Y-70520000D03*
X72735000Y-88300000D03*
X72735000Y-52740000D03*
X72735000Y-67979999D03*
X72735000Y-60360000D03*
X72735000Y-83220000D03*
X72735000Y-85759999D03*
X75275000Y-55280000D03*
X75275000Y-73059999D03*
X75275000Y-75600000D03*
X75275000Y-52740000D03*
X75275000Y-80680000D03*
X75275000Y-50200000D03*
X75275000Y-90839999D03*
X75275000Y-93380000D03*
X75275000Y-47660000D03*
X75275000Y-67979999D03*
X75275000Y-45120000D03*
X75275000Y-60360000D03*
X75275000Y-57820000D03*
X75275000Y-78140000D03*
X75275000Y-85759999D03*
X75275000Y-65440000D03*
X75275000Y-70520000D03*
X75275000Y-62900000D03*
X75275000Y-88300000D03*
X75275000Y-83220000D03*
X77815000Y-85759999D03*
X77815000Y-62900000D03*
X77815000Y-73059999D03*
X77815000Y-93380000D03*
X77815000Y-55280000D03*
X77815000Y-83220000D03*
X77815000Y-50200000D03*
X77815000Y-70520000D03*
X77815000Y-65440000D03*
X77815000Y-52740000D03*
X77815000Y-45120000D03*
X77815000Y-57820000D03*
X77815000Y-80680000D03*
X77815000Y-90839999D03*
X77815000Y-78140000D03*
X77815000Y-47660000D03*
X77815000Y-88300000D03*
X77815000Y-67979999D03*
X77815000Y-75600000D03*
X77815000Y-60360000D03*
X80355000Y-83220000D03*
X80355000Y-62900000D03*
X80355000Y-57820000D03*
X80355000Y-93380000D03*
X80355000Y-70520000D03*
X80355000Y-55280000D03*
X80355000Y-50200000D03*
X80355000Y-85759999D03*
X80355000Y-47660000D03*
X80355000Y-90839999D03*
X80355000Y-45120000D03*
X80355000Y-52740000D03*
X80355000Y-88300000D03*
X80355000Y-75600000D03*
X80355000Y-80680000D03*
X80355000Y-60360000D03*
X80355000Y-73059999D03*
X80355000Y-67979999D03*
X80355000Y-78140000D03*
X80355000Y-65440000D03*
X82895000Y-57820000D03*
X82895000Y-70520000D03*
X82895000Y-60360000D03*
X82895000Y-65440000D03*
X82895000Y-85759999D03*
X82895000Y-93380000D03*
X82895000Y-90839999D03*
X82895000Y-55280000D03*
X82895000Y-75600000D03*
X82895000Y-67979999D03*
X82895000Y-88300000D03*
X82895000Y-52740000D03*
X82895000Y-83220000D03*
X82895000Y-50200000D03*
X82895000Y-45120000D03*
X82895000Y-78140000D03*
X82895000Y-62900000D03*
X82895000Y-80680000D03*
X82895000Y-73059999D03*
X82895000Y-47660000D03*
X85435000Y-52740000D03*
X85435000Y-55280000D03*
X85435000Y-65440000D03*
X85435000Y-90839999D03*
X85435000Y-67979999D03*
X85435000Y-83220000D03*
X85435000Y-93380000D03*
X85435000Y-45120000D03*
X85435000Y-85759999D03*
X85435000Y-75600000D03*
X85435000Y-57820000D03*
X85435000Y-47660000D03*
X85435000Y-80680000D03*
X85435000Y-88300000D03*
X85435000Y-78140000D03*
X85435000Y-60360000D03*
X85435000Y-73059999D03*
X85435000Y-70520000D03*
X85435000Y-50200000D03*
X85435000Y-62900000D03*
X87975000Y-73059999D03*
X87975000Y-78140000D03*
X87975000Y-83220000D03*
X87975000Y-88300000D03*
X87975000Y-45120000D03*
X87975000Y-52740000D03*
X87975000Y-80680000D03*
X87975000Y-60360000D03*
X87975000Y-47660000D03*
X87975000Y-62900000D03*
X87975000Y-90839999D03*
X87975000Y-67979999D03*
X87975000Y-93380000D03*
X87975000Y-55280000D03*
X87975000Y-85759999D03*
X87975000Y-70520000D03*
X87975000Y-65440000D03*
X87975000Y-75600000D03*
X87975000Y-50200000D03*
X87975000Y-57820000D03*
X90515000Y-88300000D03*
X90515000Y-75600000D03*
X90515000Y-83220000D03*
X90515000Y-85759999D03*
X90515000Y-55280000D03*
X90515000Y-62900000D03*
X90515000Y-60360000D03*
X90515000Y-93380000D03*
X90515000Y-52740000D03*
X90515000Y-57820000D03*
X90515000Y-45120000D03*
X90515000Y-90839999D03*
X90515000Y-70520000D03*
X90515000Y-80680000D03*
X90515000Y-47660000D03*
X90515000Y-67979999D03*
X90515000Y-78140000D03*
X90515000Y-73059999D03*
X90515000Y-65440000D03*
X90515000Y-50200000D03*
X93055000Y-85759999D03*
X93055000Y-80680000D03*
X93055000Y-67979999D03*
X93055000Y-45120000D03*
X93055000Y-90839999D03*
X93055000Y-57820000D03*
X93055000Y-70520000D03*
X93055000Y-73059999D03*
X93055000Y-88300000D03*
X93055000Y-52740000D03*
X93055000Y-78140000D03*
X93055000Y-47660000D03*
X93055000Y-83220000D03*
X93055000Y-62900000D03*
X93055000Y-55280000D03*
X93055000Y-60360000D03*
X93055000Y-50200000D03*
X93055000Y-65440000D03*
X93055000Y-75600000D03*
X93055000Y-93380000D03*
M02*
