M48
; DRILL file KiCad 10.0.5 date 2026-10-10T13:59:52
; FORMAT={-:-/ absolute / metric / decimal}
; #@! TF.CreationDate,2026-10-10T13:59:52+00:00
; #@! TF.GenerationSoftware,Kicad,Pcbnew,10.0.5
; #@! TF.FileFunction,MixedPlating,1,2
FMAT,2
METRIC
; #@! TA.AperFunction,Plated,PTH,ViaDrill
T1C0.200
%
G90
G05
T1
X13.2Y-16.0
X13.75Y-16.0
X14.3Y-16.0
X14.85Y-16.0
X15.4Y-16.0
X15.95Y-16.0
X16.5Y-16.0
X17.05Y-16.0
X17.6Y-16.0
X18.15Y-16.0
X18.7Y-16.0
X19.25Y-16.0
X19.8Y-16.0
X20.35Y-16.0
X20.9Y-16.0
X21.45Y-16.0
X22.0Y-16.0
X22.55Y-16.0
X23.1Y-16.0
X23.65Y-16.0
X44.795Y-45.12
X44.795Y-47.66
X44.795Y-50.2
X44.795Y-52.74
X44.795Y-55.28
X44.795Y-57.82
X44.795Y-60.36
X44.795Y-62.9
X44.795Y-65.44
X44.795Y-67.98
X44.795Y-70.52
X44.795Y-73.06
X44.795Y-75.6
X44.795Y-78.14
X44.795Y-80.68
X44.795Y-83.22
X44.795Y-85.76
X44.795Y-88.3
X44.795Y-90.84
X44.795Y-93.38
X47.335Y-45.12
X47.335Y-47.66
X47.335Y-50.2
X47.335Y-52.74
X47.335Y-55.28
X47.335Y-57.82
X47.335Y-60.36
X47.335Y-62.9
X47.335Y-65.44
X47.335Y-67.98
X47.335Y-70.52
X47.335Y-73.06
X47.335Y-75.6
X47.335Y-78.14
X47.335Y-80.68
X47.335Y-83.22
X47.335Y-85.76
X47.335Y-88.3
X47.335Y-90.84
X47.335Y-93.38
X49.875Y-45.12
X49.875Y-47.66
X49.875Y-50.2
X49.875Y-52.74
X49.875Y-55.28
X49.875Y-57.82
X49.875Y-60.36
X49.875Y-62.9
X49.875Y-65.44
X49.875Y-67.98
X49.875Y-70.52
X49.875Y-73.06
X49.875Y-75.6
X49.875Y-78.14
X49.875Y-80.68
X49.875Y-83.22
X49.875Y-85.76
X49.875Y-88.3
X49.875Y-90.84
X49.875Y-93.38
X52.415Y-45.12
X52.415Y-47.66
X52.415Y-50.2
X52.415Y-52.74
X52.415Y-55.28
X52.415Y-57.82
X52.415Y-60.36
X52.415Y-62.9
X52.415Y-65.44
X52.415Y-67.98
X52.415Y-70.52
X52.415Y-73.06
X52.415Y-75.6
X52.415Y-78.14
X52.415Y-80.68
X52.415Y-83.22
X52.415Y-85.76
X52.415Y-88.3
X52.415Y-90.84
X52.415Y-93.38
X54.955Y-45.12
X54.955Y-47.66
X54.955Y-50.2
X54.955Y-52.74
X54.955Y-55.28
X54.955Y-57.82
X54.955Y-60.36
X54.955Y-62.9
X54.955Y-65.44
X54.955Y-67.98
X54.955Y-70.52
X54.955Y-73.06
X54.955Y-75.6
X54.955Y-78.14
X54.955Y-80.68
X54.955Y-83.22
X54.955Y-85.76
X54.955Y-88.3
X54.955Y-90.84
X54.955Y-93.38
X57.495Y-45.12
X57.495Y-47.66
X57.495Y-50.2
X57.495Y-52.74
X57.495Y-55.28
X57.495Y-57.82
X57.495Y-60.36
X57.495Y-62.9
X57.495Y-65.44
X57.495Y-67.98
X57.495Y-70.52
X57.495Y-73.06
X57.495Y-75.6
X57.495Y-78.14
X57.495Y-80.68
X57.495Y-83.22
X57.495Y-85.76
X57.495Y-88.3
X57.495Y-90.84
X57.495Y-93.38
X60.035Y-45.12
X60.035Y-47.66
X60.035Y-50.2
X60.035Y-52.74
X60.035Y-55.28
X60.035Y-57.82
X60.035Y-60.36
X60.035Y-62.9
X60.035Y-65.44
X60.035Y-67.98
X60.035Y-70.52
X60.035Y-73.06
X60.035Y-75.6
X60.035Y-78.14
X60.035Y-80.68
X60.035Y-83.22
X60.035Y-85.76
X60.035Y-88.3
X60.035Y-90.84
X60.035Y-93.38
X62.575Y-45.12
X62.575Y-47.66
X62.575Y-50.2
X62.575Y-52.74
X62.575Y-55.28
X62.575Y-57.82
X62.575Y-60.36
X62.575Y-62.9
X62.575Y-65.44
X62.575Y-67.98
X62.575Y-70.52
X62.575Y-73.06
X62.575Y-75.6
X62.575Y-78.14
X62.575Y-80.68
X62.575Y-83.22
X62.575Y-85.76
X62.575Y-88.3
X62.575Y-90.84
X62.575Y-93.38
X65.115Y-45.12
X65.115Y-47.66
X65.115Y-50.2
X65.115Y-52.74
X65.115Y-55.28
X65.115Y-57.82
X65.115Y-60.36
X65.115Y-62.9
X65.115Y-65.44
X65.115Y-67.98
X65.115Y-70.52
X65.115Y-73.06
X65.115Y-75.6
X65.115Y-78.14
X65.115Y-80.68
X65.115Y-83.22
X65.115Y-85.76
X65.115Y-88.3
X65.115Y-90.84
X65.115Y-93.38
X67.655Y-45.12
X67.655Y-47.66
X67.655Y-50.2
X67.655Y-52.74
X67.655Y-55.28
X67.655Y-57.82
X67.655Y-60.36
X67.655Y-62.9
X67.655Y-65.44
X67.655Y-67.98
X67.655Y-70.52
X67.655Y-73.06
X67.655Y-75.6
X67.655Y-78.14
X67.655Y-80.68
X67.655Y-83.22
X67.655Y-85.76
X67.655Y-88.3
X67.655Y-90.84
X67.655Y-93.38
X70.195Y-45.12
X70.195Y-47.66
X70.195Y-50.2
X70.195Y-52.74
X70.195Y-55.28
X70.195Y-57.82
X70.195Y-60.36
X70.195Y-62.9
X70.195Y-65.44
X70.195Y-67.98
X70.195Y-70.52
X70.195Y-73.06
X70.195Y-75.6
X70.195Y-78.14
X70.195Y-80.68
X70.195Y-83.22
X70.195Y-85.76
X70.195Y-88.3
X70.195Y-90.84
X70.195Y-93.38
X72.735Y-45.12
X72.735Y-47.66
X72.735Y-50.2
X72.735Y-52.74
X72.735Y-55.28
X72.735Y-57.82
X72.735Y-60.36
X72.735Y-62.9
X72.735Y-65.44
X72.735Y-67.98
X72.735Y-70.52
X72.735Y-73.06
X72.735Y-75.6
X72.735Y-78.14
X72.735Y-80.68
X72.735Y-83.22
X72.735Y-85.76
X72.735Y-88.3
X72.735Y-90.84
X72.735Y-93.38
X75.275Y-45.12
X75.275Y-47.66
X75.275Y-50.2
X75.275Y-52.74
X75.275Y-55.28
X75.275Y-57.82
X75.275Y-60.36
X75.275Y-62.9
X75.275Y-65.44
X75.275Y-67.98
X75.275Y-70.52
X75.275Y-73.06
X75.275Y-75.6
X75.275Y-78.14
X75.275Y-80.68
X75.275Y-83.22
X75.275Y-85.76
X75.275Y-88.3
X75.275Y-90.84
X75.275Y-93.38
X77.815Y-45.12
X77.815Y-47.66
X77.815Y-50.2
X77.815Y-52.74
X77.815Y-55.28
X77.815Y-57.82
X77.815Y-60.36
X77.815Y-62.9
X77.815Y-65.44
X77.815Y-67.98
X77.815Y-70.52
X77.815Y-73.06
X77.815Y-75.6
X77.815Y-78.14
X77.815Y-80.68
X77.815Y-83.22
X77.815Y-85.76
X77.815Y-88.3
X77.815Y-90.84
X77.815Y-93.38
X80.355Y-45.12
X80.355Y-47.66
X80.355Y-50.2
X80.355Y-52.74
X80.355Y-55.28
X80.355Y-57.82
X80.355Y-60.36
X80.355Y-62.9
X80.355Y-65.44
X80.355Y-67.98
X80.355Y-70.52
X80.355Y-73.06
X80.355Y-75.6
X80.355Y-78.14
X80.355Y-80.68
X80.355Y-83.22
X80.355Y-85.76
X80.355Y-88.3
X80.355Y-90.84
X80.355Y-93.38
X82.895Y-45.12
X82.895Y-47.66
X82.895Y-50.2
X82.895Y-52.74
X82.895Y-55.28
X82.895Y-57.82
X82.895Y-60.36
X82.895Y-62.9
X82.895Y-65.44
X82.895Y-67.98
X82.895Y-70.52
X82.895Y-73.06
X82.895Y-75.6
X82.895Y-78.14
X82.895Y-80.68
X82.895Y-83.22
X82.895Y-85.76
X82.895Y-88.3
X82.895Y-90.84
X82.895Y-93.38
X85.435Y-45.12
X85.435Y-47.66
X85.435Y-50.2
X85.435Y-52.74
X85.435Y-55.28
X85.435Y-57.82
X85.435Y-60.36
X85.435Y-62.9
X85.435Y-65.44
X85.435Y-67.98
X85.435Y-70.52
X85.435Y-73.06
X85.435Y-75.6
X85.435Y-78.14
X85.435Y-80.68
X85.435Y-83.22
X85.435Y-85.76
X85.435Y-88.3
X85.435Y-90.84
X85.435Y-93.38
X87.975Y-45.12
X87.975Y-47.66
X87.975Y-50.2
X87.975Y-52.74
X87.975Y-55.28
X87.975Y-57.82
X87.975Y-60.36
X87.975Y-62.9
X87.975Y-65.44
X87.975Y-67.98
X87.975Y-70.52
X87.975Y-73.06
X87.975Y-75.6
X87.975Y-78.14
X87.975Y-80.68
X87.975Y-83.22
X87.975Y-85.76
X87.975Y-88.3
X87.975Y-90.84
X87.975Y-93.38
X90.515Y-45.12
X90.515Y-47.66
X90.515Y-50.2
X90.515Y-52.74
X90.515Y-55.28
X90.515Y-57.82
X90.515Y-60.36
X90.515Y-62.9
X90.515Y-65.44
X90.515Y-67.98
X90.515Y-70.52
X90.515Y-73.06
X90.515Y-75.6
X90.515Y-78.14
X90.515Y-80.68
X90.515Y-83.22
X90.515Y-85.76
X90.515Y-88.3
X90.515Y-90.84
X90.515Y-93.38
X93.055Y-45.12
X93.055Y-47.66
X93.055Y-50.2
X93.055Y-52.74
X93.055Y-55.28
X93.055Y-57.82
X93.055Y-60.36
X93.055Y-62.9
X93.055Y-65.44
X93.055Y-67.98
X93.055Y-70.52
X93.055Y-73.06
X93.055Y-75.6
X93.055Y-78.14
X93.055Y-80.68
X93.055Y-83.22
X93.055Y-85.76
X93.055Y-88.3
X93.055Y-90.84
X93.055Y-93.38
M30
