M48
; DRILL file KiCad 10.0.5 date 2026-10-10T13:59:54
; FORMAT={-:-/ absolute / metric / decimal}
; #@! TF.CreationDate,2026-10-10T13:59:54+00:00
; #@! TF.GenerationSoftware,Kicad,Pcbnew,10.0.5
; #@! TF.FileFunction,MixedPlating,1,2
FMAT,2
METRIC
; #@! TA.AperFunction,Plated,PTH,ViaDrill
T1C0.200
%
G90
G05
T1
X13.2Y-16.0
X13.75Y-16.0
X14.3Y-16.0
X14.85Y-16.0
X15.4Y-16.0
X15.95Y-16.0
X16.5Y-16.0
X17.05Y-16.0
X17.6Y-16.0
X18.15Y-16.0
X18.7Y-16.0
X19.25Y-16.0
X19.8Y-16.0
X20.35Y-16.0
X20.9Y-16.0
X21.45Y-16.0
X22.0Y-16.0
X22.55Y-16.0
X23.1Y-16.0
X23.65Y-16.0
X24.2Y-16.0
X24.75Y-16.0
X25.3Y-16.0
X25.85Y-16.0
X26.4Y-16.0
X26.95Y-16.0
X27.5Y-16.0
X28.05Y-16.0
X28.6Y-16.0
X29.15Y-16.0
X29.7Y-16.0
X30.25Y-16.0
X44.755Y-45.08
X44.755Y-47.62
X44.755Y-50.16
X44.755Y-52.7
X44.755Y-55.24
X44.755Y-57.78
X44.755Y-60.32
X44.755Y-62.86
X44.755Y-65.4
X44.755Y-67.94
X44.755Y-70.48
X44.755Y-73.02
X44.755Y-75.56
X44.755Y-78.1
X44.755Y-80.64
X44.755Y-83.18
X44.755Y-85.72
X44.755Y-88.26
X44.755Y-90.8
X44.755Y-93.34
X44.755Y-95.88
X44.755Y-98.42
X44.755Y-100.96
X44.755Y-103.5
X44.755Y-106.04
X44.755Y-108.58
X44.755Y-111.12
X44.755Y-113.66
X44.755Y-116.2
X44.755Y-118.74
X44.755Y-121.28
X44.755Y-123.82
X47.295Y-45.08
X47.295Y-47.62
X47.295Y-50.16
X47.295Y-52.7
X47.295Y-55.24
X47.295Y-57.78
X47.295Y-60.32
X47.295Y-62.86
X47.295Y-65.4
X47.295Y-67.94
X47.295Y-70.48
X47.295Y-73.02
X47.295Y-75.56
X47.295Y-78.1
X47.295Y-80.64
X47.295Y-83.18
X47.295Y-85.72
X47.295Y-88.26
X47.295Y-90.8
X47.295Y-93.34
X47.295Y-95.88
X47.295Y-98.42
X47.295Y-100.96
X47.295Y-103.5
X47.295Y-106.04
X47.295Y-108.58
X47.295Y-111.12
X47.295Y-113.66
X47.295Y-116.2
X47.295Y-118.74
X47.295Y-121.28
X47.295Y-123.82
X49.835Y-45.08
X49.835Y-47.62
X49.835Y-50.16
X49.835Y-52.7
X49.835Y-55.24
X49.835Y-57.78
X49.835Y-60.32
X49.835Y-62.86
X49.835Y-65.4
X49.835Y-67.94
X49.835Y-70.48
X49.835Y-73.02
X49.835Y-75.56
X49.835Y-78.1
X49.835Y-80.64
X49.835Y-83.18
X49.835Y-85.72
X49.835Y-88.26
X49.835Y-90.8
X49.835Y-93.34
X49.835Y-95.88
X49.835Y-98.42
X49.835Y-100.96
X49.835Y-103.5
X49.835Y-106.04
X49.835Y-108.58
X49.835Y-111.12
X49.835Y-113.66
X49.835Y-116.2
X49.835Y-118.74
X49.835Y-121.28
X49.835Y-123.82
X52.375Y-45.08
X52.375Y-47.62
X52.375Y-50.16
X52.375Y-52.7
X52.375Y-55.24
X52.375Y-57.78
X52.375Y-60.32
X52.375Y-62.86
X52.375Y-65.4
X52.375Y-67.94
X52.375Y-70.48
X52.375Y-73.02
X52.375Y-75.56
X52.375Y-78.1
X52.375Y-80.64
X52.375Y-83.18
X52.375Y-85.72
X52.375Y-88.26
X52.375Y-90.8
X52.375Y-93.34
X52.375Y-95.88
X52.375Y-98.42
X52.375Y-100.96
X52.375Y-103.5
X52.375Y-106.04
X52.375Y-108.58
X52.375Y-111.12
X52.375Y-113.66
X52.375Y-116.2
X52.375Y-118.74
X52.375Y-121.28
X52.375Y-123.82
X54.915Y-45.08
X54.915Y-47.62
X54.915Y-50.16
X54.915Y-52.7
X54.915Y-55.24
X54.915Y-57.78
X54.915Y-60.32
X54.915Y-62.86
X54.915Y-65.4
X54.915Y-67.94
X54.915Y-70.48
X54.915Y-73.02
X54.915Y-75.56
X54.915Y-78.1
X54.915Y-80.64
X54.915Y-83.18
X54.915Y-85.72
X54.915Y-88.26
X54.915Y-90.8
X54.915Y-93.34
X54.915Y-95.88
X54.915Y-98.42
X54.915Y-100.96
X54.915Y-103.5
X54.915Y-106.04
X54.915Y-108.58
X54.915Y-111.12
X54.915Y-113.66
X54.915Y-116.2
X54.915Y-118.74
X54.915Y-121.28
X54.915Y-123.82
X57.455Y-45.08
X57.455Y-47.62
X57.455Y-50.16
X57.455Y-52.7
X57.455Y-55.24
X57.455Y-57.78
X57.455Y-60.32
X57.455Y-62.86
X57.455Y-65.4
X57.455Y-67.94
X57.455Y-70.48
X57.455Y-73.02
X57.455Y-75.56
X57.455Y-78.1
X57.455Y-80.64
X57.455Y-83.18
X57.455Y-85.72
X57.455Y-88.26
X57.455Y-90.8
X57.455Y-93.34
X57.455Y-95.88
X57.455Y-98.42
X57.455Y-100.96
X57.455Y-103.5
X57.455Y-106.04
X57.455Y-108.58
X57.455Y-111.12
X57.455Y-113.66
X57.455Y-116.2
X57.455Y-118.74
X57.455Y-121.28
X57.455Y-123.82
X59.995Y-45.08
X59.995Y-47.62
X59.995Y-50.16
X59.995Y-52.7
X59.995Y-55.24
X59.995Y-57.78
X59.995Y-60.32
X59.995Y-62.86
X59.995Y-65.4
X59.995Y-67.94
X59.995Y-70.48
X59.995Y-73.02
X59.995Y-75.56
X59.995Y-78.1
X59.995Y-80.64
X59.995Y-83.18
X59.995Y-85.72
X59.995Y-88.26
X59.995Y-90.8
X59.995Y-93.34
X59.995Y-95.88
X59.995Y-98.42
X59.995Y-100.96
X59.995Y-103.5
X59.995Y-106.04
X59.995Y-108.58
X59.995Y-111.12
X59.995Y-113.66
X59.995Y-116.2
X59.995Y-118.74
X59.995Y-121.28
X59.995Y-123.82
X62.535Y-45.08
X62.535Y-47.62
X62.535Y-50.16
X62.535Y-52.7
X62.535Y-55.24
X62.535Y-57.78
X62.535Y-60.32
X62.535Y-62.86
X62.535Y-65.4
X62.535Y-67.94
X62.535Y-70.48
X62.535Y-73.02
X62.535Y-75.56
X62.535Y-78.1
X62.535Y-80.64
X62.535Y-83.18
X62.535Y-85.72
X62.535Y-88.26
X62.535Y-90.8
X62.535Y-93.34
X62.535Y-95.88
X62.535Y-98.42
X62.535Y-100.96
X62.535Y-103.5
X62.535Y-106.04
X62.535Y-108.58
X62.535Y-111.12
X62.535Y-113.66
X62.535Y-116.2
X62.535Y-118.74
X62.535Y-121.28
X62.535Y-123.82
X65.075Y-45.08
X65.075Y-47.62
X65.075Y-50.16
X65.075Y-52.7
X65.075Y-55.24
X65.075Y-57.78
X65.075Y-60.32
X65.075Y-62.86
X65.075Y-65.4
X65.075Y-67.94
X65.075Y-70.48
X65.075Y-73.02
X65.075Y-75.56
X65.075Y-78.1
X65.075Y-80.64
X65.075Y-83.18
X65.075Y-85.72
X65.075Y-88.26
X65.075Y-90.8
X65.075Y-93.34
X65.075Y-95.88
X65.075Y-98.42
X65.075Y-100.96
X65.075Y-103.5
X65.075Y-106.04
X65.075Y-108.58
X65.075Y-111.12
X65.075Y-113.66
X65.075Y-116.2
X65.075Y-118.74
X65.075Y-121.28
X65.075Y-123.82
X67.615Y-45.08
X67.615Y-47.62
X67.615Y-50.16
X67.615Y-52.7
X67.615Y-55.24
X67.615Y-57.78
X67.615Y-60.32
X67.615Y-62.86
X67.615Y-65.4
X67.615Y-67.94
X67.615Y-70.48
X67.615Y-73.02
X67.615Y-75.56
X67.615Y-78.1
X67.615Y-80.64
X67.615Y-83.18
X67.615Y-85.72
X67.615Y-88.26
X67.615Y-90.8
X67.615Y-93.34
X67.615Y-95.88
X67.615Y-98.42
X67.615Y-100.96
X67.615Y-103.5
X67.615Y-106.04
X67.615Y-108.58
X67.615Y-111.12
X67.615Y-113.66
X67.615Y-116.2
X67.615Y-118.74
X67.615Y-121.28
X67.615Y-123.82
X70.155Y-45.08
X70.155Y-47.62
X70.155Y-50.16
X70.155Y-52.7
X70.155Y-55.24
X70.155Y-57.78
X70.155Y-60.32
X70.155Y-62.86
X70.155Y-65.4
X70.155Y-67.94
X70.155Y-70.48
X70.155Y-73.02
X70.155Y-75.56
X70.155Y-78.1
X70.155Y-80.64
X70.155Y-83.18
X70.155Y-85.72
X70.155Y-88.26
X70.155Y-90.8
X70.155Y-93.34
X70.155Y-95.88
X70.155Y-98.42
X70.155Y-100.96
X70.155Y-103.5
X70.155Y-106.04
X70.155Y-108.58
X70.155Y-111.12
X70.155Y-113.66
X70.155Y-116.2
X70.155Y-118.74
X70.155Y-121.28
X70.155Y-123.82
X72.695Y-45.08
X72.695Y-47.62
X72.695Y-50.16
X72.695Y-52.7
X72.695Y-55.24
X72.695Y-57.78
X72.695Y-60.32
X72.695Y-62.86
X72.695Y-65.4
X72.695Y-67.94
X72.695Y-70.48
X72.695Y-73.02
X72.695Y-75.56
X72.695Y-78.1
X72.695Y-80.64
X72.695Y-83.18
X72.695Y-85.72
X72.695Y-88.26
X72.695Y-90.8
X72.695Y-93.34
X72.695Y-95.88
X72.695Y-98.42
X72.695Y-100.96
X72.695Y-103.5
X72.695Y-106.04
X72.695Y-108.58
X72.695Y-111.12
X72.695Y-113.66
X72.695Y-116.2
X72.695Y-118.74
X72.695Y-121.28
X72.695Y-123.82
X75.235Y-45.08
X75.235Y-47.62
X75.235Y-50.16
X75.235Y-52.7
X75.235Y-55.24
X75.235Y-57.78
X75.235Y-60.32
X75.235Y-62.86
X75.235Y-65.4
X75.235Y-67.94
X75.235Y-70.48
X75.235Y-73.02
X75.235Y-75.56
X75.235Y-78.1
X75.235Y-80.64
X75.235Y-83.18
X75.235Y-85.72
X75.235Y-88.26
X75.235Y-90.8
X75.235Y-93.34
X75.235Y-95.88
X75.235Y-98.42
X75.235Y-100.96
X75.235Y-103.5
X75.235Y-106.04
X75.235Y-108.58
X75.235Y-111.12
X75.235Y-113.66
X75.235Y-116.2
X75.235Y-118.74
X75.235Y-121.28
X75.235Y-123.82
X77.775Y-45.08
X77.775Y-47.62
X77.775Y-50.16
X77.775Y-52.7
X77.775Y-55.24
X77.775Y-57.78
X77.775Y-60.32
X77.775Y-62.86
X77.775Y-65.4
X77.775Y-67.94
X77.775Y-70.48
X77.775Y-73.02
X77.775Y-75.56
X77.775Y-78.1
X77.775Y-80.64
X77.775Y-83.18
X77.775Y-85.72
X77.775Y-88.26
X77.775Y-90.8
X77.775Y-93.34
X77.775Y-95.88
X77.775Y-98.42
X77.775Y-100.96
X77.775Y-103.5
X77.775Y-106.04
X77.775Y-108.58
X77.775Y-111.12
X77.775Y-113.66
X77.775Y-116.2
X77.775Y-118.74
X77.775Y-121.28
X77.775Y-123.82
X80.315Y-45.08
X80.315Y-47.62
X80.315Y-50.16
X80.315Y-52.7
X80.315Y-55.24
X80.315Y-57.78
X80.315Y-60.32
X80.315Y-62.86
X80.315Y-65.4
X80.315Y-67.94
X80.315Y-70.48
X80.315Y-73.02
X80.315Y-75.56
X80.315Y-78.1
X80.315Y-80.64
X80.315Y-83.18
X80.315Y-85.72
X80.315Y-88.26
X80.315Y-90.8
X80.315Y-93.34
X80.315Y-95.88
X80.315Y-98.42
X80.315Y-100.96
X80.315Y-103.5
X80.315Y-106.04
X80.315Y-108.58
X80.315Y-111.12
X80.315Y-113.66
X80.315Y-116.2
X80.315Y-118.74
X80.315Y-121.28
X80.315Y-123.82
X82.855Y-45.08
X82.855Y-47.62
X82.855Y-50.16
X82.855Y-52.7
X82.855Y-55.24
X82.855Y-57.78
X82.855Y-60.32
X82.855Y-62.86
X82.855Y-65.4
X82.855Y-67.94
X82.855Y-70.48
X82.855Y-73.02
X82.855Y-75.56
X82.855Y-78.1
X82.855Y-80.64
X82.855Y-83.18
X82.855Y-85.72
X82.855Y-88.26
X82.855Y-90.8
X82.855Y-93.34
X82.855Y-95.88
X82.855Y-98.42
X82.855Y-100.96
X82.855Y-103.5
X82.855Y-106.04
X82.855Y-108.58
X82.855Y-111.12
X82.855Y-113.66
X82.855Y-116.2
X82.855Y-118.74
X82.855Y-121.28
X82.855Y-123.82
X85.395Y-45.08
X85.395Y-47.62
X85.395Y-50.16
X85.395Y-52.7
X85.395Y-55.24
X85.395Y-57.78
X85.395Y-60.32
X85.395Y-62.86
X85.395Y-65.4
X85.395Y-67.94
X85.395Y-70.48
X85.395Y-73.02
X85.395Y-75.56
X85.395Y-78.1
X85.395Y-80.64
X85.395Y-83.18
X85.395Y-85.72
X85.395Y-88.26
X85.395Y-90.8
X85.395Y-93.34
X85.395Y-95.88
X85.395Y-98.42
X85.395Y-100.96
X85.395Y-103.5
X85.395Y-106.04
X85.395Y-108.58
X85.395Y-111.12
X85.395Y-113.66
X85.395Y-116.2
X85.395Y-118.74
X85.395Y-121.28
X85.395Y-123.82
X87.935Y-45.08
X87.935Y-47.62
X87.935Y-50.16
X87.935Y-52.7
X87.935Y-55.24
X87.935Y-57.78
X87.935Y-60.32
X87.935Y-62.86
X87.935Y-65.4
X87.935Y-67.94
X87.935Y-70.48
X87.935Y-73.02
X87.935Y-75.56
X87.935Y-78.1
X87.935Y-80.64
X87.935Y-83.18
X87.935Y-85.72
X87.935Y-88.26
X87.935Y-90.8
X87.935Y-93.34
X87.935Y-95.88
X87.935Y-98.42
X87.935Y-100.96
X87.935Y-103.5
X87.935Y-106.04
X87.935Y-108.58
X87.935Y-111.12
X87.935Y-113.66
X87.935Y-116.2
X87.935Y-118.74
X87.935Y-121.28
X87.935Y-123.82
X90.475Y-45.08
X90.475Y-47.62
X90.475Y-50.16
X90.475Y-52.7
X90.475Y-55.24
X90.475Y-57.78
X90.475Y-60.32
X90.475Y-62.86
X90.475Y-65.4
X90.475Y-67.94
X90.475Y-70.48
X90.475Y-73.02
X90.475Y-75.56
X90.475Y-78.1
X90.475Y-80.64
X90.475Y-83.18
X90.475Y-85.72
X90.475Y-88.26
X90.475Y-90.8
X90.475Y-93.34
X90.475Y-95.88
X90.475Y-98.42
X90.475Y-100.96
X90.475Y-103.5
X90.475Y-106.04
X90.475Y-108.58
X90.475Y-111.12
X90.475Y-113.66
X90.475Y-116.2
X90.475Y-118.74
X90.475Y-121.28
X90.475Y-123.82
X93.015Y-45.08
X93.015Y-47.62
X93.015Y-50.16
X93.015Y-52.7
X93.015Y-55.24
X93.015Y-57.78
X93.015Y-60.32
X93.015Y-62.86
X93.015Y-65.4
X93.015Y-67.94
X93.015Y-70.48
X93.015Y-73.02
X93.015Y-75.56
X93.015Y-78.1
X93.015Y-80.64
X93.015Y-83.18
X93.015Y-85.72
X93.015Y-88.26
X93.015Y-90.8
X93.015Y-93.34
X93.015Y-95.88
X93.015Y-98.42
X93.015Y-100.96
X93.015Y-103.5
X93.015Y-106.04
X93.015Y-108.58
X93.015Y-111.12
X93.015Y-113.66
X93.015Y-116.2
X93.015Y-118.74
X93.015Y-121.28
X93.015Y-123.82
X95.555Y-45.08
X95.555Y-47.62
X95.555Y-50.16
X95.555Y-52.7
X95.555Y-55.24
X95.555Y-57.78
X95.555Y-60.32
X95.555Y-62.86
X95.555Y-65.4
X95.555Y-67.94
X95.555Y-70.48
X95.555Y-73.02
X95.555Y-75.56
X95.555Y-78.1
X95.555Y-80.64
X95.555Y-83.18
X95.555Y-85.72
X95.555Y-88.26
X95.555Y-90.8
X95.555Y-93.34
X95.555Y-95.88
X95.555Y-98.42
X95.555Y-100.96
X95.555Y-103.5
X95.555Y-106.04
X95.555Y-108.58
X95.555Y-111.12
X95.555Y-113.66
X95.555Y-116.2
X95.555Y-118.74
X95.555Y-121.28
X95.555Y-123.82
X98.095Y-45.08
X98.095Y-47.62
X98.095Y-50.16
X98.095Y-52.7
X98.095Y-55.24
X98.095Y-57.78
X98.095Y-60.32
X98.095Y-62.86
X98.095Y-65.4
X98.095Y-67.94
X98.095Y-70.48
X98.095Y-73.02
X98.095Y-75.56
X98.095Y-78.1
X98.095Y-80.64
X98.095Y-83.18
X98.095Y-85.72
X98.095Y-88.26
X98.095Y-90.8
X98.095Y-93.34
X98.095Y-95.88
X98.095Y-98.42
X98.095Y-100.96
X98.095Y-103.5
X98.095Y-106.04
X98.095Y-108.58
X98.095Y-111.12
X98.095Y-113.66
X98.095Y-116.2
X98.095Y-118.74
X98.095Y-121.28
X98.095Y-123.82
X100.635Y-45.08
X100.635Y-47.62
X100.635Y-50.16
X100.635Y-52.7
X100.635Y-55.24
X100.635Y-57.78
X100.635Y-60.32
X100.635Y-62.86
X100.635Y-65.4
X100.635Y-67.94
X100.635Y-70.48
X100.635Y-73.02
X100.635Y-75.56
X100.635Y-78.1
X100.635Y-80.64
X100.635Y-83.18
X100.635Y-85.72
X100.635Y-88.26
X100.635Y-90.8
X100.635Y-93.34
X100.635Y-95.88
X100.635Y-98.42
X100.635Y-100.96
X100.635Y-103.5
X100.635Y-106.04
X100.635Y-108.58
X100.635Y-111.12
X100.635Y-113.66
X100.635Y-116.2
X100.635Y-118.74
X100.635Y-121.28
X100.635Y-123.82
X103.175Y-45.08
X103.175Y-47.62
X103.175Y-50.16
X103.175Y-52.7
X103.175Y-55.24
X103.175Y-57.78
X103.175Y-60.32
X103.175Y-62.86
X103.175Y-65.4
X103.175Y-67.94
X103.175Y-70.48
X103.175Y-73.02
X103.175Y-75.56
X103.175Y-78.1
X103.175Y-80.64
X103.175Y-83.18
X103.175Y-85.72
X103.175Y-88.26
X103.175Y-90.8
X103.175Y-93.34
X103.175Y-95.88
X103.175Y-98.42
X103.175Y-100.96
X103.175Y-103.5
X103.175Y-106.04
X103.175Y-108.58
X103.175Y-111.12
X103.175Y-113.66
X103.175Y-116.2
X103.175Y-118.74
X103.175Y-121.28
X103.175Y-123.82
X105.715Y-45.08
X105.715Y-47.62
X105.715Y-50.16
X105.715Y-52.7
X105.715Y-55.24
X105.715Y-57.78
X105.715Y-60.32
X105.715Y-62.86
X105.715Y-65.4
X105.715Y-67.94
X105.715Y-70.48
X105.715Y-73.02
X105.715Y-75.56
X105.715Y-78.1
X105.715Y-80.64
X105.715Y-83.18
X105.715Y-85.72
X105.715Y-88.26
X105.715Y-90.8
X105.715Y-93.34
X105.715Y-95.88
X105.715Y-98.42
X105.715Y-100.96
X105.715Y-103.5
X105.715Y-106.04
X105.715Y-108.58
X105.715Y-111.12
X105.715Y-113.66
X105.715Y-116.2
X105.715Y-118.74
X105.715Y-121.28
X105.715Y-123.82
X108.255Y-45.08
X108.255Y-47.62
X108.255Y-50.16
X108.255Y-52.7
X108.255Y-55.24
X108.255Y-57.78
X108.255Y-60.32
X108.255Y-62.86
X108.255Y-65.4
X108.255Y-67.94
X108.255Y-70.48
X108.255Y-73.02
X108.255Y-75.56
X108.255Y-78.1
X108.255Y-80.64
X108.255Y-83.18
X108.255Y-85.72
X108.255Y-88.26
X108.255Y-90.8
X108.255Y-93.34
X108.255Y-95.88
X108.255Y-98.42
X108.255Y-100.96
X108.255Y-103.5
X108.255Y-106.04
X108.255Y-108.58
X108.255Y-111.12
X108.255Y-113.66
X108.255Y-116.2
X108.255Y-118.74
X108.255Y-121.28
X108.255Y-123.82
X110.795Y-45.08
X110.795Y-47.62
X110.795Y-50.16
X110.795Y-52.7
X110.795Y-55.24
X110.795Y-57.78
X110.795Y-60.32
X110.795Y-62.86
X110.795Y-65.4
X110.795Y-67.94
X110.795Y-70.48
X110.795Y-73.02
X110.795Y-75.56
X110.795Y-78.1
X110.795Y-80.64
X110.795Y-83.18
X110.795Y-85.72
X110.795Y-88.26
X110.795Y-90.8
X110.795Y-93.34
X110.795Y-95.88
X110.795Y-98.42
X110.795Y-100.96
X110.795Y-103.5
X110.795Y-106.04
X110.795Y-108.58
X110.795Y-111.12
X110.795Y-113.66
X110.795Y-116.2
X110.795Y-118.74
X110.795Y-121.28
X110.795Y-123.82
X113.335Y-45.08
X113.335Y-47.62
X113.335Y-50.16
X113.335Y-52.7
X113.335Y-55.24
X113.335Y-57.78
X113.335Y-60.32
X113.335Y-62.86
X113.335Y-65.4
X113.335Y-67.94
X113.335Y-70.48
X113.335Y-73.02
X113.335Y-75.56
X113.335Y-78.1
X113.335Y-80.64
X113.335Y-83.18
X113.335Y-85.72
X113.335Y-88.26
X113.335Y-90.8
X113.335Y-93.34
X113.335Y-95.88
X113.335Y-98.42
X113.335Y-100.96
X113.335Y-103.5
X113.335Y-106.04
X113.335Y-108.58
X113.335Y-111.12
X113.335Y-113.66
X113.335Y-116.2
X113.335Y-118.74
X113.335Y-121.28
X113.335Y-123.82
X115.875Y-45.08
X115.875Y-47.62
X115.875Y-50.16
X115.875Y-52.7
X115.875Y-55.24
X115.875Y-57.78
X115.875Y-60.32
X115.875Y-62.86
X115.875Y-65.4
X115.875Y-67.94
X115.875Y-70.48
X115.875Y-73.02
X115.875Y-75.56
X115.875Y-78.1
X115.875Y-80.64
X115.875Y-83.18
X115.875Y-85.72
X115.875Y-88.26
X115.875Y-90.8
X115.875Y-93.34
X115.875Y-95.88
X115.875Y-98.42
X115.875Y-100.96
X115.875Y-103.5
X115.875Y-106.04
X115.875Y-108.58
X115.875Y-111.12
X115.875Y-113.66
X115.875Y-116.2
X115.875Y-118.74
X115.875Y-121.28
X115.875Y-123.82
X118.415Y-45.08
X118.415Y-47.62
X118.415Y-50.16
X118.415Y-52.7
X118.415Y-55.24
X118.415Y-57.78
X118.415Y-60.32
X118.415Y-62.86
X118.415Y-65.4
X118.415Y-67.94
X118.415Y-70.48
X118.415Y-73.02
X118.415Y-75.56
X118.415Y-78.1
X118.415Y-80.64
X118.415Y-83.18
X118.415Y-85.72
X118.415Y-88.26
X118.415Y-90.8
X118.415Y-93.34
X118.415Y-95.88
X118.415Y-98.42
X118.415Y-100.96
X118.415Y-103.5
X118.415Y-106.04
X118.415Y-108.58
X118.415Y-111.12
X118.415Y-113.66
X118.415Y-116.2
X118.415Y-118.74
X118.415Y-121.28
X118.415Y-123.82
X120.955Y-45.08
X120.955Y-47.62
X120.955Y-50.16
X120.955Y-52.7
X120.955Y-55.24
X120.955Y-57.78
X120.955Y-60.32
X120.955Y-62.86
X120.955Y-65.4
X120.955Y-67.94
X120.955Y-70.48
X120.955Y-73.02
X120.955Y-75.56
X120.955Y-78.1
X120.955Y-80.64
X120.955Y-83.18
X120.955Y-85.72
X120.955Y-88.26
X120.955Y-90.8
X120.955Y-93.34
X120.955Y-95.88
X120.955Y-98.42
X120.955Y-100.96
X120.955Y-103.5
X120.955Y-106.04
X120.955Y-108.58
X120.955Y-111.12
X120.955Y-113.66
X120.955Y-116.2
X120.955Y-118.74
X120.955Y-121.28
X120.955Y-123.82
X123.495Y-45.08
X123.495Y-47.62
X123.495Y-50.16
X123.495Y-52.7
X123.495Y-55.24
X123.495Y-57.78
X123.495Y-60.32
X123.495Y-62.86
X123.495Y-65.4
X123.495Y-67.94
X123.495Y-70.48
X123.495Y-73.02
X123.495Y-75.56
X123.495Y-78.1
X123.495Y-80.64
X123.495Y-83.18
X123.495Y-85.72
X123.495Y-88.26
X123.495Y-90.8
X123.495Y-93.34
X123.495Y-95.88
X123.495Y-98.42
X123.495Y-100.96
X123.495Y-103.5
X123.495Y-106.04
X123.495Y-108.58
X123.495Y-111.12
X123.495Y-113.66
X123.495Y-116.2
X123.495Y-118.74
X123.495Y-121.28
X123.495Y-123.82
M30
