%TF.GenerationSoftware,KiCad,Pcbnew,10.0.5*%
%TF.CreationDate,2026-10-10T13:59:54+00:00*%
%TF.ProjectId,mono_panel_32x32,6d6f6e6f-5f70-4616-9e65-6c5f33327833,rev?*%
%TF.SameCoordinates,Original*%
%TF.FileFunction,Soldermask,Bot*%
%TF.FilePolarity,Negative*%
%FSLAX46Y46*%
G04 Gerber Fmt 4.6, Leading zero omitted, Abs format (unit mm)*
G04 Created by KiCad (PCBNEW 10.0.5) date 2026-10-10 13:59:54*
%MOMM*%
%LPD*%
G01*
G04 APERTURE LIST*
G04 APERTURE END LIST*
G36*
X73750000Y-160899999D02*
G01*
X73450000Y-160899999D01*
X73450000Y-159599999D01*
X73750000Y-159599999D01*
X73750000Y-160899999D01*
G37*
G36*
X74250000Y-160899999D02*
G01*
X73950000Y-160899999D01*
X73950000Y-159599999D01*
X74250000Y-159599999D01*
X74250000Y-160899999D01*
G37*
G36*
X74750000Y-160899999D02*
G01*
X74450000Y-160899999D01*
X74450000Y-159599999D01*
X74750000Y-159599999D01*
X74750000Y-160899999D01*
G37*
G36*
X75250000Y-160899999D02*
G01*
X74950000Y-160899999D01*
X74950000Y-159599999D01*
X75250000Y-159599999D01*
X75250000Y-160899999D01*
G37*
G36*
X75750000Y-160899999D02*
G01*
X75450000Y-160899999D01*
X75450000Y-159599999D01*
X75750000Y-159599999D01*
X75750000Y-160899999D01*
G37*
G36*
X76250000Y-160899999D02*
G01*
X75950000Y-160899999D01*
X75950000Y-159599999D01*
X76250000Y-159599999D01*
X76250000Y-160899999D01*
G37*
G36*
X76750000Y-160899999D02*
G01*
X76450000Y-160899999D01*
X76450000Y-159599999D01*
X76750000Y-159599999D01*
X76750000Y-160899999D01*
G37*
G36*
X77250000Y-160899999D02*
G01*
X76950000Y-160899999D01*
X76950000Y-159599999D01*
X77250000Y-159599999D01*
X77250000Y-160899999D01*
G37*
G36*
X77750000Y-160899999D02*
G01*
X77450000Y-160899999D01*
X77450000Y-159599999D01*
X77750000Y-159599999D01*
X77750000Y-160899999D01*
G37*
G36*
X78250000Y-160899999D02*
G01*
X77950000Y-160899999D01*
X77950000Y-159599999D01*
X78250000Y-159599999D01*
X78250000Y-160899999D01*
G37*
G36*
X78750000Y-160899999D02*
G01*
X78450000Y-160899999D01*
X78450000Y-159599999D01*
X78750000Y-159599999D01*
X78750000Y-160899999D01*
G37*
G36*
X79250000Y-160899999D02*
G01*
X78950000Y-160899999D01*
X78950000Y-159599999D01*
X79250000Y-159599999D01*
X79250000Y-160899999D01*
G37*
G36*
X79750000Y-160899999D02*
G01*
X79450000Y-160899999D01*
X79450000Y-159599999D01*
X79750000Y-159599999D01*
X79750000Y-160899999D01*
G37*
G36*
X80250000Y-160899999D02*
G01*
X79950000Y-160899999D01*
X79950000Y-159599999D01*
X80250000Y-159599999D01*
X80250000Y-160899999D01*
G37*
G36*
X80750000Y-160899999D02*
G01*
X80450000Y-160899999D01*
X80450000Y-159599999D01*
X80750000Y-159599999D01*
X80750000Y-160899999D01*
G37*
G36*
X81250000Y-160899999D02*
G01*
X80950000Y-160899999D01*
X80950000Y-159599999D01*
X81250000Y-159599999D01*
X81250000Y-160899999D01*
G37*
G36*
X81750000Y-160899999D02*
G01*
X81450000Y-160899999D01*
X81450000Y-159599999D01*
X81750000Y-159599999D01*
X81750000Y-160899999D01*
G37*
G36*
X82250000Y-160899999D02*
G01*
X81950000Y-160899999D01*
X81950000Y-159599999D01*
X82250000Y-159599999D01*
X82250000Y-160899999D01*
G37*
G36*
X82750000Y-160899999D02*
G01*
X82450000Y-160899999D01*
X82450000Y-159599999D01*
X82750000Y-159599999D01*
X82750000Y-160899999D01*
G37*
G36*
X83250000Y-160899999D02*
G01*
X82950000Y-160899999D01*
X82950000Y-159599999D01*
X83250000Y-159599999D01*
X83250000Y-160899999D01*
G37*
G36*
X83750000Y-160899999D02*
G01*
X83450000Y-160899999D01*
X83450000Y-159599999D01*
X83750000Y-159599999D01*
X83750000Y-160899999D01*
G37*
G36*
X84250000Y-160899999D02*
G01*
X83950000Y-160899999D01*
X83950000Y-159599999D01*
X84250000Y-159599999D01*
X84250000Y-160899999D01*
G37*
G36*
X84750000Y-160899999D02*
G01*
X84450000Y-160899999D01*
X84450000Y-159599999D01*
X84750000Y-159599999D01*
X84750000Y-160899999D01*
G37*
G36*
X85250000Y-160899999D02*
G01*
X84950000Y-160899999D01*
X84950000Y-159599999D01*
X85250000Y-159599999D01*
X85250000Y-160899999D01*
G37*
G36*
X85750000Y-160899999D02*
G01*
X85450000Y-160899999D01*
X85450000Y-159599999D01*
X85750000Y-159599999D01*
X85750000Y-160899999D01*
G37*
G36*
X86250000Y-160899999D02*
G01*
X85950000Y-160899999D01*
X85950000Y-159599999D01*
X86250000Y-159599999D01*
X86250000Y-160899999D01*
G37*
G36*
X86750000Y-160899999D02*
G01*
X86450000Y-160899999D01*
X86450000Y-159599999D01*
X86750000Y-159599999D01*
X86750000Y-160899999D01*
G37*
G36*
X87250000Y-160899999D02*
G01*
X86950000Y-160899999D01*
X86950000Y-159599999D01*
X87250000Y-159599999D01*
X87250000Y-160899999D01*
G37*
G36*
X87750000Y-160899999D02*
G01*
X87450000Y-160899999D01*
X87450000Y-159599999D01*
X87750000Y-159599999D01*
X87750000Y-160899999D01*
G37*
G36*
X88250000Y-160899999D02*
G01*
X87950000Y-160899999D01*
X87950000Y-159599999D01*
X88250000Y-159599999D01*
X88250000Y-160899999D01*
G37*
G36*
X88750000Y-160899999D02*
G01*
X88450000Y-160899999D01*
X88450000Y-159599999D01*
X88750000Y-159599999D01*
X88750000Y-160899999D01*
G37*
G36*
X89250000Y-160899999D02*
G01*
X88950000Y-160899999D01*
X88950000Y-159599999D01*
X89250000Y-159599999D01*
X89250000Y-160899999D01*
G37*
G36*
X89750000Y-160899999D02*
G01*
X89450000Y-160899999D01*
X89450000Y-159599999D01*
X89750000Y-159599999D01*
X89750000Y-160899999D01*
G37*
G36*
X90250000Y-160899999D02*
G01*
X89950000Y-160899999D01*
X89950000Y-159599999D01*
X90250000Y-159599999D01*
X90250000Y-160899999D01*
G37*
G36*
X90750000Y-160899999D02*
G01*
X90450000Y-160899999D01*
X90450000Y-159599999D01*
X90750000Y-159599999D01*
X90750000Y-160899999D01*
G37*
G36*
X91250000Y-160899999D02*
G01*
X90950000Y-160899999D01*
X90950000Y-159599999D01*
X91250000Y-159599999D01*
X91250000Y-160899999D01*
G37*
G36*
X91750000Y-160899999D02*
G01*
X91450000Y-160899999D01*
X91450000Y-159599999D01*
X91750000Y-159599999D01*
X91750000Y-160899999D01*
G37*
G36*
X92250000Y-160899999D02*
G01*
X91950000Y-160899999D01*
X91950000Y-159599999D01*
X92250000Y-159599999D01*
X92250000Y-160899999D01*
G37*
G36*
X92750000Y-160899999D02*
G01*
X92450000Y-160899999D01*
X92450000Y-159599999D01*
X92750000Y-159599999D01*
X92750000Y-160899999D01*
G37*
G36*
X93250000Y-160899999D02*
G01*
X92950000Y-160899999D01*
X92950000Y-159599999D01*
X93250000Y-159599999D01*
X93250000Y-160899999D01*
G37*
G36*
X72600000Y-158099999D02*
G01*
X70800000Y-158099999D01*
X70800000Y-155899999D01*
X72600000Y-155899999D01*
X72600000Y-158099999D01*
G37*
G36*
X95900000Y-158099999D02*
G01*
X94100000Y-158099999D01*
X94100000Y-155899999D01*
X95900000Y-155899999D01*
X95900000Y-158099999D01*
G37*
G36*
X10500000Y-95900000D02*
G01*
X8300000Y-95900000D01*
X8300000Y-94100000D01*
X10500000Y-94100000D01*
X10500000Y-95900000D01*
G37*
G36*
X6800000Y-93250000D02*
G01*
X5500000Y-93250000D01*
X5500000Y-92950000D01*
X6800000Y-92950000D01*
X6800000Y-93250000D01*
G37*
G36*
X6800000Y-92750000D02*
G01*
X5500000Y-92750000D01*
X5500000Y-92450000D01*
X6800000Y-92450000D01*
X6800000Y-92750000D01*
G37*
G36*
X6800000Y-92250000D02*
G01*
X5500000Y-92250000D01*
X5500000Y-91950000D01*
X6800000Y-91950000D01*
X6800000Y-92250000D01*
G37*
G36*
X6800000Y-91750000D02*
G01*
X5500000Y-91750000D01*
X5500000Y-91450000D01*
X6800000Y-91450000D01*
X6800000Y-91750000D01*
G37*
G36*
X6800000Y-91250000D02*
G01*
X5500000Y-91250000D01*
X5500000Y-90950000D01*
X6800000Y-90950000D01*
X6800000Y-91250000D01*
G37*
G36*
X6800000Y-90750000D02*
G01*
X5500000Y-90750000D01*
X5500000Y-90450000D01*
X6800000Y-90450000D01*
X6800000Y-90750000D01*
G37*
G36*
X6800000Y-90250000D02*
G01*
X5500000Y-90250000D01*
X5500000Y-89950000D01*
X6800000Y-89950000D01*
X6800000Y-90250000D01*
G37*
G36*
X6800000Y-89750000D02*
G01*
X5500000Y-89750000D01*
X5500000Y-89450000D01*
X6800000Y-89450000D01*
X6800000Y-89750000D01*
G37*
G36*
X6800000Y-89250000D02*
G01*
X5500000Y-89250000D01*
X5500000Y-88950000D01*
X6800000Y-88950000D01*
X6800000Y-89250000D01*
G37*
G36*
X6800000Y-88750000D02*
G01*
X5500000Y-88750000D01*
X5500000Y-88450000D01*
X6800000Y-88450000D01*
X6800000Y-88750000D01*
G37*
G36*
X6800000Y-88250000D02*
G01*
X5500000Y-88250000D01*
X5500000Y-87950000D01*
X6800000Y-87950000D01*
X6800000Y-88250000D01*
G37*
G36*
X6800000Y-87750000D02*
G01*
X5500000Y-87750000D01*
X5500000Y-87450000D01*
X6800000Y-87450000D01*
X6800000Y-87750000D01*
G37*
G36*
X6800000Y-87250000D02*
G01*
X5500000Y-87250000D01*
X5500000Y-86950000D01*
X6800000Y-86950000D01*
X6800000Y-87250000D01*
G37*
G36*
X6800000Y-86750000D02*
G01*
X5500000Y-86750000D01*
X5500000Y-86450000D01*
X6800000Y-86450000D01*
X6800000Y-86750000D01*
G37*
G36*
X6800000Y-86250000D02*
G01*
X5500000Y-86250000D01*
X5500000Y-85950000D01*
X6800000Y-85950000D01*
X6800000Y-86250000D01*
G37*
G36*
X6800000Y-85750000D02*
G01*
X5500000Y-85750000D01*
X5500000Y-85450000D01*
X6800000Y-85450000D01*
X6800000Y-85750000D01*
G37*
G36*
X6800000Y-85250000D02*
G01*
X5500000Y-85250000D01*
X5500000Y-84950000D01*
X6800000Y-84950000D01*
X6800000Y-85250000D01*
G37*
G36*
X6800000Y-84750000D02*
G01*
X5500000Y-84750000D01*
X5500000Y-84450000D01*
X6800000Y-84450000D01*
X6800000Y-84750000D01*
G37*
G36*
X6800000Y-84250000D02*
G01*
X5500000Y-84250000D01*
X5500000Y-83950000D01*
X6800000Y-83950000D01*
X6800000Y-84250000D01*
G37*
G36*
X6800000Y-83750000D02*
G01*
X5500000Y-83750000D01*
X5500000Y-83450000D01*
X6800000Y-83450000D01*
X6800000Y-83750000D01*
G37*
G36*
X6800000Y-83250000D02*
G01*
X5500000Y-83250000D01*
X5500000Y-82950000D01*
X6800000Y-82950000D01*
X6800000Y-83250000D01*
G37*
G36*
X6800000Y-82750000D02*
G01*
X5500000Y-82750000D01*
X5500000Y-82450000D01*
X6800000Y-82450000D01*
X6800000Y-82750000D01*
G37*
G36*
X6800000Y-82250000D02*
G01*
X5500000Y-82250000D01*
X5500000Y-81950000D01*
X6800000Y-81950000D01*
X6800000Y-82250000D01*
G37*
G36*
X6800000Y-81750000D02*
G01*
X5500000Y-81750000D01*
X5500000Y-81450000D01*
X6800000Y-81450000D01*
X6800000Y-81750000D01*
G37*
G36*
X6800000Y-81250000D02*
G01*
X5500000Y-81250000D01*
X5500000Y-80950000D01*
X6800000Y-80950000D01*
X6800000Y-81250000D01*
G37*
G36*
X6800000Y-80750000D02*
G01*
X5500000Y-80750000D01*
X5500000Y-80450000D01*
X6800000Y-80450000D01*
X6800000Y-80750000D01*
G37*
G36*
X6800000Y-80250000D02*
G01*
X5500000Y-80250000D01*
X5500000Y-79950000D01*
X6800000Y-79950000D01*
X6800000Y-80250000D01*
G37*
G36*
X6800000Y-79750000D02*
G01*
X5500000Y-79750000D01*
X5500000Y-79450000D01*
X6800000Y-79450000D01*
X6800000Y-79750000D01*
G37*
G36*
X6800000Y-79250000D02*
G01*
X5500000Y-79250000D01*
X5500000Y-78950000D01*
X6800000Y-78950000D01*
X6800000Y-79250000D01*
G37*
G36*
X6800000Y-78750000D02*
G01*
X5500000Y-78750000D01*
X5500000Y-78450000D01*
X6800000Y-78450000D01*
X6800000Y-78750000D01*
G37*
G36*
X6800000Y-78250000D02*
G01*
X5500000Y-78250000D01*
X5500000Y-77950000D01*
X6800000Y-77950000D01*
X6800000Y-78250000D01*
G37*
G36*
X6800000Y-77750000D02*
G01*
X5500000Y-77750000D01*
X5500000Y-77450000D01*
X6800000Y-77450000D01*
X6800000Y-77750000D01*
G37*
G36*
X6800000Y-77250000D02*
G01*
X5500000Y-77250000D01*
X5500000Y-76950000D01*
X6800000Y-76950000D01*
X6800000Y-77250000D01*
G37*
G36*
X6800000Y-76750000D02*
G01*
X5500000Y-76750000D01*
X5500000Y-76450000D01*
X6800000Y-76450000D01*
X6800000Y-76750000D01*
G37*
G36*
X6800000Y-76250000D02*
G01*
X5500000Y-76250000D01*
X5500000Y-75950000D01*
X6800000Y-75950000D01*
X6800000Y-76250000D01*
G37*
G36*
X6800000Y-75750000D02*
G01*
X5500000Y-75750000D01*
X5500000Y-75450000D01*
X6800000Y-75450000D01*
X6800000Y-75750000D01*
G37*
G36*
X6800000Y-75250000D02*
G01*
X5500000Y-75250000D01*
X5500000Y-74950000D01*
X6800000Y-74950000D01*
X6800000Y-75250000D01*
G37*
G36*
X6800000Y-74750000D02*
G01*
X5500000Y-74750000D01*
X5500000Y-74450000D01*
X6800000Y-74450000D01*
X6800000Y-74750000D01*
G37*
G36*
X6800000Y-74250000D02*
G01*
X5500000Y-74250000D01*
X5500000Y-73950000D01*
X6800000Y-73950000D01*
X6800000Y-74250000D01*
G37*
G36*
X6800000Y-73750000D02*
G01*
X5500000Y-73750000D01*
X5500000Y-73450000D01*
X6800000Y-73450000D01*
X6800000Y-73750000D01*
G37*
G36*
X10500000Y-72600000D02*
G01*
X8300000Y-72600000D01*
X8300000Y-70800000D01*
X10500000Y-70800000D01*
X10500000Y-72600000D01*
G37*
M02*
