%TF.GenerationSoftware,KiCad,Pcbnew,10.0.5*%
%TF.CreationDate,2026-10-10T13:59:54+00:00*%
%TF.ProjectId,mono_panel_32x32,6d6f6e6f-5f70-4616-9e65-6c5f33327833,rev?*%
%TF.SameCoordinates,Original*%
%TF.FileFunction,Legend,Bot*%
%TF.FilePolarity,Positive*%
%FSLAX46Y46*%
G04 Gerber Fmt 4.6, Leading zero omitted, Abs format (unit mm)*
G04 Created by KiCad (PCBNEW 10.0.5) date 2026-10-10 13:59:54*
%MOMM*%
%LPD*%
G01*
G04 APERTURE LIST*
%ADD10C,0.150000*%
%ADD11C,0.120000*%
G04 APERTURE END LIST*
D10*
X82684260Y-1083688D02*
X83173664Y-1057294D01*
X82938550Y-1866311D02*
X83064683Y-1392705D01*
X83064683Y-1392705D02*
X82684260Y-1083688D01*
X83173664Y-1057294D02*
X83350000Y-600000D01*
X83350000Y-600000D02*
X83526335Y-1057294D01*
X83350000Y-1600000D02*
X82938550Y-1866311D01*
X83526335Y-1057294D02*
X84015739Y-1083688D01*
X83635316Y-1392705D02*
X83761449Y-1866311D01*
X83761449Y-1866311D02*
X83350000Y-1600000D01*
X84015739Y-1083688D02*
X83635316Y-1392705D01*
X95445237Y-3654819D02*
X95445237Y-2654819D01*
X95445237Y-2654819D02*
X95064285Y-2654819D01*
X95064285Y-2654819D02*
X94969047Y-2702438D01*
X94969047Y-2702438D02*
X94921428Y-2750057D01*
X94921428Y-2750057D02*
X94873809Y-2845295D01*
X94873809Y-2845295D02*
X94873809Y-2988152D01*
X94873809Y-2988152D02*
X94921428Y-3083390D01*
X94921428Y-3083390D02*
X94969047Y-3131009D01*
X94969047Y-3131009D02*
X95064285Y-3178628D01*
X95064285Y-3178628D02*
X95445237Y-3178628D01*
X93873809Y-3559580D02*
X93921428Y-3607200D01*
X93921428Y-3607200D02*
X94064285Y-3654819D01*
X94064285Y-3654819D02*
X94159523Y-3654819D01*
X94159523Y-3654819D02*
X94302380Y-3607200D01*
X94302380Y-3607200D02*
X94397618Y-3511961D01*
X94397618Y-3511961D02*
X94445237Y-3416723D01*
X94445237Y-3416723D02*
X94492856Y-3226247D01*
X94492856Y-3226247D02*
X94492856Y-3083390D01*
X94492856Y-3083390D02*
X94445237Y-2892914D01*
X94445237Y-2892914D02*
X94397618Y-2797676D01*
X94397618Y-2797676D02*
X94302380Y-2702438D01*
X94302380Y-2702438D02*
X94159523Y-2654819D01*
X94159523Y-2654819D02*
X94064285Y-2654819D01*
X94064285Y-2654819D02*
X93921428Y-2702438D01*
X93921428Y-2702438D02*
X93873809Y-2750057D01*
X93111904Y-3131009D02*
X92969047Y-3178628D01*
X92969047Y-3178628D02*
X92921428Y-3226247D01*
X92921428Y-3226247D02*
X92873809Y-3321485D01*
X92873809Y-3321485D02*
X92873809Y-3464342D01*
X92873809Y-3464342D02*
X92921428Y-3559580D01*
X92921428Y-3559580D02*
X92969047Y-3607200D01*
X92969047Y-3607200D02*
X93064285Y-3654819D01*
X93064285Y-3654819D02*
X93445237Y-3654819D01*
X93445237Y-3654819D02*
X93445237Y-2654819D01*
X93445237Y-2654819D02*
X93111904Y-2654819D01*
X93111904Y-2654819D02*
X93016666Y-2702438D01*
X93016666Y-2702438D02*
X92969047Y-2750057D01*
X92969047Y-2750057D02*
X92921428Y-2845295D01*
X92921428Y-2845295D02*
X92921428Y-2940533D01*
X92921428Y-2940533D02*
X92969047Y-3035771D01*
X92969047Y-3035771D02*
X93016666Y-3083390D01*
X93016666Y-3083390D02*
X93111904Y-3131009D01*
X93111904Y-3131009D02*
X93445237Y-3131009D01*
X91111904Y-3559580D02*
X91159523Y-3607200D01*
X91159523Y-3607200D02*
X91302380Y-3654819D01*
X91302380Y-3654819D02*
X91397618Y-3654819D01*
X91397618Y-3654819D02*
X91540475Y-3607200D01*
X91540475Y-3607200D02*
X91635713Y-3511961D01*
X91635713Y-3511961D02*
X91683332Y-3416723D01*
X91683332Y-3416723D02*
X91730951Y-3226247D01*
X91730951Y-3226247D02*
X91730951Y-3083390D01*
X91730951Y-3083390D02*
X91683332Y-2892914D01*
X91683332Y-2892914D02*
X91635713Y-2797676D01*
X91635713Y-2797676D02*
X91540475Y-2702438D01*
X91540475Y-2702438D02*
X91397618Y-2654819D01*
X91397618Y-2654819D02*
X91302380Y-2654819D01*
X91302380Y-2654819D02*
X91159523Y-2702438D01*
X91159523Y-2702438D02*
X91111904Y-2750057D01*
X90111904Y-3654819D02*
X90445237Y-3178628D01*
X90683332Y-3654819D02*
X90683332Y-2654819D01*
X90683332Y-2654819D02*
X90302380Y-2654819D01*
X90302380Y-2654819D02*
X90207142Y-2702438D01*
X90207142Y-2702438D02*
X90159523Y-2750057D01*
X90159523Y-2750057D02*
X90111904Y-2845295D01*
X90111904Y-2845295D02*
X90111904Y-2988152D01*
X90111904Y-2988152D02*
X90159523Y-3083390D01*
X90159523Y-3083390D02*
X90207142Y-3131009D01*
X90207142Y-3131009D02*
X90302380Y-3178628D01*
X90302380Y-3178628D02*
X90683332Y-3178628D01*
X89683332Y-3131009D02*
X89349999Y-3131009D01*
X89207142Y-3654819D02*
X89683332Y-3654819D01*
X89683332Y-3654819D02*
X89683332Y-2654819D01*
X89683332Y-2654819D02*
X89207142Y-2654819D01*
X88826189Y-3369104D02*
X88349999Y-3369104D01*
X88921427Y-3654819D02*
X88588094Y-2654819D01*
X88588094Y-2654819D02*
X88254761Y-3654819D01*
X88064284Y-2654819D02*
X87492856Y-2654819D01*
X87778570Y-3654819D02*
X87778570Y-2654819D01*
X87159522Y-3131009D02*
X86826189Y-3131009D01*
X86683332Y-3654819D02*
X87159522Y-3654819D01*
X87159522Y-3654819D02*
X87159522Y-2654819D01*
X87159522Y-2654819D02*
X86683332Y-2654819D01*
X86254760Y-3654819D02*
X86254760Y-2654819D01*
X86254760Y-2654819D02*
X86016665Y-2654819D01*
X86016665Y-2654819D02*
X85873808Y-2702438D01*
X85873808Y-2702438D02*
X85778570Y-2797676D01*
X85778570Y-2797676D02*
X85730951Y-2892914D01*
X85730951Y-2892914D02*
X85683332Y-3083390D01*
X85683332Y-3083390D02*
X85683332Y-3226247D01*
X85683332Y-3226247D02*
X85730951Y-3416723D01*
X85730951Y-3416723D02*
X85778570Y-3511961D01*
X85778570Y-3511961D02*
X85873808Y-3607200D01*
X85873808Y-3607200D02*
X86016665Y-3654819D01*
X86016665Y-3654819D02*
X86254760Y-3654819D01*
X84159522Y-3131009D02*
X84016665Y-3178628D01*
X84016665Y-3178628D02*
X83969046Y-3226247D01*
X83969046Y-3226247D02*
X83921427Y-3321485D01*
X83921427Y-3321485D02*
X83921427Y-3464342D01*
X83921427Y-3464342D02*
X83969046Y-3559580D01*
X83969046Y-3559580D02*
X84016665Y-3607200D01*
X84016665Y-3607200D02*
X84111903Y-3654819D01*
X84111903Y-3654819D02*
X84492855Y-3654819D01*
X84492855Y-3654819D02*
X84492855Y-2654819D01*
X84492855Y-2654819D02*
X84159522Y-2654819D01*
X84159522Y-2654819D02*
X84064284Y-2702438D01*
X84064284Y-2702438D02*
X84016665Y-2750057D01*
X84016665Y-2750057D02*
X83969046Y-2845295D01*
X83969046Y-2845295D02*
X83969046Y-2940533D01*
X83969046Y-2940533D02*
X84016665Y-3035771D01*
X84016665Y-3035771D02*
X84064284Y-3083390D01*
X84064284Y-3083390D02*
X84159522Y-3131009D01*
X84159522Y-3131009D02*
X84492855Y-3131009D01*
X83302379Y-3178628D02*
X83302379Y-3654819D01*
X83635712Y-2654819D02*
X83302379Y-3178628D01*
X83302379Y-3178628D02*
X82969046Y-2654819D01*
X81873807Y-3654819D02*
X81873807Y-2654819D01*
X80921427Y-3654819D02*
X81397617Y-3654819D01*
X81397617Y-3654819D02*
X81397617Y-2654819D01*
X80111903Y-3654819D02*
X80588093Y-3654819D01*
X80588093Y-3654819D02*
X80588093Y-2654819D01*
X79778569Y-3654819D02*
X79778569Y-2654819D01*
X79349998Y-3369104D02*
X78873808Y-3369104D01*
X79445236Y-3654819D02*
X79111903Y-2654819D01*
X79111903Y-2654819D02*
X78778570Y-3654819D01*
X77683331Y-3654819D02*
X77683331Y-2654819D01*
X77683331Y-2654819D02*
X77302379Y-2654819D01*
X77302379Y-2654819D02*
X77207141Y-2702438D01*
X77207141Y-2702438D02*
X77159522Y-2750057D01*
X77159522Y-2750057D02*
X77111903Y-2845295D01*
X77111903Y-2845295D02*
X77111903Y-2988152D01*
X77111903Y-2988152D02*
X77159522Y-3083390D01*
X77159522Y-3083390D02*
X77207141Y-3131009D01*
X77207141Y-3131009D02*
X77302379Y-3178628D01*
X77302379Y-3178628D02*
X77683331Y-3178628D01*
X76207141Y-3654819D02*
X76683331Y-3654819D01*
X76683331Y-3654819D02*
X76683331Y-2654819D01*
X75873807Y-3654819D02*
X75873807Y-2654819D01*
X75397617Y-2654819D02*
X75397617Y-3464342D01*
X75397617Y-3464342D02*
X75349998Y-3559580D01*
X75349998Y-3559580D02*
X75302379Y-3607200D01*
X75302379Y-3607200D02*
X75207141Y-3654819D01*
X75207141Y-3654819D02*
X75016665Y-3654819D01*
X75016665Y-3654819D02*
X74921427Y-3607200D01*
X74921427Y-3607200D02*
X74873808Y-3559580D01*
X74873808Y-3559580D02*
X74826189Y-3464342D01*
X74826189Y-3464342D02*
X74826189Y-2654819D01*
X74349998Y-3654819D02*
X74349998Y-2654819D01*
X73778570Y-3654819D02*
X74207141Y-3083390D01*
X73778570Y-2654819D02*
X74349998Y-3226247D01*
X73349998Y-3654819D02*
X73349998Y-2654819D01*
X73349998Y-3131009D02*
X72778570Y-3131009D01*
X72778570Y-3654819D02*
X72778570Y-2654819D01*
X72302379Y-3654819D02*
X72302379Y-2654819D01*
X71826189Y-3654819D02*
X71826189Y-2654819D01*
X71826189Y-2654819D02*
X71254761Y-3654819D01*
X71254761Y-3654819D02*
X71254761Y-2654819D01*
X3754819Y-81516666D02*
X4469104Y-81516666D01*
X4469104Y-81516666D02*
X4611961Y-81469047D01*
X4611961Y-81469047D02*
X4707200Y-81373809D01*
X4707200Y-81373809D02*
X4754819Y-81230952D01*
X4754819Y-81230952D02*
X4754819Y-81135714D01*
X4850057Y-81754762D02*
X4850057Y-82516666D01*
X4754819Y-83326190D02*
X4278628Y-82992857D01*
X4754819Y-82754762D02*
X3754819Y-82754762D01*
X3754819Y-82754762D02*
X3754819Y-83135714D01*
X3754819Y-83135714D02*
X3802438Y-83230952D01*
X3802438Y-83230952D02*
X3850057Y-83278571D01*
X3850057Y-83278571D02*
X3945295Y-83326190D01*
X3945295Y-83326190D02*
X4088152Y-83326190D01*
X4088152Y-83326190D02*
X4183390Y-83278571D01*
X4183390Y-83278571D02*
X4231009Y-83230952D01*
X4231009Y-83230952D02*
X4278628Y-83135714D01*
X4278628Y-83135714D02*
X4278628Y-82754762D01*
X3754819Y-83945238D02*
X3754819Y-84135714D01*
X3754819Y-84135714D02*
X3802438Y-84230952D01*
X3802438Y-84230952D02*
X3897676Y-84326190D01*
X3897676Y-84326190D02*
X4088152Y-84373809D01*
X4088152Y-84373809D02*
X4421485Y-84373809D01*
X4421485Y-84373809D02*
X4611961Y-84326190D01*
X4611961Y-84326190D02*
X4707200Y-84230952D01*
X4707200Y-84230952D02*
X4754819Y-84135714D01*
X4754819Y-84135714D02*
X4754819Y-83945238D01*
X4754819Y-83945238D02*
X4707200Y-83850000D01*
X4707200Y-83850000D02*
X4611961Y-83754762D01*
X4611961Y-83754762D02*
X4421485Y-83707143D01*
X4421485Y-83707143D02*
X4088152Y-83707143D01*
X4088152Y-83707143D02*
X3897676Y-83754762D01*
X3897676Y-83754762D02*
X3802438Y-83850000D01*
X3802438Y-83850000D02*
X3754819Y-83945238D01*
X3754819Y-84707143D02*
X4754819Y-84945238D01*
X4754819Y-84945238D02*
X4040533Y-85135714D01*
X4040533Y-85135714D02*
X4754819Y-85326190D01*
X4754819Y-85326190D02*
X3754819Y-85564286D01*
X85016666Y-161554818D02*
X85016666Y-162269103D01*
X85016666Y-162269103D02*
X85064285Y-162411960D01*
X85064285Y-162411960D02*
X85159523Y-162507199D01*
X85159523Y-162507199D02*
X85302380Y-162554818D01*
X85302380Y-162554818D02*
X85397618Y-162554818D01*
X84778571Y-162650056D02*
X84016666Y-162650056D01*
X83207142Y-162459579D02*
X83254761Y-162507199D01*
X83254761Y-162507199D02*
X83397618Y-162554818D01*
X83397618Y-162554818D02*
X83492856Y-162554818D01*
X83492856Y-162554818D02*
X83635713Y-162507199D01*
X83635713Y-162507199D02*
X83730951Y-162411960D01*
X83730951Y-162411960D02*
X83778570Y-162316722D01*
X83778570Y-162316722D02*
X83826189Y-162126246D01*
X83826189Y-162126246D02*
X83826189Y-161983389D01*
X83826189Y-161983389D02*
X83778570Y-161792913D01*
X83778570Y-161792913D02*
X83730951Y-161697675D01*
X83730951Y-161697675D02*
X83635713Y-161602437D01*
X83635713Y-161602437D02*
X83492856Y-161554818D01*
X83492856Y-161554818D02*
X83397618Y-161554818D01*
X83397618Y-161554818D02*
X83254761Y-161602437D01*
X83254761Y-161602437D02*
X83207142Y-161650056D01*
X82588094Y-161554818D02*
X82397618Y-161554818D01*
X82397618Y-161554818D02*
X82302380Y-161602437D01*
X82302380Y-161602437D02*
X82207142Y-161697675D01*
X82207142Y-161697675D02*
X82159523Y-161888151D01*
X82159523Y-161888151D02*
X82159523Y-162221484D01*
X82159523Y-162221484D02*
X82207142Y-162411960D01*
X82207142Y-162411960D02*
X82302380Y-162507199D01*
X82302380Y-162507199D02*
X82397618Y-162554818D01*
X82397618Y-162554818D02*
X82588094Y-162554818D01*
X82588094Y-162554818D02*
X82683332Y-162507199D01*
X82683332Y-162507199D02*
X82778570Y-162411960D01*
X82778570Y-162411960D02*
X82826189Y-162221484D01*
X82826189Y-162221484D02*
X82826189Y-161888151D01*
X82826189Y-161888151D02*
X82778570Y-161697675D01*
X82778570Y-161697675D02*
X82683332Y-161602437D01*
X82683332Y-161602437D02*
X82588094Y-161554818D01*
X81254761Y-162554818D02*
X81730951Y-162554818D01*
X81730951Y-162554818D02*
X81730951Y-161554818D01*
%TO.C,J_ROW*%
D11*
X6700000Y-71700000D02*
X8040000Y-71700000D01*
X6700000Y-73190000D02*
X5500000Y-73190000D01*
X6700000Y-73190000D02*
X6700000Y-71700000D01*
X6700000Y-93510000D02*
X6700000Y-95000000D01*
X6700000Y-95000000D02*
X8040000Y-95000000D01*
X10760000Y-71700000D02*
X12500000Y-71700000D01*
X12500000Y-71700000D02*
X12500000Y-95000000D01*
X12500000Y-95000000D02*
X10760000Y-95000000D01*
%TO.C,J_COL*%
X71700000Y-153899999D02*
X95000000Y-153899999D01*
X71700000Y-155639999D02*
X71700000Y-153899999D01*
X71700000Y-159699999D02*
X71700000Y-158359999D01*
X73190000Y-159699999D02*
X71700000Y-159699999D01*
X73190000Y-159699999D02*
X73190000Y-160899999D01*
X93510000Y-159699999D02*
X95000000Y-159699999D01*
X95000000Y-153899999D02*
X95000000Y-155639999D01*
X95000000Y-159699999D02*
X95000000Y-158359999D01*
%TD*%
M02*
